<svg xmlns="http://www.w3.org/2000/svg" xmlns:xlink="http://www.w3.org/1999/xlink" viewBox="0 0 712.77 547.61"><defs><style>.cls-1,.cls-44,.cls-46{fill:none;}.cls-2{opacity:0.5;}.cls-3{fill:url(#linear-gradient);}.cls-4{fill:#f2f2f2;}.cls-5{fill:#e0e0e0;}.cls-12,.cls-20,.cls-27,.cls-30,.cls-6{fill:#00adee;}.cls-18,.cls-6{opacity:0.7;}.cls-12,.cls-16,.cls-18,.cls-27,.cls-28,.cls-29,.cls-30,.cls-31,.cls-6{isolation:isolate;}.cls-7{fill:url(#linear-gradient-2);}.cls-8{fill:#f5f5f5;}.cls-9{fill:url(#linear-gradient-3);}.cls-10,.cls-31{fill:#fff;}.cls-11{clip-path:url(#clip-path);}.cls-12,.cls-16{opacity:0.4;}.cls-13{fill:url(#linear-gradient-4);}.cls-14{fill:url(#linear-gradient-5);}.cls-15{clip-path:url(#clip-path-2);}.cls-16{fill:#bdbdbd;}.cls-17{fill:url(#linear-gradient-6);}.cls-18,.cls-21{fill:#3ad29f;}.cls-19{fill:url(#linear-gradient-7);}.cls-22{fill:#f55f44;}.cls-23{fill:#fdd835;}.cls-24{fill:url(#linear-gradient-8);}.cls-25{fill:url(#linear-gradient-9);}.cls-26{fill:url(#linear-gradient-10);}.cls-27,.cls-29{opacity:0.1;}.cls-28{fill:#96b7fe;opacity:0.9;}.cls-30{opacity:0.3;}.cls-31{opacity:0.2;}.cls-32{fill:url(#linear-gradient-11);}.cls-33{fill:#fafafa;}.cls-34{fill:url(#linear-gradient-12);}.cls-35{fill:#eee;}.cls-36{fill:url(#linear-gradient-13);}.cls-37{fill:url(#linear-gradient-14);}.cls-38{fill:url(#linear-gradient-15);}.cls-39{fill:url(#linear-gradient-16);}.cls-40{fill:url(#linear-gradient-17);}.cls-41{fill:#69f0ae;}.cls-42{fill:url(#linear-gradient-18);}.cls-43{fill:url(#linear-gradient-19);}.cls-44{stroke:#3f3d56;}.cls-44,.cls-46{stroke-miterlimit:10;}.cls-45{fill:#3acc6c;}.cls-46{stroke:#00adee;stroke-width:7px;}</style><linearGradient id="linear-gradient" x1="243.04" y1="1735.59" x2="243.04" y2="1913.23" gradientTransform="matrix(1, 0, 0, -1, 116.4, 2269.6)" gradientUnits="userSpaceOnUse"><stop offset="0" stop-color="gray" stop-opacity="0.25"/><stop offset="0.54" stop-color="gray" stop-opacity="0.12"/><stop offset="1" stop-color="gray" stop-opacity="0.1"/></linearGradient><linearGradient id="linear-gradient-2" x1="212.66" y1="1830.96" x2="212.66" y2="1878.64" xlink:href="#linear-gradient"/><linearGradient id="linear-gradient-3" x1="212.66" y1="1844.98" x2="212.66" y2="1874.9" xlink:href="#linear-gradient"/><clipPath id="clip-path" transform="translate(-31.1 -34.4)"><rect class="cls-1" x="338.65" y="429.1" width="42.07" height="28.98"/></clipPath><linearGradient id="linear-gradient-4" x1="212.66" y1="1770.19" x2="212.66" y2="1817.87" xlink:href="#linear-gradient"/><linearGradient id="linear-gradient-5" x1="212.66" y1="1784.21" x2="212.66" y2="1814.13" xlink:href="#linear-gradient"/><clipPath id="clip-path-2" transform="translate(-31.1 -34.4)"><rect class="cls-1" x="338.65" y="489.87" width="42.07" height="28.98"/></clipPath><linearGradient id="linear-gradient-6" x1="242.56" y1="1642.81" x2="242.56" y2="1820.45" gradientTransform="matrix(0, 1, 1, 0, -1305.57, 239.35)" xlink:href="#linear-gradient"/><linearGradient id="linear-gradient-7" x1="242.39" y1="1700.99" x2="242.39" y2="1747.81" gradientTransform="matrix(0, 1, 1, 0, -1299.92, 246.58)" xlink:href="#linear-gradient"/><linearGradient id="linear-gradient-8" x1="496.75" y1="1682.74" x2="496.75" y2="1802.08" gradientTransform="matrix(1, 0, 0, -1, -31.5, 2243.46)" gradientUnits="userSpaceOnUse"><stop offset="0" stop-color="#b3b3b3" stop-opacity="0.25"/><stop offset="0.54" stop-color="#b3b3b3" stop-opacity="0.1"/><stop offset="1" stop-color="#b3b3b3" stop-opacity="0.05"/></linearGradient><linearGradient id="linear-gradient-9" x1="459.87" y1="1759.52" x2="459.87" y2="1765.27" gradientTransform="matrix(1, 0, 0, -1, -31.5, 2243.46)" gradientUnits="userSpaceOnUse"><stop offset="0" stop-opacity="0.12"/><stop offset="0.55" stop-opacity="0.09"/><stop offset="1" stop-opacity="0.02"/></linearGradient><linearGradient id="linear-gradient-10" x1="486.26" y1="1766.11" x2="486.26" y2="1783.68" xlink:href="#linear-gradient-9"/><linearGradient id="linear-gradient-11" x1="-44.35" y1="1722.13" x2="-44.35" y2="1895.28" gradientTransform="matrix(1, 0, 0, -1, 116.4, 2269.6)" gradientUnits="userSpaceOnUse"><stop offset="0.01" stop-color="gray" stop-opacity="0.25"/><stop offset="0.54" stop-color="gray" stop-opacity="0.12"/><stop offset="1" stop-color="gray" stop-opacity="0.1"/></linearGradient><linearGradient id="linear-gradient-12" x1="-97.13" y1="1870.28" x2="-97.13" y2="1893.43" gradientTransform="matrix(1, 0, 0, -1, 116.4, 2269.6)" xlink:href="#linear-gradient-8"/><linearGradient id="linear-gradient-13" x1="-4.54" y1="1736.02" x2="-4.54" y2="1909.17" xlink:href="#linear-gradient-11"/><linearGradient id="linear-gradient-14" x1="-57.31" y1="1884.17" x2="-57.31" y2="1907.32" gradientTransform="matrix(1, 0, 0, -1, 116.4, 2269.6)" xlink:href="#linear-gradient-8"/><linearGradient id="linear-gradient-15" x1="34.35" y1="1748.98" x2="34.35" y2="1922.13" xlink:href="#linear-gradient-11"/><linearGradient id="linear-gradient-16" x1="-17.5" y1="1897.13" x2="-17.5" y2="1920.28" gradientTransform="matrix(1, 0, 0, -1, 116.4, 2269.6)" xlink:href="#linear-gradient-8"/><linearGradient id="linear-gradient-17" x1="-79.88" y1="2175.79" x2="-79.88" y2="2204.66" xlink:href="#linear-gradient"/><linearGradient id="linear-gradient-18" x1="-79.88" y1="2140.69" x2="-79.88" y2="2169.56" xlink:href="#linear-gradient"/><linearGradient id="linear-gradient-19" x1="-79.88" y1="2105.6" x2="-79.88" y2="2134.47" xlink:href="#linear-gradient"/></defs><title>coordinator_flow</title><g id="Layer_2" data-name="Layer 2"><g class="cls-2"><rect class="cls-3" x="293.53" y="356.36" width="131.83" height="177.64"/></g><rect class="cls-4" x="295.4" y="359.17" width="128.09" height="171.1"/><rect class="cls-5" x="304.75" y="365.71" width="43.94" height="0.93"/><rect class="cls-6" x="304.75" y="372.26" width="43.94" height="0.93"/><rect class="cls-5" x="356.17" y="365.71" width="43.94" height="0.93"/><rect class="cls-5" x="362.72" y="404.98" width="43.94" height="0.93"/><rect class="cls-5" x="363.65" y="408.72" width="43.94" height="0.93"/><rect class="cls-5" x="365.52" y="413.4" width="43.94" height="0.93"/><rect class="cls-5" x="362.72" y="466.69" width="43.94" height="0.93"/><rect class="cls-5" x="363.65" y="470.43" width="43.94" height="0.93"/><rect class="cls-5" x="365.52" y="474.17" width="43.94" height="0.93"/><g class="cls-2"><rect class="cls-7" x="305.69" y="390.96" width="46.75" height="47.68"/></g><rect class="cls-8" x="305.69" y="391.89" width="45.81" height="45.81"/><g class="cls-2"><rect class="cls-9" x="307.56" y="394.7" width="43.01" height="29.92"/></g><rect id="e1f34465-d008-41db-868b-e00503fb87b3" class="cls-10" x="307.56" y="394.7" width="42.07" height="28.98"/><g class="cls-11"><polygon class="cls-12" points="304.08 422.73 314.75 406.2 319.23 413.43 328.87 403.45 337.13 413.43 344.36 398.63 362.95 428.24 302.7 426.17 304.08 422.73"/><circle class="cls-12" cx="312.34" cy="399.32" r="3.1"/></g><g class="cls-2"><rect class="cls-13" x="305.69" y="451.73" width="46.75" height="47.68"/></g><rect class="cls-8" x="305.69" y="452.66" width="45.81" height="45.81"/><g class="cls-2"><rect class="cls-14" x="307.56" y="455.47" width="43.01" height="29.92"/></g><rect id="c95ac4f6-be4d-44a3-92c2-5c8066e2b531" class="cls-10" x="307.56" y="455.47" width="42.07" height="28.98"/><g class="cls-15"><polygon class="cls-16" points="304.08 483.66 314.75 467.14 319.23 474.37 328.87 464.38 337.13 474.37 344.36 459.56 362.95 489.17 302.7 487.11 304.08 483.66"/><circle class="cls-16" cx="312.34" cy="460.25" r="3.1"/></g><g class="cls-2"><rect class="cls-17" x="337.24" y="415.81" width="177.64" height="132.2" transform="translate(-160.75 771.46) rotate(-78.76)"/></g><rect class="cls-10" x="340.13" y="417.13" width="171.44" height="128.07" transform="translate(-160.19 770.66) rotate(-78.76)"/><rect class="cls-5" x="431.1" y="358.27" width="1.38" height="90.89" transform="translate(-79.45 714.12) rotate(-78.76)"/><rect class="cls-5" x="405.73" y="485.91" width="1.38" height="90.89" transform="translate(-225.06 792.01) rotate(-78.76)"/><rect class="cls-5" x="394.06" y="501.99" width="1.38" height="70.23" transform="translate(-240.1 785.18) rotate(-78.76)"/><rect class="cls-6" x="370.9" y="527.5" width="1.38" height="26.16" transform="matrix(0.19, -0.98, 0.98, 0.19, -262.15, 765.27)"/><rect class="cls-6" x="407.26" y="384.33" width="1.38" height="45.44" transform="translate(-101.91 693.44) rotate(-78.76)"/><rect class="cls-5" x="423.62" y="377.41" width="1.38" height="81.93" transform="translate(-99.85 718.59) rotate(-78.76)"/><rect class="cls-18" x="391.69" y="410.12" width="1.38" height="19.97" transform="translate(-127.25 688.66) rotate(-78.76)"/><rect class="cls-5" x="424.92" y="389.34" width="1.38" height="90.89" transform="translate(-114.89 733.08) rotate(-78.76)"/><g class="cls-2"><rect class="cls-19" x="401.07" y="448.17" width="46.82" height="81.59" transform="translate(-168.95 775.59) rotate(-78.76)"/></g><rect class="cls-10" x="401.63" y="448.52" width="45.79" height="80.56" transform="translate(-168.74 775.5) rotate(-78.76)"/><rect class="cls-5" x="423.38" y="397.11" width="1.38" height="90.89" transform="translate(-123.75 737.82) rotate(-78.76)"/><rect class="cls-20" x="381.49" y="478.57" width="33.39" height="9.98" transform="translate(-184.81 745.46) rotate(-78.76)"/><rect class="cls-21" x="403.49" y="487.46" width="22.38" height="9.98" transform="translate(-180.26 768.79) rotate(-78.76)"/><rect class="cls-22" x="425.2" y="496.02" width="12.05" height="9.98" transform="translate(-175.33 791.91) rotate(-78.76)"/><rect class="cls-23" x="437.77" y="493.43" width="24.44" height="9.98" transform="translate(-157.68 808.23) rotate(-78.76)"/><path class="cls-24" d="M485.84,455.48a45.94,45.94,0,0,0-65-1.28l-.8.78a46,46,0,0,0,58.26,70.5L511.55,560a2.23,2.23,0,0,0,3.16.06l8.28-8a2.23,2.23,0,0,0,.06-3.16l-33.21-34.55A46,46,0,0,0,485.84,455.48ZM475.5,511a32.87,32.87,0,1,1,.91-46.47A32.88,32.88,0,0,1,475.5,511Z" transform="translate(-31.1 -34.4)"/><path class="cls-25" d="M428.37,478.19c-3.69,0-3.7,5.75,0,5.75S432.08,478.19,428.37,478.19Z" transform="translate(-31.1 -34.4)"/><path class="cls-26" d="M454.14,459.79a27.64,27.64,0,0,0-23.82,12.3c-1.57,2.46,2.89,4.63,4.46,2.19,4-6.24,11.55-10.2,19.75-10a25.19,25.19,0,0,1,20.53,11.94c1.57,2.59,5.68.24,4.13-2.33A30.61,30.61,0,0,0,454.14,459.79Z" transform="translate(-31.1 -34.4)"/><path class="cls-20" d="M489.45,453.73a46,46,0,0,0-65-1.27l-.79.78a45.95,45.95,0,0,0,58.25,70.49l33.22,34.55a2.24,2.24,0,0,0,3.16.07l8.28-8a2.24,2.24,0,0,0,.06-3.17l-33.22-34.55A46,46,0,0,0,489.45,453.73ZM479.1,509.26a32.87,32.87,0,1,1,.92-46.47,32.87,32.87,0,0,1-.92,46.47Z" transform="translate(-31.1 -34.4)"/><path class="cls-20" d="M432,476.45c-3.7,0-3.7,5.74,0,5.74S435.68,476.45,432,476.45Z" transform="translate(-31.1 -34.4)"/><path class="cls-20" d="M457.75,458a27.61,27.61,0,0,0-23.82,12.31c-1.57,2.45,2.89,4.63,4.45,2.18,4-6.24,11.56-10.2,19.75-10a25.12,25.12,0,0,1,20.53,11.94c1.57,2.58,5.68.23,4.13-2.34A30.55,30.55,0,0,0,457.75,458Z" transform="translate(-31.1 -34.4)"/><g id="Layer_3" data-name="Layer 3"><ellipse class="cls-27" cx="663.83" cy="544.94" rx="26.66" ry="2.67"/><ellipse class="cls-27" cx="583.06" cy="543.71" rx="20.24" ry="1.25"/><path class="cls-28" d="M712.14,482.06V433h6.64V418.77H671.34V433H678v49.06a48.65,48.65,0,0,0-31.06,45.49c0,26.86,21.55,48.64,48.15,48.64s48.14-21.78,48.14-48.64A48.66,48.66,0,0,0,712.14,482.06Z" transform="translate(-31.1 -34.4)"/><rect class="cls-29" x="646.88" y="398.6" width="34.16" height="0.95"/><path class="cls-20" d="M667.82,526.86s29.29-.51,43.94-7.84,23-.79,22.23,3.66-5,13.07-21.7,14.13S667.82,526.86,667.82,526.86Z" transform="translate(-31.1 -34.4)"/><path class="cls-29" d="M667.82,526.86s29.29-.51,43.94-7.84,23-.79,22.23,3.66-5,13.07-21.7,14.13S667.82,526.86,667.82,526.86Z" transform="translate(-31.1 -34.4)"/><path class="cls-20" d="M655.28,522.16s-3.13,43.41,37.92,44.2S734,522.67,734,522.67s-15.16,16.48-51,2.88C683,525.56,664.43,520.59,655.28,522.16Z" transform="translate(-31.1 -34.4)"/><path class="cls-29" d="M733.86,522.83c-.82,10-6.14,41.31-40.65,40.65-33.83-.64-37.66-30.22-38-40.62-.19,5.58,0,42.77,38,43.49,41.06.78,40.8-43.68,40.8-43.68A1.42,1.42,0,0,1,733.86,522.83Z" transform="translate(-31.1 -34.4)"/><circle class="cls-30" cx="662.35" cy="469.03" r="5.33"/><circle class="cls-30" cx="665.39" cy="447.72" r="3.3"/><circle class="cls-30" cx="658.03" cy="428.69" r="3.3"/><path class="cls-31" d="M660.88,507.54c-.28,2.24-.22,5.05,1.78,6.1-1.68-.88,5.22-10.84,4.24-12.88C664.81,496.42,661.14,505.45,660.88,507.54Z" transform="translate(-31.1 -34.4)"/><circle class="cls-30" cx="655.37" cy="369.46" r="5.33"/><circle class="cls-30" cx="671.35" cy="360.32" r="3.96"/><circle class="cls-30" cx="659.93" cy="349.67" r="2.06"/><path class="cls-28" d="M636.23,450.08h-42.7v12.34h5.7V562a15.18,15.18,0,0,0,30.36.39v-100h6.64Z" transform="translate(-31.1 -34.4)"/><path class="cls-20" d="M609.44,485s10.66-3.81,13.62-1.1c0,0-4.31,6.34-8.29,6.09S609.44,485,609.44,485Z" transform="translate(-31.1 -34.4)"/><path class="cls-29" d="M609.44,485s10.66-3.81,13.62-1.1c0,0-4.31,6.34-8.29,6.09S609.44,485,609.44,485Z" transform="translate(-31.1 -34.4)"/><path class="cls-20" d="M623,484.41v71.36a9,9,0,0,1-9,9h0a9,9,0,0,1-9-9V484.41a11.71,11.71,0,0,1,8.43,1.33C617.44,488.25,623,484.41,623,484.41Z" transform="translate(-31.1 -34.4)"/><rect class="cls-29" x="568.13" y="428.01" width="30.36" height="0.95"/><path class="cls-29" d="M613.93,561.1h0a9.08,9.08,0,0,1-9-9.14h0v4.57a9.08,9.08,0,0,0,9,9.13h0a9.08,9.08,0,0,0,9-9.13V552a9.08,9.08,0,0,1-9,9.14Z" transform="translate(-31.1 -34.4)"/><circle class="cls-30" cx="582.83" cy="440.53" r="1.86"/><circle class="cls-30" cx="588.92" cy="433.93" r="1.18"/><circle class="cls-30" cx="580.63" cy="431.56" r="1.18"/><path class="cls-31" d="M601.78,498.66c-.28,2.24-.22,5.06,1.78,6.1-1.68-.88,5.22-10.84,4.24-12.88C605.7,487.55,602,496.57,601.78,498.66Z" transform="translate(-31.1 -34.4)"/><circle class="cls-30" cx="586.69" cy="402.73" r="4.52"/><circle class="cls-30" cx="573.13" cy="394.98" r="3.36"/><circle class="cls-30" cx="582.81" cy="385.94" r="1.75"/></g><polygon class="cls-32" points="137.33 547.47 6.77 547.47 6.77 396.15 26.5 374.32 137.33 374.32 137.33 547.47"/><polygon class="cls-33" points="134.55 542.84 8.62 542.84 8.62 397.19 27.65 376.17 134.55 376.17 134.55 542.84"/><rect class="cls-5" x="21.59" y="394.69" width="61.11" height="10.19"/><rect class="cls-5" x="21.59" y="422.47" width="45.37" height="10.19"/><rect class="cls-20" x="21.59" y="465.06" width="100.93" height="37.96"/><rect class="cls-8" x="99.36" y="394.69" width="23.15" height="10.19"/><rect class="cls-8" x="99.36" y="410.43" width="23.15" height="10.19"/><polygon class="cls-34" points="29.92 376.17 29.92 399.32 8.62 399.32 8.62 397.3 27.88 376.17 29.92 376.17"/><polygon class="cls-35" points="9.04 397.47 28.07 376.47 28.07 397.47 9.04 397.47"/><polygon class="cls-36" points="177.14 533.58 46.59 533.58 46.59 382.26 66.31 360.43 177.14 360.43 177.14 533.58"/><polygon class="cls-33" points="175.29 528.95 49.36 528.95 49.36 383.3 68.39 362.28 175.29 362.28 175.29 528.95"/><rect class="cls-5" x="61.4" y="379.87" width="61.11" height="10.19"/><rect class="cls-5" x="61.4" y="408.58" width="45.37" height="10.19"/><rect class="cls-20" x="61.4" y="451.17" width="100.93" height="37.96"/><rect class="cls-8" x="139.18" y="379.87" width="23.15" height="10.19"/><rect class="cls-8" x="139.18" y="396.54" width="23.15" height="10.19"/><polygon class="cls-37" points="69.73 362.28 69.73 385.43 48.44 385.43 48.44 383.41 67.69 362.28 69.73 362.28"/><polygon class="cls-35" points="48.85 382.65 67.88 361.66 67.88 382.65 48.85 382.65"/><polygon class="cls-38" points="216.03 520.62 85.47 520.62 85.47 369.3 105.2 347.47 216.03 347.47 216.03 520.62"/><polygon class="cls-10" points="214.18 515.99 88.25 515.99 88.25 370.33 107.28 349.32 214.18 349.32 214.18 515.99"/><rect class="cls-5" x="100.29" y="367.84" width="61.11" height="10.19"/><rect class="cls-5" x="100.29" y="395.62" width="45.37" height="10.19"/><rect class="cls-20" x="100.29" y="438.21" width="100.93" height="37.96"/><rect class="cls-5" x="178.07" y="367.84" width="23.15" height="10.19"/><rect class="cls-5" x="178.07" y="383.58" width="23.15" height="10.19"/><rect class="cls-5" x="178.07" y="399.32" width="23.15" height="10.19"/><polygon class="cls-39" points="109.55 349.32 109.55 372.47 88.25 372.47 88.25 370.44 107.51 349.32 109.55 349.32"/><polygon class="cls-35" points="87.74 370.62 106.77 349.62 106.77 370.62 87.74 370.62"/><path d="M99.11,361.14a30.18,30.18,0,0,1,4.44-.33c3,0,5.14.69,6.55,2a7.45,7.45,0,0,1,2.28,5.81,8.53,8.53,0,0,1-2.33,6.29c-1.51,1.51-4,2.33-7.15,2.33a36.15,36.15,0,0,1-3.79-.19Zm2.09,14.31a13.8,13.8,0,0,0,2.11.12c4.46,0,6.89-2.5,6.89-6.87,0-3.81-2.14-6.24-6.56-6.24a11.71,11.71,0,0,0-2.44.22Z" transform="translate(-31.1 -34.4)"/><path d="M125.63,371.2c0,4.3-3,6.17-5.79,6.17-3.14,0-5.56-2.31-5.56-6,0-3.89,2.54-6.17,5.76-6.17S125.63,367.65,125.63,371.2Zm-9.22.12c0,2.54,1.47,4.46,3.53,4.46s3.53-1.89,3.53-4.51c0-2-1-4.46-3.48-4.46S116.41,369.11,116.41,371.32Z" transform="translate(-31.1 -34.4)"/><path d="M129,365.49l1.54,5.9c.34,1.3.65,2.5.86,3.7h.08c.26-1.18.64-2.43,1-3.68l1.89-5.92h1.78l1.8,5.8c.43,1.4.77,2.62,1,3.8h.08a35.18,35.18,0,0,1,.88-3.77l1.66-5.83h2.09l-3.75,11.61H138l-1.77-5.54a39,39,0,0,1-1-3.82h0a34.61,34.61,0,0,1-1.06,3.84l-1.87,5.52h-1.92l-3.51-11.61Z" transform="translate(-31.1 -34.4)"/><path d="M145.79,368.63c0-1.2,0-2.18-.1-3.14h1.87l.12,1.92h0a4.27,4.27,0,0,1,3.84-2.19c1.61,0,4.11,1,4.11,4.95v6.93h-2.12v-6.69c0-1.88-.69-3.44-2.68-3.44a3,3,0,0,0-2.84,2.16,3.28,3.28,0,0,0-.14,1v7h-2.11Z" transform="translate(-31.1 -34.4)"/><path d="M159.11,360.06h2.11v17h-2.11Z" transform="translate(-31.1 -34.4)"/><path d="M175.28,371.2c0,4.3-3,6.17-5.78,6.17-3.14,0-5.57-2.31-5.57-6,0-3.89,2.55-6.17,5.76-6.17S175.28,367.65,175.28,371.2Zm-9.21.12c0,2.54,1.46,4.46,3.53,4.46s3.52-1.89,3.52-4.51c0-2-1-4.46-3.48-4.46S166.07,369.11,166.07,371.32Z" transform="translate(-31.1 -34.4)"/><path d="M184.38,377.1l-.17-1.46h-.07a4.34,4.34,0,0,1-3.55,1.73A3.31,3.31,0,0,1,177,374c0-2.81,2.49-4.34,7-4.32v-.24a2.39,2.39,0,0,0-2.64-2.69,5.74,5.74,0,0,0-3,.87l-.48-1.4a7.23,7.23,0,0,1,3.81-1c3.55,0,4.42,2.43,4.42,4.75v4.35a16.71,16.71,0,0,0,.19,2.78Zm-.31-5.93c-2.31,0-4.92.36-4.92,2.62a1.87,1.87,0,0,0,2,2,2.9,2.9,0,0,0,2.81-1.95,2.2,2.2,0,0,0,.12-.67Z" transform="translate(-31.1 -34.4)"/><path d="M199.55,360.06v14c0,1,0,2.21.09,3h-1.89l-.1-2h-.05a4.29,4.29,0,0,1-4,2.28c-2.8,0-5-2.38-5-5.91,0-3.86,2.37-6.24,5.2-6.24a3.89,3.89,0,0,1,3.51,1.78h.05v-6.94Zm-2.11,10.15a3.77,3.77,0,0,0-.1-.88,3.1,3.1,0,0,0-3.05-2.45c-2.18,0-3.48,1.92-3.48,4.49,0,2.35,1.15,4.29,3.43,4.29a3.17,3.17,0,0,0,3.1-2.52,3.73,3.73,0,0,0,.1-.91Z" transform="translate(-31.1 -34.4)"/><path d="M372.16,374.56a7.45,7.45,0,0,0,3.74,1.05c2.14,0,3.39-1.12,3.39-2.76s-.86-2.37-3.05-3.21c-2.64-.94-4.27-2.31-4.27-4.59,0-2.52,2.09-4.39,5.23-4.39a7.45,7.45,0,0,1,3.58.79l-.58,1.71a6.43,6.43,0,0,0-3.07-.77c-2.21,0-3.05,1.32-3.05,2.42,0,1.52,1,2.26,3.22,3.12,2.73,1.06,4.13,2.38,4.13,4.76s-1.85,4.65-5.67,4.65a8.34,8.34,0,0,1-4.13-1Z" transform="translate(-31.1 -34.4)"/><path d="M385.53,371.68a3.72,3.72,0,0,0,4,4,7.56,7.56,0,0,0,3.22-.6l.36,1.51a9.33,9.33,0,0,1-3.86.72c-3.58,0-5.72-2.35-5.72-5.85s2.07-6.27,5.45-6.27c3.79,0,4.8,3.34,4.8,5.47a9,9,0,0,1-.07,1Zm6.19-1.51c0-1.35-.55-3.44-2.93-3.44-2.13,0-3.07,2-3.24,3.44Z" transform="translate(-31.1 -34.4)"/><path d="M402.81,377.1l-.17-1.46h-.07a4.34,4.34,0,0,1-3.55,1.73,3.31,3.31,0,0,1-3.56-3.34c0-2.81,2.5-4.34,7-4.32v-.24a2.4,2.4,0,0,0-2.64-2.69,5.81,5.81,0,0,0-3,.87l-.48-1.4a7.27,7.27,0,0,1,3.82-1c3.55,0,4.42,2.43,4.42,4.75v4.35a15.7,15.7,0,0,0,.19,2.78Zm-.31-5.93c-2.31,0-4.92.36-4.92,2.62a1.87,1.87,0,0,0,2,2,2.9,2.9,0,0,0,2.81-1.95,2.2,2.2,0,0,0,.12-.67Z" transform="translate(-31.1 -34.4)"/><path d="M407.94,369.11c0-1.37,0-2.54-.09-3.62h1.85l.07,2.28h.09a3.49,3.49,0,0,1,3.22-2.55,2.67,2.67,0,0,1,.6.07v2a3,3,0,0,0-.72-.08,3,3,0,0,0-2.83,2.72,5.58,5.58,0,0,0-.1,1v6.19h-2.09Z" transform="translate(-31.1 -34.4)"/><path d="M423.83,376.67a7.72,7.72,0,0,1-3.33.67c-3.51,0-5.79-2.37-5.79-5.93a5.9,5.9,0,0,1,6.24-6.16,7,7,0,0,1,2.93.6l-.48,1.63a4.88,4.88,0,0,0-2.45-.55c-2.66,0-4.1,2-4.1,4.39,0,2.69,1.73,4.34,4,4.34a6.06,6.06,0,0,0,2.59-.57Z" transform="translate(-31.1 -34.4)"/><path d="M426.3,360.06h2.12v7.25h0a4,4,0,0,1,1.52-1.49,4.31,4.31,0,0,1,2.16-.6c1.56,0,4.05,1,4.05,5v6.91h-2.11v-6.67c0-1.87-.7-3.46-2.69-3.46a3,3,0,0,0-2.83,2.12,2.52,2.52,0,0,0-.14,1v7H426.3Z" transform="translate(-31.1 -34.4)"/><path d="M626.39,372l-1.68,5.09h-2.16l5.5-16.17h2.52l5.52,16.17h-2.24L632.13,372Zm5.3-1.63-1.58-4.65c-.36-1.06-.6-2-.84-3h0c-.24,1-.5,2-.81,2.93l-1.59,4.68Z" transform="translate(-31.1 -34.4)"/><path d="M638.32,368.63c0-1.2,0-2.18-.1-3.14h1.87l.12,1.92h0a4.27,4.27,0,0,1,3.84-2.19c1.61,0,4.11,1,4.11,4.95v6.93h-2.12v-6.69c0-1.88-.69-3.44-2.68-3.44a3,3,0,0,0-2.84,2.16,3.28,3.28,0,0,0-.14,1v7h-2.11Z" transform="translate(-31.1 -34.4)"/><path d="M658.07,377.1l-.17-1.46h-.07a4.34,4.34,0,0,1-3.55,1.73,3.31,3.31,0,0,1-3.56-3.34c0-2.81,2.5-4.34,7-4.32v-.24a2.39,2.39,0,0,0-2.64-2.69,5.81,5.81,0,0,0-3,.87l-.48-1.4a7.27,7.27,0,0,1,3.82-1c3.55,0,4.42,2.43,4.42,4.75v4.35a16.71,16.71,0,0,0,.19,2.78Zm-.31-5.93c-2.31,0-4.92.36-4.92,2.62a1.87,1.87,0,0,0,2,2,2.9,2.9,0,0,0,2.81-1.95,2.2,2.2,0,0,0,.12-.67Z" transform="translate(-31.1 -34.4)"/><path d="M663.2,360.06h2.12v17H663.2Z" transform="translate(-31.1 -34.4)"/><path d="M669.64,365.49l2.54,6.86c.27.77.55,1.68.75,2.38h0c.22-.7.46-1.59.75-2.43l2.3-6.81h2.23l-3.16,8.28c-1.52,4-2.55,6-4,7.27a5.77,5.77,0,0,1-2.59,1.37l-.53-1.78a5.53,5.53,0,0,0,1.85-1,6.49,6.49,0,0,0,1.77-2.35,1.49,1.49,0,0,0,.17-.51,1.71,1.71,0,0,0-.14-.55l-4.3-10.7Z" transform="translate(-31.1 -34.4)"/><path d="M679.74,374.94a5.51,5.51,0,0,0,2.78.84c1.54,0,2.26-.77,2.26-1.73s-.6-1.56-2.16-2.13c-2.09-.75-3.07-1.9-3.07-3.29,0-1.87,1.51-3.41,4-3.41a5.81,5.81,0,0,1,2.85.72l-.52,1.54a4.53,4.53,0,0,0-2.38-.67c-1.25,0-2,.72-2,1.58s.7,1.39,2.21,2c2,.77,3.05,1.77,3.05,3.5,0,2-1.58,3.48-4.34,3.48a6.64,6.64,0,0,1-3.27-.79Z" transform="translate(-31.1 -34.4)"/><path d="M691.88,362.22a1.24,1.24,0,0,1-1.34,1.3,1.26,1.26,0,0,1-1.27-1.3,1.29,1.29,0,0,1,1.32-1.32A1.25,1.25,0,0,1,691.88,362.22Zm-2.35,14.88V365.49h2.11V377.1Z" transform="translate(-31.1 -34.4)"/><path d="M694.86,374.94a5.51,5.51,0,0,0,2.78.84c1.54,0,2.26-.77,2.26-1.73s-.6-1.56-2.16-2.13c-2.09-.75-3.07-1.9-3.07-3.29,0-1.87,1.51-3.41,4-3.41a5.84,5.84,0,0,1,2.85.72l-.53,1.54a4.46,4.46,0,0,0-2.37-.67c-1.25,0-2,.72-2,1.58s.7,1.39,2.21,2c2,.77,3.05,1.77,3.05,3.5,0,2-1.58,3.48-4.34,3.48a6.64,6.64,0,0,1-3.27-.79Z" transform="translate(-31.1 -34.4)"/></g><g id="Layer_1" data-name="Layer 1"><g class="cls-2"><circle class="cls-40" cx="36.52" cy="79.38" r="14.44"/></g><circle class="cls-41" cx="36.52" cy="79.38" r="13.59"/><rect class="cls-5" x="69.83" y="74.08" width="37" height="3"/><rect class="cls-5" x="69.83" y="78.08" width="60" height="3"/><rect class="cls-5" x="69.83" y="82.08" width="56" height="3"/><polygon class="cls-10" points="31.42 78.53 36.52 83.2 43.74 72.58 46.28 74.71 36.52 87.44 29.3 79.38 31.42 78.53"/><g class="cls-2"><circle class="cls-42" cx="36.52" cy="114.47" r="14.44"/></g><circle class="cls-5" cx="36.52" cy="114.47" r="13.59"/><rect class="cls-5" x="69.83" y="109.58" width="37" height="3"/><rect class="cls-5" x="69.83" y="112.58" width="60" height="3"/><rect class="cls-5" x="69.83" y="116.58" width="56" height="3"/><polygon class="cls-10" points="31.42 113.2 36.52 117.87 43.74 107.25 46.28 109.38 36.52 122.11 29.3 114.05 31.42 113.2"/><g class="cls-2"><circle class="cls-43" cx="36.52" cy="149.56" r="14.44"/></g><circle class="cls-5" cx="36.52" cy="149.56" r="13.59"/><rect class="cls-5" x="69.83" y="144.08" width="37" height="3"/><rect class="cls-5" x="69.83" y="148.08" width="60" height="3"/><rect class="cls-5" x="69.83" y="152.08" width="56" height="3"/><polygon class="cls-10" points="31.42 147.87 36.52 152.54 43.74 141.92 46.28 144.04 36.52 156.78 29.3 148.72 31.42 147.87"/><path d="M31.1,43.44a23.9,23.9,0,0,1,4-.32,6.6,6.6,0,0,1,4.53,1.35,4.34,4.34,0,0,1,1.42,3.38,4.75,4.75,0,0,1-1.25,3.46,6.71,6.71,0,0,1-4.94,1.77,7.17,7.17,0,0,1-1.68-.14v6.48H31.1Zm2.09,7.8a7,7,0,0,0,1.73.16c2.52,0,4-1.22,4-3.45s-1.51-3.17-3.82-3.17a8.43,8.43,0,0,0-2,.17Z" transform="translate(-31.1 -34.4)"/><path d="M43.41,51.43c0-1.37,0-2.55-.1-3.63h1.85l.07,2.28h.1a3.48,3.48,0,0,1,3.22-2.54,2.2,2.2,0,0,1,.6.07v2a3.74,3.74,0,0,0-.72-.07,3,3,0,0,0-2.83,2.71,5.81,5.81,0,0,0-.1,1v6.19H43.41Z" transform="translate(-31.1 -34.4)"/><path d="M52.19,54a3.73,3.73,0,0,0,4,4,7.79,7.79,0,0,0,3.22-.6l.36,1.51a9.39,9.39,0,0,1-3.87.72c-3.58,0-5.71-2.35-5.71-5.86s2.06-6.26,5.45-6.26c3.79,0,4.8,3.34,4.8,5.47a9.22,9.22,0,0,1-.07,1Zm6.2-1.52c0-1.34-.55-3.43-2.93-3.43-2.14,0-3.07,2-3.24,3.43Z" transform="translate(-31.1 -34.4)"/><path d="M63,51.6c0-1.49,0-2.69-.09-3.8h1.89l.1,2h0a4.56,4.56,0,0,1,4.13-2.26c2.8,0,4.92,2.38,4.92,5.9,0,4.18-2.55,6.24-5.28,6.24a4.08,4.08,0,0,1-3.58-1.82h-.05v6.31H63Zm2.09,3.09a4.72,4.72,0,0,0,.1.87A3.25,3.25,0,0,0,68.4,58c2.23,0,3.52-1.83,3.52-4.49,0-2.33-1.22-4.32-3.45-4.32a3.38,3.38,0,0,0-3.2,2.62,3.44,3.44,0,0,0-.14.86Z" transform="translate(-31.1 -34.4)"/><path d="M83.13,59.42,83,58h-.07a4.33,4.33,0,0,1-3.55,1.72,3.3,3.3,0,0,1-3.55-3.33c0-2.81,2.49-4.35,7-4.32v-.24a2.39,2.39,0,0,0-2.64-2.69,5.83,5.83,0,0,0-3,.86l-.48-1.39a7.23,7.23,0,0,1,3.81-1c3.55,0,4.42,2.42,4.42,4.75v4.35a16.79,16.79,0,0,0,.19,2.78Zm-.31-5.93c-2.31-.05-4.92.36-4.92,2.62a1.86,1.86,0,0,0,2,2,2.9,2.9,0,0,0,2.81-1.94,2.31,2.31,0,0,0,.12-.67Z" transform="translate(-31.1 -34.4)"/><path d="M88.27,51.43c0-1.37,0-2.55-.1-3.63H90l.07,2.28h.1a3.47,3.47,0,0,1,3.21-2.54,2.2,2.2,0,0,1,.6.07v2a3.65,3.65,0,0,0-.72-.07,3,3,0,0,0-2.83,2.71,5.81,5.81,0,0,0-.1,1v6.19H88.27Z" transform="translate(-31.1 -34.4)"/><path d="M97.05,54a3.72,3.72,0,0,0,4,4,7.72,7.72,0,0,0,3.22-.6l.36,1.51a9.33,9.33,0,0,1-3.86.72c-3.58,0-5.72-2.35-5.72-5.86s2.07-6.26,5.45-6.26c3.79,0,4.8,3.34,4.8,5.47a9.22,9.22,0,0,1-.07,1Zm6.19-1.52c0-1.34-.55-3.43-2.93-3.43-2.13,0-3.07,2-3.24,3.43Z" transform="translate(-31.1 -34.4)"/><path d="M112.77,56.88a7.45,7.45,0,0,0,3.74,1c2.14,0,3.39-1.13,3.39-2.76S119,52.8,116.85,52c-2.64-.94-4.27-2.31-4.27-4.59,0-2.52,2.09-4.39,5.23-4.39a7.34,7.34,0,0,1,3.58.79l-.58,1.71a6.43,6.43,0,0,0-3.07-.77c-2.21,0-3,1.32-3,2.42,0,1.51,1,2.26,3.22,3.12C120.64,51.31,122,52.63,122,55s-1.84,4.66-5.66,4.66a8.45,8.45,0,0,1-4.13-1Z" transform="translate(-31.1 -34.4)"/><path d="M127.29,44.47V47.8h3v1.61h-3v6.27c0,1.44.41,2.25,1.58,2.25a4.87,4.87,0,0,0,1.23-.14l.09,1.58a5.06,5.06,0,0,1-1.87.29,2.93,2.93,0,0,1-2.28-.89,4.28,4.28,0,0,1-.81-3V49.41h-1.8V47.8h1.8V45Z" transform="translate(-31.1 -34.4)"/><path d="M142.41,56.25c0,1.2,0,2.26.1,3.17h-1.88l-.12-1.9h0a4.38,4.38,0,0,1-3.84,2.16c-1.83,0-4-1-4-5.08V47.8h2.11v6.44c0,2.2.67,3.69,2.59,3.69a3,3,0,0,0,3-3V47.8h2.11Z" transform="translate(-31.1 -34.4)"/><path d="M156,42.38v14c0,1,0,2.21.09,3h-1.89l-.1-2H154a4.29,4.29,0,0,1-4,2.28c-2.81,0-5-2.37-5-5.9,0-3.86,2.38-6.24,5.21-6.24a3.89,3.89,0,0,1,3.51,1.78h0V42.38Zm-2.12,10.15a3.9,3.9,0,0,0-.09-.89,3.11,3.11,0,0,0-3.05-2.44c-2.18,0-3.48,1.92-3.48,4.48,0,2.36,1.15,4.3,3.43,4.3a3.18,3.18,0,0,0,3.1-2.52,3.8,3.8,0,0,0,.09-.91Z" transform="translate(-31.1 -34.4)"/><path d="M161.8,44.54a1.31,1.31,0,0,1-2.61,0,1.28,1.28,0,0,1,1.32-1.32A1.25,1.25,0,0,1,161.8,44.54Zm-2.35,14.88V47.8h2.11V59.42Z" transform="translate(-31.1 -34.4)"/><path d="M166.24,54a3.72,3.72,0,0,0,4,4,7.7,7.7,0,0,0,3.21-.6l.36,1.51a9.3,9.3,0,0,1-3.86.72c-3.58,0-5.71-2.35-5.71-5.86s2.06-6.26,5.44-6.26c3.8,0,4.8,3.34,4.8,5.47a7.17,7.17,0,0,1-.07,1Zm6.19-1.52c0-1.34-.55-3.43-2.92-3.43-2.14,0-3.08,2-3.24,3.43Z" transform="translate(-31.1 -34.4)"/><path d="M176.8,57.26a5.55,5.55,0,0,0,2.79.84c1.53,0,2.25-.77,2.25-1.73s-.6-1.56-2.16-2.13c-2.09-.75-3.07-1.9-3.07-3.29,0-1.87,1.51-3.41,4-3.41a5.81,5.81,0,0,1,2.85.72L183,49.8a4.52,4.52,0,0,0-2.38-.68c-1.25,0-1.95.72-1.95,1.59s.7,1.39,2.21,2c2,.76,3,1.77,3,3.5,0,2-1.58,3.48-4.34,3.48a6.67,6.67,0,0,1-3.27-.79Z" transform="translate(-31.1 -34.4)"/><path d="M54.71,88.22v-10H53.08V76.6h1.63v-.55A5.47,5.47,0,0,1,56.06,72a4.08,4.08,0,0,1,2.83-1.08,4.83,4.83,0,0,1,1.8.34l-.29,1.63a3.2,3.2,0,0,0-1.34-.26c-1.8,0-2.26,1.58-2.26,3.36v.62h2.81v1.61H56.8v10Z" transform="translate(-31.1 -34.4)"/><path d="M71.71,82.32c0,4.29-3,6.16-5.79,6.16-3.14,0-5.57-2.3-5.57-6,0-3.89,2.55-6.17,5.77-6.17S71.71,78.76,71.71,82.32Zm-9.22.12C62.49,85,64,86.9,66,86.9s3.53-1.9,3.53-4.51c0-2-1-4.47-3.48-4.47S62.49,80.23,62.49,82.44Z" transform="translate(-31.1 -34.4)"/><path d="M74.37,80.23c0-1.37,0-2.55-.1-3.63h1.85l.07,2.28h.1a3.48,3.48,0,0,1,3.22-2.54,2.2,2.2,0,0,1,.6.07v2a3.74,3.74,0,0,0-.72-.07A3,3,0,0,0,76.56,81a5.81,5.81,0,0,0-.1,1v6.19H74.37Z" transform="translate(-31.1 -34.4)"/><path d="M87.38,72.26a21.35,21.35,0,0,1,4-.34c2.23,0,3.67.41,4.68,1.32a4.06,4.06,0,0,1,1.27,3.07,4.24,4.24,0,0,1-3,4.13v.08c1.25.43,2,1.58,2.38,3.26a25.27,25.27,0,0,0,1.25,4.44H95.75a21.85,21.85,0,0,1-1.08-3.86c-.48-2.24-1.34-3.08-3.24-3.15h-2v7H87.38Zm2.09,7.37H91.6c2.23,0,3.65-1.23,3.65-3.07,0-2.09-1.51-3-3.72-3a8.86,8.86,0,0,0-2.06.19Z" transform="translate(-31.1 -34.4)"/><path d="M101.49,82.8a3.72,3.72,0,0,0,4,4,7.72,7.72,0,0,0,3.22-.6l.36,1.51a9.33,9.33,0,0,1-3.86.72c-3.58,0-5.72-2.35-5.72-5.86s2.07-6.26,5.45-6.26c3.79,0,4.8,3.34,4.8,5.47a9.22,9.22,0,0,1-.07,1Zm6.19-1.52c0-1.34-.55-3.43-2.93-3.43-2.13,0-3.07,2-3.24,3.43Z" transform="translate(-31.1 -34.4)"/><path d="M112.34,71.18h2.11v17h-2.11Z" transform="translate(-31.1 -34.4)"/><path d="M119.18,82.8a3.72,3.72,0,0,0,4,4,7.75,7.75,0,0,0,3.22-.6l.36,1.51a9.39,9.39,0,0,1-3.87.72c-3.57,0-5.71-2.35-5.71-5.86s2.07-6.26,5.45-6.26c3.79,0,4.8,3.34,4.8,5.47a9.22,9.22,0,0,1-.07,1Zm6.19-1.52c0-1.34-.55-3.43-2.93-3.43-2.13,0-3.07,2-3.24,3.43Z" transform="translate(-31.1 -34.4)"/><path d="M136.46,88.22l-.17-1.46h-.07a4.33,4.33,0,0,1-3.55,1.72,3.31,3.31,0,0,1-3.56-3.33c0-2.81,2.5-4.35,7-4.32v-.24a2.4,2.4,0,0,0-2.64-2.69,5.89,5.89,0,0,0-3,.86L130,77.37a7.27,7.27,0,0,1,3.82-1c3.55,0,4.42,2.42,4.42,4.75v4.35a15.77,15.77,0,0,0,.19,2.78Zm-.31-5.93c-2.31-.05-4.92.36-4.92,2.62a1.86,1.86,0,0,0,2,2A2.9,2.9,0,0,0,136,85a2.31,2.31,0,0,0,.12-.67Z" transform="translate(-31.1 -34.4)"/><path d="M141.31,86.06a5.47,5.47,0,0,0,2.78.84c1.54,0,2.26-.77,2.26-1.73s-.6-1.56-2.16-2.13c-2.09-.75-3.08-1.9-3.08-3.29,0-1.87,1.52-3.41,4-3.41a5.85,5.85,0,0,1,2.86.72l-.53,1.54a4.52,4.52,0,0,0-2.38-.68c-1.24,0-1.94.72-1.94,1.59s.7,1.39,2.21,2c2,.76,3,1.77,3,3.5,0,2-1.59,3.48-4.35,3.48a6.6,6.6,0,0,1-3.26-.79Z" transform="translate(-31.1 -34.4)"/><path d="M152.27,82.8a3.73,3.73,0,0,0,4,4,7.7,7.7,0,0,0,3.21-.6l.36,1.51a9.3,9.3,0,0,1-3.86.72c-3.58,0-5.71-2.35-5.71-5.86s2.06-6.26,5.45-6.26c3.79,0,4.8,3.34,4.8,5.47a6.86,6.86,0,0,1-.08,1Zm6.2-1.52c0-1.34-.56-3.43-2.93-3.43-2.14,0-3.07,2-3.24,3.43Z" transform="translate(-31.1 -34.4)"/></g><g id="Layer_4" data-name="Layer 4"><rect class="cls-20" x="286.9" y="77.67" width="42.24" height="34.19"/><rect class="cls-4" x="286.9" y="122.6" width="117.33" height="3.35"/><rect class="cls-44" x="283.88" y="76" width="42.24" height="34.19"/><rect class="cls-4" x="345.9" y="87.73" width="40.9" height="3.35"/><rect class="cls-4" x="345.9" y="97.12" width="58.33" height="3.35"/><rect class="cls-44" x="342.88" y="85.38" width="40.9" height="3.35"/><rect class="cls-44" x="342.88" y="95.44" width="58.33" height="3.35"/><rect class="cls-44" x="283.88" y="120.92" width="117.33" height="3.35"/><rect class="cls-4" x="286.9" y="133.99" width="117.33" height="3.35"/><rect class="cls-44" x="283.88" y="132.32" width="117.33" height="3.35"/><rect class="cls-4" x="286.9" y="145.39" width="117.33" height="3.35"/><rect class="cls-44" x="283.88" y="143.71" width="117.33" height="3.35"/><rect class="cls-4" x="286.9" y="156.79" width="117.33" height="3.35"/><rect class="cls-44" x="283.88" y="155.11" width="117.33" height="3.35"/><rect class="cls-4" x="286.9" y="168.19" width="117.33" height="3.35"/><rect class="cls-44" x="283.88" y="166.51" width="117.33" height="3.35"/><rect class="cls-4" x="286.9" y="179.58" width="117.33" height="3.35"/><rect class="cls-44" x="283.88" y="177.91" width="117.33" height="3.35"/><rect class="cls-44" x="277.18" y="55.88" width="133.42" height="147.5"/><path d="M264.08,35.48a22.39,22.39,0,0,1,4-.33c2.23,0,3.67.4,4.68,1.32A4,4,0,0,1,274,39.54,4.25,4.25,0,0,1,271,43.67v.07c1.25.43,2,1.58,2.38,3.26a25.27,25.27,0,0,0,1.25,4.44h-2.16a19.68,19.68,0,0,1-1.08-3.86c-.48-2.23-1.35-3.07-3.24-3.15h-2v7h-2.09Zm2.09,7.37h2.14c2.23,0,3.64-1.22,3.64-3.07,0-2.09-1.51-3-3.72-3a8.3,8.3,0,0,0-2.06.2Z" transform="translate(-31.1 -34.4)"/><path d="M278.19,46a3.72,3.72,0,0,0,4,4,7.54,7.54,0,0,0,3.21-.6l.36,1.51a9.3,9.3,0,0,1-3.86.72c-3.58,0-5.71-2.35-5.71-5.85s2.06-6.27,5.44-6.27c3.8,0,4.81,3.34,4.81,5.47a6.73,6.73,0,0,1-.08,1Zm6.2-1.51c0-1.35-.56-3.44-2.93-3.44-2.14,0-3.08,2-3.24,3.44Z" transform="translate(-31.1 -34.4)"/><path d="M289.86,39.83l2.28,6.52c.38,1.06.69,2,.93,3h.08c.26-1,.6-1.92,1-3l2.26-6.52h2.2L294,51.44h-2L287.6,39.83Z" transform="translate(-31.1 -34.4)"/><path d="M302.94,36.56a1.31,1.31,0,0,1-2.62,0,1.29,1.29,0,0,1,1.32-1.32A1.26,1.26,0,0,1,302.94,36.56Zm-2.36,14.88V39.83h2.12V51.44Z" transform="translate(-31.1 -34.4)"/><path d="M307.38,46a3.71,3.71,0,0,0,4,4,7.63,7.63,0,0,0,3.22-.6l.36,1.51a9.39,9.39,0,0,1-3.87.72c-3.57,0-5.71-2.35-5.71-5.85s2.06-6.27,5.45-6.27c3.79,0,4.8,3.34,4.8,5.47a9,9,0,0,1-.07,1Zm6.19-1.51c0-1.35-.55-3.44-2.93-3.44-2.14,0-3.07,2-3.24,3.44Z" transform="translate(-31.1 -34.4)"/><path d="M319.06,39.83l1.54,5.9c.34,1.3.65,2.5.86,3.7h.08c.26-1.18.64-2.43,1-3.68l1.89-5.92h1.78l1.8,5.8c.43,1.4.77,2.62,1,3.8h.08a35.18,35.18,0,0,1,.88-3.77l1.66-5.83h2.09L330,51.44h-1.92l-1.77-5.54a39,39,0,0,1-1-3.82h0a34.61,34.61,0,0,1-1.06,3.84l-1.87,5.52h-1.92L316.9,39.83Z" transform="translate(-31.1 -34.4)"/><path d="M347.41,51.44,347.24,50h-.07a4.34,4.34,0,0,1-3.55,1.73,3.31,3.31,0,0,1-3.56-3.34c0-2.81,2.5-4.34,7-4.32v-.24a2.4,2.4,0,0,0-2.64-2.69,5.81,5.81,0,0,0-3,.87l-.48-1.4a7.27,7.27,0,0,1,3.82-1c3.55,0,4.42,2.43,4.42,4.75v4.35a15.7,15.7,0,0,0,.19,2.78Zm-.31-5.93c-2.31,0-4.92.37-4.92,2.62a1.87,1.87,0,0,0,2,2A2.9,2.9,0,0,0,347,48.2a2.2,2.2,0,0,0,.12-.67Z" transform="translate(-31.1 -34.4)"/><path d="M352.54,43c0-1.2,0-2.18-.09-3.14h1.87l.12,1.92h.05a4.26,4.26,0,0,1,3.84-2.19c1.61,0,4.1,1,4.1,4.95v6.93h-2.11V44.75c0-1.88-.7-3.44-2.69-3.44a3.08,3.08,0,0,0-3,3.15v7h-2.12Z" transform="translate(-31.1 -34.4)"/><path d="M375.9,34.4v14c0,1,0,2.21.09,3H374.1l-.1-2H374a4.31,4.31,0,0,1-4,2.28c-2.81,0-5-2.38-5-5.91,0-3.86,2.38-6.24,5.21-6.24a3.89,3.89,0,0,1,3.51,1.78h0V34.4Zm-2.12,10.15a3.76,3.76,0,0,0-.09-.88,3.11,3.11,0,0,0-3.05-2.45c-2.18,0-3.48,1.92-3.48,4.49,0,2.35,1.15,4.29,3.43,4.29a3.17,3.17,0,0,0,3.1-2.52,3.75,3.75,0,0,0,.09-.91Z" transform="translate(-31.1 -34.4)"/><path d="M384.56,35.48a30.18,30.18,0,0,1,4.44-.33c3,0,5.14.69,6.55,2A7.45,7.45,0,0,1,397.83,43a8.53,8.53,0,0,1-2.33,6.29c-1.51,1.51-4,2.33-7.15,2.33a33.74,33.74,0,0,1-3.79-.19Zm2.09,14.31a13.88,13.88,0,0,0,2.11.12c4.46,0,6.89-2.5,6.89-6.87,0-3.81-2.14-6.24-6.55-6.24a11.82,11.82,0,0,0-2.45.22Z" transform="translate(-31.1 -34.4)"/><path d="M411.08,45.54c0,4.3-3,6.17-5.79,6.17-3.14,0-5.56-2.31-5.56-6,0-3.89,2.54-6.17,5.76-6.17S411.08,42,411.08,45.54Zm-9.22.12c0,2.54,1.47,4.46,3.53,4.46s3.53-1.89,3.53-4.51c0-2-1-4.46-3.48-4.46S401.86,43.45,401.86,45.66Z" transform="translate(-31.1 -34.4)"/><path d="M422,51a7.72,7.72,0,0,1-3.33.67c-3.51,0-5.79-2.37-5.79-5.93a5.9,5.9,0,0,1,6.24-6.16,7,7,0,0,1,2.93.6l-.48,1.63a4.88,4.88,0,0,0-2.45-.55c-2.66,0-4.1,2-4.1,4.39,0,2.69,1.73,4.34,4,4.34a6.06,6.06,0,0,0,2.59-.57Z" transform="translate(-31.1 -34.4)"/><path d="M434.22,48.27c0,1.21,0,2.26.09,3.17h-1.87l-.12-1.89h-.05a4.39,4.39,0,0,1-3.84,2.16c-1.82,0-4-1-4-5.09V39.83h2.11v6.43c0,2.21.68,3.7,2.6,3.7A3.06,3.06,0,0,0,431.91,48,3.14,3.14,0,0,0,432.1,47V39.83h2.12Z" transform="translate(-31.1 -34.4)"/><path d="M437.72,43c0-1.2,0-2.18-.1-3.14h1.85l.1,1.87h.07a4,4,0,0,1,3.65-2.14,3.45,3.45,0,0,1,3.29,2.33h0a4.76,4.76,0,0,1,1.3-1.51,4,4,0,0,1,2.57-.82c1.53,0,3.81,1,3.81,5v6.84h-2.06V44.87c0-2.24-.82-3.58-2.52-3.58a2.74,2.74,0,0,0-2.5,1.92,3.69,3.69,0,0,0-.16,1.06v7.17H445v-7c0-1.85-.82-3.19-2.42-3.19a3.15,3.15,0,0,0-2.79,3.14v7h-2.06Z" transform="translate(-31.1 -34.4)"/><path d="M458.91,46a3.72,3.72,0,0,0,4,4,7.56,7.56,0,0,0,3.22-.6l.36,1.51a9.33,9.33,0,0,1-3.86.72c-3.58,0-5.72-2.35-5.72-5.85s2.07-6.27,5.45-6.27c3.79,0,4.8,3.34,4.8,5.47a9,9,0,0,1-.07,1Zm6.19-1.51c0-1.35-.55-3.44-2.93-3.44-2.13,0-3.07,2-3.24,3.44Z" transform="translate(-31.1 -34.4)"/><path d="M469.76,43c0-1.2,0-2.18-.1-3.14h1.87l.12,1.92h.05a4.27,4.27,0,0,1,3.84-2.19c1.61,0,4.11,1,4.11,4.95v6.93h-2.12V44.75c0-1.88-.69-3.44-2.68-3.44A3,3,0,0,0,472,43.47a3.28,3.28,0,0,0-.14,1v7h-2.11Z" transform="translate(-31.1 -34.4)"/><path d="M485.53,36.49v3.34h3v1.6h-3V47.7c0,1.44.4,2.26,1.58,2.26a4.68,4.68,0,0,0,1.22-.15l.1,1.59a5.4,5.4,0,0,1-1.87.28,2.93,2.93,0,0,1-2.28-.88,4.33,4.33,0,0,1-.82-3V41.43h-1.8v-1.6h1.8V37Z" transform="translate(-31.1 -34.4)"/><path d="M345.31,79.72a10.49,10.49,0,0,1-4.27.76c-4.56,0-8-2.88-8-8.18,0-5.07,3.44-8.5,8.45-8.5a8.62,8.62,0,0,1,3.84.72l-.5,1.71a7.51,7.51,0,0,0-3.27-.68c-3.79,0-6.31,2.43-6.31,6.68,0,4,2.28,6.5,6.22,6.5a8.34,8.34,0,0,0,3.41-.67Z" transform="translate(-31.1 -34.4)"/><path d="M347.85,63.2H350v7.25H350A4,4,0,0,1,351.52,69a4.37,4.37,0,0,1,2.16-.6c1.57,0,4.06,1,4.06,5v6.91h-2.11V73.57c0-1.87-.7-3.46-2.69-3.46a3,3,0,0,0-2.83,2.12,2.51,2.51,0,0,0-.15,1v7h-2.11Z" transform="translate(-31.1 -34.4)"/><path d="M367.6,80.24l-.16-1.46h-.08a4.31,4.31,0,0,1-3.55,1.73,3.31,3.31,0,0,1-3.55-3.34c0-2.81,2.5-4.34,7-4.32v-.24a2.39,2.39,0,0,0-2.64-2.69,5.77,5.77,0,0,0-3,.87l-.48-1.4a7.24,7.24,0,0,1,3.82-1c3.55,0,4.41,2.43,4.41,4.75v4.35a16.71,16.71,0,0,0,.19,2.78Zm-.31-5.93c-2.3,0-4.92.36-4.92,2.62a1.87,1.87,0,0,0,2,2,2.88,2.88,0,0,0,2.81-2,2.2,2.2,0,0,0,.12-.67Z" transform="translate(-31.1 -34.4)"/><path d="M372.74,71.77c0-1.2,0-2.18-.1-3.14h1.88l.12,1.92h0a4.27,4.27,0,0,1,3.84-2.19c1.61,0,4.11,1,4.11,5v6.93h-2.11V73.55c0-1.88-.7-3.44-2.69-3.44a3.12,3.12,0,0,0-3,3.15v7h-2.11Z" transform="translate(-31.1 -34.4)"/><path d="M396.07,68.63c-.05.84-.1,1.77-.1,3.19v6.74c0,2.67-.53,4.3-1.65,5.31a6.19,6.19,0,0,1-4.23,1.39,7.51,7.51,0,0,1-3.86-1l.53-1.61a6.5,6.5,0,0,0,3.4.91c2.16,0,3.75-1.12,3.75-4v-1.3h-.05a4.16,4.16,0,0,1-3.7,2c-2.88,0-4.94-2.45-4.94-5.67,0-3.94,2.57-6.17,5.23-6.17a3.88,3.88,0,0,1,3.63,2h0l.1-1.75Zm-2.19,4.58a2.91,2.91,0,0,0-.12-1A3,3,0,0,0,390.81,70c-2,0-3.45,1.7-3.45,4.39,0,2.28,1.15,4.18,3.43,4.18a3.1,3.1,0,0,0,2.93-2.16,3.68,3.68,0,0,0,.16-1.13Z" transform="translate(-31.1 -34.4)"/><path d="M400.65,74.82a3.72,3.72,0,0,0,4,4,7.54,7.54,0,0,0,3.21-.6l.36,1.51a9.3,9.3,0,0,1-3.86.72c-3.58,0-5.71-2.35-5.71-5.85s2.06-6.27,5.44-6.27c3.8,0,4.8,3.34,4.8,5.47a7,7,0,0,1-.07,1Zm6.19-1.51c0-1.35-.55-3.44-2.92-3.44-2.14,0-3.08,2-3.24,3.44Z" transform="translate(-31.1 -34.4)"/><path d="M411.21,78.08a5.55,5.55,0,0,0,2.79.84c1.53,0,2.25-.77,2.25-1.73s-.6-1.56-2.16-2.13c-2.09-.75-3.07-1.9-3.07-3.29,0-1.87,1.51-3.41,4-3.41a5.81,5.81,0,0,1,2.85.72l-.52,1.54A4.53,4.53,0,0,0,415,70c-1.25,0-1.94.72-1.94,1.58s.69,1.39,2.2,2c2,.77,3.05,1.77,3.05,3.5,0,2-1.58,3.48-4.34,3.48a6.67,6.67,0,0,1-3.27-.79Z" transform="translate(-31.1 -34.4)"/></g><g id="Layer_5" data-name="Layer 5"><path class="cls-45" d="M713.51,109.37,703.3,99.1a5.43,5.43,0,0,0-7.67-.09l0,0-64.15,63.6-27.12-27.33a5.41,5.41,0,0,0-7.65-.06l-10.32,10.22a5.47,5.47,0,0,0-.06,7.7l41.19,41.52a5.5,5.5,0,0,0,7.71.05l78.26-77.68a5.41,5.41,0,0,0,.09-7.67Z" transform="translate(-31.1 -34.4)"/><path d="M672.55,154.12v2.78L659,185.32h-4.37l13.54-27.6v-.1H652.87v-3.5Z" transform="translate(-31.1 -34.4)"/><path d="M677.25,182.83a2.84,2.84,0,0,1,2.88-3,3,3,0,1,1-2.88,3Z" transform="translate(-31.1 -34.4)"/><path d="M705.47,157.67h-11.9l-1.2,8a16.18,16.18,0,0,1,2.54-.19,13.11,13.11,0,0,1,6.72,1.68,8.89,8.89,0,0,1,4.47,8c0,6.1-4.85,10.66-11.62,10.66a15.29,15.29,0,0,1-7.78-1.92l1.06-3.22a14,14,0,0,0,6.67,1.73c4,0,7.4-2.59,7.4-6.77-.05-4-2.74-6.91-9-6.91a31.14,31.14,0,0,0-4.32.34l2-15h14.93Z" transform="translate(-31.1 -34.4)"/><path d="M711.81,182.83a2.84,2.84,0,0,1,2.88-3,3,3,0,1,1-2.88,3Z" transform="translate(-31.1 -34.4)"/><path d="M742.15,169.39c0,10.6-3.94,16.46-10.85,16.46-6.1,0-10.23-5.71-10.32-16,0-10.47,4.51-16.23,10.84-16.23C738.4,153.59,742.15,159.45,742.15,169.39Zm-16.95.48c0,8.11,2.5,12.72,6.34,12.72,4.32,0,6.38-5,6.38-13,0-7.68-2-12.72-6.34-12.72C727.89,156.86,725.2,161.37,725.2,169.87Z" transform="translate(-31.1 -34.4)"/><path d="M650.13,191.32v-2.4h93.74v2.4Z" transform="translate(-31.1 -34.4)"/><path d="M576.43,60a10.47,10.47,0,0,1-4.28.77c-4.56,0-8-2.88-8-8.19,0-5.06,3.43-8.5,8.45-8.5a8.77,8.77,0,0,1,3.84.72l-.5,1.71a7.56,7.56,0,0,0-3.27-.67c-3.79,0-6.31,2.42-6.31,6.67,0,4,2.28,6.5,6.22,6.5a8.38,8.38,0,0,0,3.41-.67Z" transform="translate(-31.1 -34.4)"/><path d="M589.22,54.62c0,4.3-3,6.17-5.79,6.17-3.14,0-5.56-2.3-5.56-6,0-3.88,2.54-6.16,5.76-6.16S589.22,51.07,589.22,54.62Zm-9.22.12c0,2.55,1.47,4.47,3.53,4.47s3.53-1.9,3.53-4.52c0-2-1-4.46-3.48-4.46S580,52.53,580,54.74Z" transform="translate(-31.1 -34.4)"/><path d="M591.88,52.05c0-1.2,0-2.18-.09-3.14h1.87l.12,1.92h.05a4.27,4.27,0,0,1,3.84-2.18c1.6,0,4.1,1,4.1,4.94v6.94h-2.11v-6.7c0-1.87-.7-3.43-2.69-3.43a3,3,0,0,0-2.83,2.16,2.88,2.88,0,0,0-.15,1v7h-2.11Z" transform="translate(-31.1 -34.4)"/><path d="M605.42,60.53v-10h-1.63V48.91h1.63v-.63c0-3.07,1.8-5.06,5.06-5.06a5.82,5.82,0,0,1,2.95.77l-.6,1.61a4.4,4.4,0,0,0-2.44-.68c-2.24,0-2.88,1.56-2.88,3.41v.58h6.74V60.53h-2.09v-10h-4.65v10Z" transform="translate(-31.1 -34.4)"/><path d="M617.75,52.53c0-1.36,0-2.54-.09-3.62h1.85l.07,2.28h.09a3.48,3.48,0,0,1,3.22-2.54,2.2,2.2,0,0,1,.6.07v2a3.08,3.08,0,0,0-.72-.07,3,3,0,0,0-2.83,2.71,5.69,5.69,0,0,0-.1,1v6.2h-2.09Z" transform="translate(-31.1 -34.4)"/><path d="M625.7,52.05c0-1.2,0-2.18-.1-3.14h1.85l.09,1.87h.08a4,4,0,0,1,3.65-2.13A3.41,3.41,0,0,1,634.55,51h.05a4.88,4.88,0,0,1,1.3-1.51,3.93,3.93,0,0,1,2.57-.81c1.53,0,3.81,1,3.81,5v6.84h-2.06V54c0-2.23-.82-3.58-2.52-3.58a2.74,2.74,0,0,0-2.5,1.92,3.73,3.73,0,0,0-.17,1.06v7.18H633v-7c0-1.85-.82-3.2-2.42-3.2a3.17,3.17,0,0,0-2.79,3.15v7H625.7Z" transform="translate(-31.1 -34.4)"/><path d="M644.34,63.48a35.12,35.12,0,0,0,1.45-5.74l2.35-.24a29,29,0,0,1-2.28,5.83Z" transform="translate(-31.1 -34.4)"/><path d="M657.93,46.12H653V44.35h12v1.77h-5V60.53h-2.11Z" transform="translate(-31.1 -34.4)"/><path d="M671.61,60.53l-.17-1.47h-.07a4.34,4.34,0,0,1-3.55,1.73,3.31,3.31,0,0,1-3.56-3.34c0-2.8,2.5-4.34,7-4.32v-.24a2.39,2.39,0,0,0-2.64-2.68,5.8,5.8,0,0,0-3,.86l-.47-1.39a7.14,7.14,0,0,1,3.81-1c3.55,0,4.42,2.42,4.42,4.75v4.34a16.91,16.91,0,0,0,.19,2.79Zm-.31-5.93c-2.31-.05-4.92.36-4.92,2.61a1.87,1.87,0,0,0,2,2,2.9,2.9,0,0,0,2.81-1.94,2.32,2.32,0,0,0,.12-.68Z" transform="translate(-31.1 -34.4)"/><path d="M686.75,48.91c0,.84-.09,1.78-.09,3.19v6.75c0,2.66-.53,4.29-1.66,5.3a6.14,6.14,0,0,1-4.22,1.39,7.45,7.45,0,0,1-3.87-1l.53-1.61a6.56,6.56,0,0,0,3.41.92c2.16,0,3.74-1.13,3.74-4.06v-1.3h-.05a4.13,4.13,0,0,1-3.69,1.95c-2.88,0-5-2.45-5-5.67,0-3.93,2.57-6.16,5.24-6.16a3.86,3.86,0,0,1,3.62,2h0l.1-1.75Zm-2.18,4.58a3.2,3.2,0,0,0-.12-1,3,3,0,0,0-3-2.23c-2,0-3.46,1.71-3.46,4.39,0,2.28,1.15,4.18,3.43,4.18a3.09,3.09,0,0,0,2.93-2.16,3.69,3.69,0,0,0,.17-1.13Z" transform="translate(-31.1 -34.4)"/><path d="M688.43,63.48a34.14,34.14,0,0,0,1.44-5.74l2.35-.24a28.45,28.45,0,0,1-2.28,5.83Z" transform="translate(-31.1 -34.4)"/><path d="M706.29,60.53l-.17-1.47h-.07a4.34,4.34,0,0,1-3.55,1.73,3.31,3.31,0,0,1-3.56-3.34c0-2.8,2.5-4.34,7-4.32v-.24a2.39,2.39,0,0,0-2.64-2.68,5.8,5.8,0,0,0-3,.86l-.48-1.39a7.18,7.18,0,0,1,3.82-1c3.55,0,4.42,2.42,4.42,4.75v4.34a15.89,15.89,0,0,0,.19,2.79ZM706,54.6c-2.31-.05-4.92.36-4.92,2.61a1.87,1.87,0,0,0,2,2,2.9,2.9,0,0,0,2.81-1.94,2.32,2.32,0,0,0,.12-.68Z" transform="translate(-31.1 -34.4)"/><path d="M711.42,52.05c0-1.2,0-2.18-.09-3.14h1.87l.12,1.92h0a4.27,4.27,0,0,1,3.84-2.18c1.61,0,4.1,1,4.1,4.94v6.94H719.2v-6.7c0-1.87-.7-3.43-2.69-3.43a3,3,0,0,0-2.83,2.16,2.9,2.9,0,0,0-.14,1v7h-2.12Z" transform="translate(-31.1 -34.4)"/><path d="M734.78,43.48V57.53c0,1,0,2.2.09,3H733l-.1-2h0a4.29,4.29,0,0,1-4,2.28c-2.81,0-5-2.38-5-5.9,0-3.87,2.38-6.24,5.21-6.24a3.88,3.88,0,0,1,3.51,1.77h0V43.48Zm-2.12,10.16a3.79,3.79,0,0,0-.09-.89,3.12,3.12,0,0,0-3.05-2.45c-2.18,0-3.48,1.92-3.48,4.49,0,2.35,1.15,4.3,3.43,4.3a3.18,3.18,0,0,0,3.1-2.52,3.83,3.83,0,0,0,.09-.92Z" transform="translate(-31.1 -34.4)"/><path d="M574.59,73.34a24.06,24.06,0,0,1,4-.31,6.66,6.66,0,0,1,4.53,1.34,4.36,4.36,0,0,1,1.42,3.39,4.74,4.74,0,0,1-1.25,3.45A6.67,6.67,0,0,1,578.36,83a7.17,7.17,0,0,1-1.68-.14v6.48h-2.09Zm2.09,7.8a7,7,0,0,0,1.73.17c2.52,0,4.05-1.23,4.05-3.46s-1.51-3.17-3.81-3.17a9.07,9.07,0,0,0-2,.17Z" transform="translate(-31.1 -34.4)"/><path d="M596.65,86.16c0,1.2,0,2.25.09,3.17h-1.87l-.12-1.9h0a4.35,4.35,0,0,1-3.84,2.16c-1.82,0-4-1-4-5.09V77.71H589v6.43c0,2.21.67,3.7,2.59,3.7a3.06,3.06,0,0,0,2.78-1.92,3.1,3.1,0,0,0,.2-1.08V77.71h2.11Z" transform="translate(-31.1 -34.4)"/><path d="M600.05,89.33c.05-.8.1-2,.1-3v-14h2.09v7.3h0a4.31,4.31,0,0,1,4-2.14c2.88,0,4.92,2.4,4.89,5.93,0,4.16-2.61,6.22-5.21,6.22a4.13,4.13,0,0,1-3.88-2.18H602l-.09,1.92Zm2.19-4.66a4.77,4.77,0,0,0,.09.77,3.27,3.27,0,0,0,3.17,2.47c2.21,0,3.53-1.8,3.53-4.46,0-2.33-1.2-4.33-3.46-4.33a3.36,3.36,0,0,0-3.21,2.6,4,4,0,0,0-.12.86Z" transform="translate(-31.1 -34.4)"/><path d="M613.81,72.28h2.11v17h-2.11Z" transform="translate(-31.1 -34.4)"/><path d="M621.82,74.44a1.31,1.31,0,0,1-2.61,0,1.29,1.29,0,0,1,1.32-1.32A1.25,1.25,0,0,1,621.82,74.44Zm-2.35,14.89V77.71h2.11V89.33Z" transform="translate(-31.1 -34.4)"/><path d="M624.8,87.17a5.61,5.61,0,0,0,2.78.84c1.54,0,2.26-.77,2.26-1.73s-.6-1.56-2.16-2.14c-2.09-.74-3.07-1.89-3.07-3.29,0-1.87,1.51-3.41,4-3.41a5.85,5.85,0,0,1,2.86.72l-.53,1.54a4.46,4.46,0,0,0-2.37-.67c-1.25,0-2,.72-2,1.58s.7,1.39,2.21,2c2,.77,3,1.78,3,3.51,0,2-1.59,3.48-4.35,3.48a6.6,6.6,0,0,1-3.26-.8Z" transform="translate(-31.1 -34.4)"/><path d="M634.59,72.28h2.11v7.25h0A3.93,3.93,0,0,1,638.26,78a4.37,4.37,0,0,1,2.16-.6c1.56,0,4.06,1,4.06,5v6.92h-2.11V82.65c0-1.87-.7-3.45-2.69-3.45a3,3,0,0,0-2.83,2.11,2.56,2.56,0,0,0-.15,1v7h-2.11Z" transform="translate(-31.1 -34.4)"/><path d="M653.07,73.36a22.3,22.3,0,0,1,4-.33c2.23,0,3.67.41,4.68,1.32A4,4,0,0,1,663,77.42a4.24,4.24,0,0,1-3,4.13v.07c1.25.43,2,1.59,2.38,3.27a25.85,25.85,0,0,0,1.25,4.44h-2.16a20.1,20.1,0,0,1-1.08-3.87c-.49-2.23-1.35-3.07-3.25-3.14h-2v7h-2.09Zm2.09,7.37h2.13c2.24,0,3.65-1.22,3.65-3.07,0-2.09-1.51-3-3.72-3a8.32,8.32,0,0,0-2.06.19Z" transform="translate(-31.1 -34.4)"/><path d="M667.18,83.9a3.72,3.72,0,0,0,4,4,7.54,7.54,0,0,0,3.21-.6l.36,1.52a9.5,9.5,0,0,1-3.86.72c-3.58,0-5.72-2.36-5.72-5.86s2.07-6.27,5.45-6.27c3.8,0,4.8,3.34,4.8,5.48a6.87,6.87,0,0,1-.07,1Zm6.19-1.51c0-1.35-.55-3.43-2.93-3.43-2.13,0-3.07,2-3.24,3.43Z" transform="translate(-31.1 -34.4)"/><path d="M678,72.28h2.11v17H678Z" transform="translate(-31.1 -34.4)"/><path d="M684.87,83.9a3.72,3.72,0,0,0,4,4,7.6,7.6,0,0,0,3.22-.6l.36,1.52a9.56,9.56,0,0,1-3.87.72c-3.57,0-5.71-2.36-5.71-5.86s2.07-6.27,5.45-6.27c3.79,0,4.8,3.34,4.8,5.48a8.79,8.79,0,0,1-.07,1Zm6.19-1.51c0-1.35-.55-3.43-2.93-3.43-2.13,0-3.07,2-3.24,3.43Z" transform="translate(-31.1 -34.4)"/><path d="M702.15,89.33,702,87.86h-.07a4.34,4.34,0,0,1-3.55,1.73,3.31,3.31,0,0,1-3.56-3.34c0-2.8,2.5-4.34,7-4.32v-.24A2.4,2.4,0,0,0,699.15,79a5.81,5.81,0,0,0-3,.87l-.48-1.39a7.18,7.18,0,0,1,3.82-1c3.55,0,4.42,2.43,4.42,4.76v4.34a15.89,15.89,0,0,0,.19,2.79Zm-.31-5.93c-2.31-.05-4.92.36-4.92,2.61a1.87,1.87,0,0,0,2,2,2.9,2.9,0,0,0,2.81-1.94,2.32,2.32,0,0,0,.12-.68Z" transform="translate(-31.1 -34.4)"/><path d="M707,87.17a5.57,5.57,0,0,0,2.78.84c1.54,0,2.26-.77,2.26-1.73s-.6-1.56-2.16-2.14c-2.09-.74-3.08-1.89-3.08-3.29,0-1.87,1.52-3.41,4-3.41a5.85,5.85,0,0,1,2.86.72l-.53,1.54a4.53,4.53,0,0,0-2.38-.67c-1.24,0-1.94.72-1.94,1.58s.7,1.39,2.21,2c2,.77,3.05,1.78,3.05,3.51,0,2-1.59,3.48-4.35,3.48a6.6,6.6,0,0,1-3.26-.8Z" transform="translate(-31.1 -34.4)"/><path d="M718,83.9a3.72,3.72,0,0,0,4,4,7.54,7.54,0,0,0,3.21-.6l.36,1.52a9.46,9.46,0,0,1-3.86.72c-3.58,0-5.71-2.36-5.71-5.86s2.06-6.27,5.45-6.27c3.79,0,4.8,3.34,4.8,5.48a6.57,6.57,0,0,1-.08,1Zm6.2-1.51c0-1.35-.56-3.43-2.93-3.43-2.14,0-3.07,2-3.24,3.43Z" transform="translate(-31.1 -34.4)"/></g><g id="Layer_6" data-name="Layer 6"><path class="cls-46" d="M675.12,220S578.35,256.74,503,267.5c-59.52,8.5-248.42,9.78-316.59,51.76" transform="translate(-31.1 -34.4)"/><polygon class="cls-20" points="143.98 263.75 131.9 311.1 178.94 297.89 143.98 263.75"/><path class="cls-46" d="M675.12,220S610,258.33,553,276.5c-48.38,15.42-107.08,24.46-134.4,44" transform="translate(-31.1 -34.4)"/><polygon class="cls-20" points="372.2 269.24 372.9 318.1 414.87 293.07 372.2 269.24"/><line class="cls-46" x1="642.02" y1="184.58" x2="641.22" y2="273.44"/><polygon class="cls-20" points="616.85 266.07 640.9 308.6 665.72 266.51 616.85 266.07"/><path d="M34.56,274.33V258.16h2.28L42,266.34a46.24,46.24,0,0,1,2.91,5.26l0,0c-.19-2.16-.24-4.13-.24-6.65v-6.76h2v16.17H44.59l-5.14-8.21a52.68,52.68,0,0,1-3-5.4l-.07,0c.12,2,.17,4,.17,6.67v6.91Z" transform="translate(-31.1 -34.4)"/><path d="M51.45,268.91a3.73,3.73,0,0,0,4,4,7.54,7.54,0,0,0,3.21-.6l.36,1.51a9.3,9.3,0,0,1-3.86.72c-3.58,0-5.71-2.35-5.71-5.85s2.06-6.27,5.45-6.27c3.79,0,4.8,3.34,4.8,5.47a6.73,6.73,0,0,1-.08,1Zm6.2-1.51c0-1.35-.56-3.44-2.93-3.44-2.14,0-3.07,2-3.24,3.44Z" transform="translate(-31.1 -34.4)"/><path d="M63.14,262.72l1.54,5.9c.33,1.3.65,2.5.86,3.7h.07c.27-1.18.65-2.43,1-3.68l1.89-5.92h1.78l1.8,5.8c.43,1.4.77,2.62,1,3.8h.07a35.36,35.36,0,0,1,.89-3.77l1.66-5.83h2.08l-3.74,11.61H72.19l-1.78-5.54c-.4-1.3-.74-2.45-1-3.82h0a32.56,32.56,0,0,1-1,3.84l-1.87,5.52H64.49L61,262.72Z" transform="translate(-31.1 -34.4)"/><path d="M84.84,271.79a7.42,7.42,0,0,0,3.74,1c2.14,0,3.39-1.12,3.39-2.76s-.87-2.37-3-3.21c-2.64-.94-4.27-2.31-4.27-4.59,0-2.52,2.08-4.39,5.23-4.39a7.44,7.44,0,0,1,3.57.79l-.57,1.71a6.43,6.43,0,0,0-3.07-.77c-2.21,0-3,1.32-3,2.42,0,1.52,1,2.26,3.21,3.12,2.74,1.06,4.13,2.38,4.13,4.76s-1.85,4.65-5.66,4.65a8.31,8.31,0,0,1-4.13-1Z" transform="translate(-31.1 -34.4)"/><path d="M99.36,259.38v3.34h3v1.6h-3v6.27c0,1.44.41,2.25,1.58,2.25a4.93,4.93,0,0,0,1.23-.14l.09,1.59a5.36,5.36,0,0,1-1.87.28,2.93,2.93,0,0,1-2.28-.88,4.33,4.33,0,0,1-.82-3v-6.34h-1.8v-1.6h1.8v-2.79Z" transform="translate(-31.1 -34.4)"/><path d="M114.48,271.16c0,1.2,0,2.26.09,3.17H112.7l-.12-1.89h0a4.37,4.37,0,0,1-3.84,2.16c-1.82,0-4-1-4-5.09v-6.79h2.12v6.43c0,2.21.67,3.69,2.59,3.69a3,3,0,0,0,3-3v-7.12h2.11Z" transform="translate(-31.1 -34.4)"/><path d="M128,257.29v14c0,1,0,2.21.1,3h-1.9l-.09-2h-.05a4.31,4.31,0,0,1-4,2.28c-2.81,0-5-2.38-5-5.91,0-3.86,2.38-6.24,5.21-6.24a3.87,3.87,0,0,1,3.5,1.78h.05v-6.94Zm-2.11,10.15a3.76,3.76,0,0,0-.09-.88,3.11,3.11,0,0,0-3-2.45c-2.19,0-3.48,1.92-3.48,4.49,0,2.35,1.15,4.29,3.43,4.29a3.18,3.18,0,0,0,3.1-2.52,3.75,3.75,0,0,0,.09-.91Z" transform="translate(-31.1 -34.4)"/><path d="M133.87,259.45a1.31,1.31,0,0,1-2.62,0,1.29,1.29,0,0,1,1.32-1.32A1.26,1.26,0,0,1,133.87,259.45Zm-2.35,14.88V262.72h2.11v11.61Z" transform="translate(-31.1 -34.4)"/><path d="M138.31,268.91a3.72,3.72,0,0,0,4,4,7.6,7.6,0,0,0,3.22-.6l.36,1.51a9.39,9.39,0,0,1-3.87.72c-3.57,0-5.71-2.35-5.71-5.85s2.07-6.27,5.45-6.27c3.79,0,4.8,3.34,4.8,5.47a9,9,0,0,1-.07,1Zm6.19-1.51c0-1.35-.55-3.44-2.93-3.44-2.13,0-3.07,2-3.24,3.44Z" transform="translate(-31.1 -34.4)"/><path d="M148.87,272.17a5.51,5.51,0,0,0,2.78.84c1.54,0,2.26-.77,2.26-1.73s-.6-1.56-2.16-2.13c-2.09-.75-3.07-1.9-3.07-3.29,0-1.87,1.51-3.41,4-3.41a5.85,5.85,0,0,1,2.86.72l-.53,1.54a4.46,4.46,0,0,0-2.37-.67c-1.25,0-1.95.72-1.95,1.58s.7,1.39,2.21,2c2,.77,3,1.77,3,3.5,0,2-1.59,3.48-4.35,3.48a6.63,6.63,0,0,1-3.26-.79Z" transform="translate(-31.1 -34.4)"/><path d="M170.18,274.33l-.17-1.46h-.07a4.34,4.34,0,0,1-3.55,1.73,3.31,3.31,0,0,1-3.55-3.34c0-2.81,2.49-4.34,7-4.32v-.24a2.39,2.39,0,0,0-2.64-2.69,5.74,5.74,0,0,0-3,.87l-.48-1.4a7.23,7.23,0,0,1,3.81-1c3.55,0,4.42,2.43,4.42,4.75v4.35a16.71,16.71,0,0,0,.19,2.78Zm-.31-5.93c-2.31,0-4.92.36-4.92,2.62a1.87,1.87,0,0,0,2,2,2.9,2.9,0,0,0,2.81-2,2.2,2.2,0,0,0,.12-.67Z" transform="translate(-31.1 -34.4)"/><path d="M175.94,262.72l2.28,6.52c.38,1.06.7,2,.94,3h.07c.26-1,.6-1.92,1-3l2.26-6.52h2.21l-4.56,11.61h-2l-4.42-11.61Z" transform="translate(-31.1 -34.4)"/><path d="M193,274.33l-.16-1.46h-.08a4.31,4.31,0,0,1-3.55,1.73,3.31,3.31,0,0,1-3.55-3.34c0-2.81,2.5-4.34,7-4.32v-.24A2.39,2.39,0,0,0,190,264a5.77,5.77,0,0,0-3,.87l-.48-1.4a7.24,7.24,0,0,1,3.82-1c3.55,0,4.41,2.43,4.41,4.75v4.35a16.71,16.71,0,0,0,.19,2.78Zm-.31-5.93c-2.3,0-4.92.36-4.92,2.62a1.87,1.87,0,0,0,2,2,2.88,2.88,0,0,0,2.81-2,2.2,2.2,0,0,0,.12-.67Z" transform="translate(-31.1 -34.4)"/><path d="M200.49,259.45a1.31,1.31,0,0,1-2.61,0,1.29,1.29,0,0,1,1.32-1.32A1.25,1.25,0,0,1,200.49,259.45Zm-2.35,14.88V262.72h2.11v11.61Z" transform="translate(-31.1 -34.4)"/><path d="M203.75,257.29h2.12v17h-2.12Z" transform="translate(-31.1 -34.4)"/><path d="M215.85,274.33l-.17-1.46h-.07a4.33,4.33,0,0,1-3.55,1.73,3.31,3.31,0,0,1-3.55-3.34c0-2.81,2.49-4.34,7-4.32v-.24a2.39,2.39,0,0,0-2.64-2.69,5.74,5.74,0,0,0-3,.87l-.48-1.4a7.23,7.23,0,0,1,3.81-1c3.56,0,4.42,2.43,4.42,4.75v4.35a16.71,16.71,0,0,0,.19,2.78Zm-.31-5.93c-2.3,0-4.92.36-4.92,2.62a1.87,1.87,0,0,0,2,2,2.9,2.9,0,0,0,2.81-2,2.2,2.2,0,0,0,.12-.67Z" transform="translate(-31.1 -34.4)"/><path d="M220.89,274.33c.05-.79.1-2,.1-3v-14h2.09v7.3h0a4.33,4.33,0,0,1,4-2.14c2.88,0,4.92,2.4,4.9,5.93,0,4.15-2.62,6.22-5.21,6.22a4.15,4.15,0,0,1-3.89-2.19h-.07l-.09,1.92Zm2.19-4.65a3.76,3.76,0,0,0,.09.76,3.26,3.26,0,0,0,3.17,2.48c2.21,0,3.53-1.8,3.53-4.47,0-2.33-1.2-4.32-3.46-4.32a3.37,3.37,0,0,0-3.21,2.59,4.06,4.06,0,0,0-.12.87Z" transform="translate(-31.1 -34.4)"/><path d="M234.64,257.29h2.11v17h-2.11Z" transform="translate(-31.1 -34.4)"/><path d="M241.48,268.91a3.72,3.72,0,0,0,4,4,7.54,7.54,0,0,0,3.21-.6l.36,1.51a9.3,9.3,0,0,1-3.86.72c-3.58,0-5.71-2.35-5.71-5.85s2.06-6.27,5.44-6.27c3.8,0,4.81,3.34,4.81,5.47a6.73,6.73,0,0,1-.08,1Zm6.19-1.51c0-1.35-.55-3.44-2.92-3.44-2.14,0-3.08,2-3.24,3.44Z" transform="translate(-31.1 -34.4)"/><path d="M257.63,274.33v-10H256v-1.6h1.63v-.56a5.43,5.43,0,0,1,1.35-4.05,4,4,0,0,1,2.83-1.08,5.11,5.11,0,0,1,1.8.33l-.29,1.64a3,3,0,0,0-1.34-.27c-1.8,0-2.26,1.59-2.26,3.36v.63h2.81v1.6h-2.81v10Z" transform="translate(-31.1 -34.4)"/><path d="M274.63,268.43c0,4.3-3,6.17-5.79,6.17-3.14,0-5.57-2.31-5.57-6,0-3.89,2.55-6.17,5.76-6.17S274.63,264.88,274.63,268.43Zm-9.22.12c0,2.54,1.46,4.46,3.53,4.46s3.53-1.89,3.53-4.51c0-2-1-4.46-3.48-4.46S265.41,266.34,265.41,268.55Z" transform="translate(-31.1 -34.4)"/><path d="M277.29,266.34c0-1.37,0-2.54-.1-3.62H279l.07,2.28h.1a3.49,3.49,0,0,1,3.22-2.55,2.74,2.74,0,0,1,.6.07v2a3.11,3.11,0,0,0-.72-.08,3,3,0,0,0-2.84,2.72,6.83,6.83,0,0,0-.09,1v6.19h-2.09Z" transform="translate(-31.1 -34.4)"/><path d="M284.85,264.64a1.43,1.43,0,1,1,2.86,0,1.43,1.43,0,1,1-2.86,0Zm0,8.47a1.43,1.43,0,1,1,1.42,1.49A1.42,1.42,0,0,1,284.85,273.11Z" transform="translate(-31.1 -34.4)"/></g><g id="Layer_7" data-name="Layer 7"><line class="cls-46" x1="157.4" y1="118.1" x2="204.24" y2="118.1"/><polygon class="cls-20" points="197.09 142.53 239.4 118.1 197.09 93.67 197.09 142.53"/><line class="cls-46" x1="431.4" y1="117.1" x2="478.24" y2="117.1"/><polygon class="cls-20" points="471.09 141.53 513.4 117.1 471.09 92.67 471.09 141.53"/></g></svg>