<svg xmlns="http://www.w3.org/2000/svg" xmlns:xlink="http://www.w3.org/1999/xlink" viewBox="0 0 808 289.67"><defs><style>.cls-1{opacity:0.5;}.cls-2{fill:url(#linear-gradient);}.cls-3{fill:#f7f7f7;}.cls-4{fill:#00adee;}.cls-5{fill:url(#linear-gradient-2);}.cls-6{fill:#e8e8e8;}.cls-7{fill:url(#linear-gradient-3);}.cls-8{fill:#fff;opacity:0.1;isolation:isolate;}.cls-9{fill:#efc8c4;}.cls-10{fill:#727a9c;}</style><linearGradient id="linear-gradient" x1="67" y1="1772" x2="67" y2="2022" gradientTransform="matrix(1, 0, 0, -1, 113, 2022)" gradientUnits="userSpaceOnUse"><stop offset="0" stop-color="gray" stop-opacity="0.25"/><stop offset="0.54" stop-color="gray" stop-opacity="0.12"/><stop offset="1" stop-color="gray" stop-opacity="0.1"/></linearGradient><linearGradient id="linear-gradient-2" x1="465" x2="465" xlink:href="#linear-gradient"/><linearGradient id="linear-gradient-3" x1="747.52" y1="1784.26" x2="747.52" y2="1785.44" gradientTransform="matrix(1, 0, 0, -1, 81, 1991.07)" xlink:href="#linear-gradient"/></defs><title>notes</title><g id="Layer_1" data-name="Layer 1"><g class="cls-1"><rect class="cls-2" width="360" height="250"/></g><rect class="cls-3" x="3" y="4" width="354" height="243"/><g class="cls-1"><circle class="cls-4" cx="47.95" cy="80.41" r="6.52"/><circle class="cls-4" cx="47.95" cy="130.53" r="6.52"/><circle class="cls-4" cx="47.95" cy="182.64" r="6.52"/></g><path d="M54.11,50.23h0l-2.38,1.28-.35-1.41,3-1.59h1.57V62.15H54.11Z" transform="translate(-21 -20)"/><path d="M61,61.06a1.25,1.25,0,1,1,1.24,1.32A1.24,1.24,0,0,1,61,61.06Z" transform="translate(-21 -20)"/><path d="M65.66,60a6.1,6.1,0,0,0,3,.86c2.38,0,3.11-1.51,3.09-2.64,0-1.91-1.74-2.73-3.53-2.73h-1V54.13h1c1.35,0,3.05-.69,3.05-2.31,0-1.09-.7-2-2.4-2a5,5,0,0,0-2.73.9l-.48-1.34a6.44,6.44,0,0,1,3.57-1c2.69,0,3.9,1.59,3.9,3.25a3.39,3.39,0,0,1-2.51,3.21v0a3.57,3.57,0,0,1,3,3.51c0,2.18-1.7,4.09-5,4.09a6.92,6.92,0,0,1-3.54-.92Z" transform="translate(-21 -20)"/><path d="M76.14,61.06a1.25,1.25,0,1,1,1.24,1.32A1.24,1.24,0,0,1,76.14,61.06Z" transform="translate(-21 -20)"/><path d="M89.41,55.18c0,4.64-1.72,7.2-4.75,7.2-2.66,0-4.47-2.49-4.51-7s2-7.09,4.74-7.09S89.41,50.84,89.41,55.18ZM82,55.39C82,58.94,83.09,61,84.77,61c1.89,0,2.79-2.21,2.79-5.69s-.86-5.57-2.77-5.57C83.17,49.7,82,51.68,82,55.39Z" transform="translate(-21 -20)"/><path d="M100.43,55.79v1.37H95.25V55.79Z" transform="translate(-21 -20)"/><path d="M107.11,62.15V48h2l4.53,7.16a39.75,39.75,0,0,1,2.54,4.6l0,0c-.16-1.89-.21-3.61-.21-5.82V48h1.73V62.15h-1.85L111.39,55a45.13,45.13,0,0,1-2.64-4.72l-.06,0c.1,1.78.14,3.49.14,5.84v6Z" transform="translate(-21 -20)"/><path d="M121.9,57.41a3.25,3.25,0,0,0,3.48,3.53,6.56,6.56,0,0,0,2.81-.53l.32,1.32a8.11,8.11,0,0,1-3.38.63c-3.13,0-5-2-5-5.12s1.81-5.48,4.77-5.48c3.31,0,4.2,2.92,4.2,4.79a6.84,6.84,0,0,1-.07.86Zm5.41-1.32c0-1.18-.48-3-2.56-3-1.87,0-2.69,1.73-2.83,3Z" transform="translate(-21 -20)"/><path d="M132.12,52l1.35,5.17c.29,1.13.56,2.18.75,3.23h.06c.24-1,.57-2.12.91-3.21L136.85,52h1.55L140,57.07c.38,1.22.68,2.29.91,3.32h.06a30.3,30.3,0,0,1,.78-3.3l1.45-5.1H145l-3.27,10.16H140l-1.56-4.85c-.35-1.13-.65-2.14-.9-3.33h0a31.39,31.39,0,0,1-.92,3.35L135,62.15H133.3L130.23,52Z" transform="translate(-21 -20)"/><path d="M151.11,59.93a6.46,6.46,0,0,0,3.27.92c1.87,0,3-1,3-2.41s-.75-2.08-2.67-2.82c-2.3-.81-3.73-2-3.73-4,0-2.2,1.82-3.84,4.57-3.84a6.52,6.52,0,0,1,3.13.69l-.5,1.5a5.53,5.53,0,0,0-2.69-.68c-1.93,0-2.66,1.16-2.66,2.12,0,1.33.86,2,2.81,2.73,2.39.93,3.61,2.08,3.61,4.16s-1.62,4.07-5,4.07a7.38,7.38,0,0,1-3.61-.9Z" transform="translate(-21 -20)"/><path d="M167.34,62.15l-.15-1.28h-.06A3.79,3.79,0,0,1,164,62.38a2.89,2.89,0,0,1-3.11-2.91c0-2.46,2.19-3.8,6.11-3.78v-.21a2.09,2.09,0,0,0-2.31-2.35,5.06,5.06,0,0,0-2.64.75l-.42-1.22a6.37,6.37,0,0,1,3.34-.9c3.1,0,3.86,2.12,3.86,4.16v3.8a13.82,13.82,0,0,0,.17,2.43ZM167.06,57c-2,0-4.3.31-4.3,2.29A1.64,1.64,0,0,0,164.5,61a2.52,2.52,0,0,0,2.46-1.7,2,2,0,0,0,.1-.59Z" transform="translate(-21 -20)"/><path d="M171.83,54.74c0-1.05,0-1.91-.08-2.75h1.61l.09,1.64h.06a3.5,3.5,0,0,1,3.19-1.87,3,3,0,0,1,2.88,2h0a4.32,4.32,0,0,1,1.14-1.33,3.45,3.45,0,0,1,2.24-.71c1.35,0,3.34.88,3.34,4.41v6h-1.81V56.4c0-1.95-.71-3.13-2.2-3.13A2.39,2.39,0,0,0,180.15,55a2.88,2.88,0,0,0-.15.93v6.27h-1.81V56.06c0-1.61-.71-2.79-2.12-2.79a2.54,2.54,0,0,0-2.29,1.85,2.65,2.65,0,0,0-.14.9v6.13h-1.81Z" transform="translate(-21 -20)"/><path d="M189.35,55.31c0-1.3,0-2.35-.09-3.32h1.66l.08,1.74h.05a4,4,0,0,1,3.61-2c2.45,0,4.3,2.08,4.3,5.17,0,3.65-2.22,5.45-4.62,5.45a3.56,3.56,0,0,1-3.13-1.59h0v5.52h-1.82ZM191.17,58a3.5,3.5,0,0,0,.09.75A2.85,2.85,0,0,0,194,60.94c1.95,0,3.08-1.6,3.08-3.93,0-2-1.07-3.78-3-3.78a2.94,2.94,0,0,0-2.79,2.29,3.1,3.1,0,0,0-.13.75Z" transform="translate(-21 -20)"/><path d="M201.29,47.25h1.85v14.9h-1.85Z" transform="translate(-21 -20)"/><path d="M207.28,57.41a3.26,3.26,0,0,0,3.49,3.53,6.56,6.56,0,0,0,2.81-.53l.31,1.32a8.11,8.11,0,0,1-3.38.63c-3.13,0-5-2-5-5.12s1.8-5.48,4.76-5.48c3.32,0,4.2,2.92,4.2,4.79a7.27,7.27,0,0,1-.06.86Zm5.42-1.32c0-1.18-.49-3-2.56-3-1.87,0-2.69,1.73-2.84,3Z" transform="translate(-21 -20)"/><path d="M216.52,60.26A4.82,4.82,0,0,0,219,61c1.34,0,2-.67,2-1.51s-.53-1.37-1.89-1.87c-1.83-.65-2.69-1.66-2.69-2.88,0-1.64,1.32-3,3.51-3a5,5,0,0,1,2.5.63l-.47,1.34a3.93,3.93,0,0,0-2.07-.58c-1.1,0-1.7.63-1.7,1.38s.6,1.22,1.93,1.72c1.76.68,2.66,1.56,2.66,3.07,0,1.78-1.38,3-3.8,3a5.77,5.77,0,0,1-2.85-.69Z" transform="translate(-21 -20)"/><path d="M235.17,62.15,235,60.87H235a3.79,3.79,0,0,1-3.11,1.51,2.89,2.89,0,0,1-3.11-2.91c0-2.46,2.19-3.8,6.11-3.78v-.21a2.09,2.09,0,0,0-2.31-2.35,5.06,5.06,0,0,0-2.64.75l-.42-1.22a6.33,6.33,0,0,1,3.33-.9c3.11,0,3.87,2.12,3.87,4.16v3.8a13.82,13.82,0,0,0,.17,2.43ZM234.89,57c-2,0-4.3.31-4.3,2.29A1.64,1.64,0,0,0,232.33,61a2.54,2.54,0,0,0,2.46-1.7,2,2,0,0,0,.1-.59Z" transform="translate(-21 -20)"/><path d="M239.66,54.74c0-1.05,0-1.91-.08-2.75h1.63l.11,1.68h0a3.76,3.76,0,0,1,3.36-1.91c1.41,0,3.59.84,3.59,4.33v6.06h-1.85V56.3c0-1.64-.61-3-2.35-3a2.63,2.63,0,0,0-2.48,1.89,2.79,2.79,0,0,0-.12.86v6.11h-1.85Z" transform="translate(-21 -20)"/><path d="M260.09,47.25V59.53c0,.9,0,1.93.09,2.62h-1.66l-.09-1.76h0a3.76,3.76,0,0,1-3.46,2c-2.46,0-4.35-2.07-4.35-5.16,0-3.38,2.08-5.46,4.56-5.46a3.41,3.41,0,0,1,3.06,1.55h0V47.25Zm-1.85,8.88a3.44,3.44,0,0,0-.08-.78,2.72,2.72,0,0,0-2.67-2.14c-1.91,0-3,1.68-3,3.93,0,2,1,3.75,3,3.75a2.77,2.77,0,0,0,2.71-2.2,3.34,3.34,0,0,0,.08-.8Z" transform="translate(-21 -20)"/><path d="M270,57.7l-1.47,4.45H266.6L271.41,48h2.21l4.83,14.15h-2L275,57.7Zm4.64-1.43-1.38-4.07c-.32-.92-.53-1.76-.74-2.58h0c-.21.84-.44,1.7-.71,2.56l-1.39,4.09Z" transform="translate(-21 -20)"/><path d="M280.4,54.74c0-1.05,0-1.91-.08-2.75H282l.1,1.68h0a3.76,3.76,0,0,1,3.36-1.91c1.41,0,3.59.84,3.59,4.33v6.06H287.2V56.3c0-1.64-.61-3-2.35-3a2.61,2.61,0,0,0-2.47,1.89,2.51,2.51,0,0,0-.13.86v6.11H280.4Z" transform="translate(-21 -20)"/><path d="M297.68,62.15l-.14-1.28h-.07a3.77,3.77,0,0,1-3.1,1.51,2.89,2.89,0,0,1-3.11-2.91c0-2.46,2.18-3.8,6.11-3.78v-.21a2.09,2.09,0,0,0-2.31-2.35,5.1,5.1,0,0,0-2.65.75L292,52.66a6.37,6.37,0,0,1,3.34-.9c3.11,0,3.87,2.12,3.87,4.16v3.8a14.93,14.93,0,0,0,.16,2.43ZM297.41,57c-2,0-4.3.31-4.3,2.29A1.63,1.63,0,0,0,294.85,61a2.52,2.52,0,0,0,2.45-1.7,1.76,1.76,0,0,0,.11-.59Z" transform="translate(-21 -20)"/><path d="M302.18,47.25H304v14.9h-1.85Z" transform="translate(-21 -20)"/><path d="M307.8,52,310,58c.23.67.48,1.47.65,2.08h0c.19-.61.4-1.39.66-2.13l2-6h1.95l-2.77,7.25c-1.32,3.48-2.22,5.27-3.48,6.36a5,5,0,0,1-2.27,1.19l-.46-1.55a4.9,4.9,0,0,0,1.61-.9,5.61,5.61,0,0,0,1.56-2.06,1.42,1.42,0,0,0,.14-.44,1.62,1.62,0,0,0-.12-.48L305.79,52Z" transform="translate(-21 -20)"/><path d="M316.65,60.26a4.78,4.78,0,0,0,2.43.74c1.35,0,2-.67,2-1.51s-.52-1.37-1.88-1.87c-1.83-.65-2.69-1.66-2.69-2.88,0-1.64,1.32-3,3.5-3a5,5,0,0,1,2.5.63L322,53.73a4,4,0,0,0-2.08-.58c-1.09,0-1.7.63-1.7,1.38s.61,1.22,1.93,1.72c1.77.68,2.67,1.56,2.67,3.07,0,1.78-1.39,3-3.8,3a5.84,5.84,0,0,1-2.86-.69Z" transform="translate(-21 -20)"/><path d="M327.27,49.14a1.09,1.09,0,0,1-1.17,1.13A1.1,1.1,0,0,1,325,49.14,1.14,1.14,0,0,1,326.14,48,1.1,1.1,0,0,1,327.27,49.14Zm-2.06,13V52h1.85V62.15Z" transform="translate(-21 -20)"/><path d="M329.88,60.26a4.78,4.78,0,0,0,2.43.74c1.35,0,2-.67,2-1.51s-.53-1.37-1.89-1.87c-1.83-.65-2.69-1.66-2.69-2.88,0-1.64,1.32-3,3.5-3a5,5,0,0,1,2.5.63l-.46,1.34a4,4,0,0,0-2.08-.58c-1.09,0-1.7.63-1.7,1.38s.61,1.22,1.93,1.72c1.77.68,2.67,1.56,2.67,3.07,0,1.78-1.39,3-3.8,3a5.84,5.84,0,0,1-2.86-.69Z" transform="translate(-21 -20)"/><path d="M96.33,102.64l-1.26,3.82H93.45l4.12-12.13h1.89l4.14,12.13h-1.67l-1.3-3.82Zm4-1.22-1.19-3.49c-.27-.8-.45-1.52-.63-2.22h0c-.18.72-.38,1.46-.62,2.2l-1.18,3.51Z" transform="translate(-21 -20)"/><path d="M112.64,93.68v10.53c0,.77,0,1.66.07,2.25h-1.42l-.07-1.51h0a3.22,3.22,0,0,1-3,1.71c-2.11,0-3.73-1.78-3.73-4.43,0-2.9,1.79-4.68,3.91-4.68A2.93,2.93,0,0,1,111,98.88h0v-5.2Zm-1.58,7.61a2.53,2.53,0,0,0-.08-.66,2.32,2.32,0,0,0-2.28-1.84c-1.64,0-2.61,1.44-2.61,3.37,0,1.76.86,3.22,2.57,3.22a2.37,2.37,0,0,0,2.32-1.89,2.49,2.49,0,0,0,.08-.68Z" transform="translate(-21 -20)"/><path d="M122.79,93.68v10.53c0,.77,0,1.66.07,2.25h-1.42l-.07-1.51h0a3.21,3.21,0,0,1-3,1.71c-2.1,0-3.72-1.78-3.72-4.43,0-2.9,1.78-4.68,3.9-4.68a2.9,2.9,0,0,1,2.63,1.33h0v-5.2Zm-1.58,7.61a3,3,0,0,0-.07-.66,2.34,2.34,0,0,0-2.29-1.84c-1.64,0-2.61,1.44-2.61,3.37,0,1.76.86,3.22,2.57,3.22a2.38,2.38,0,0,0,2.33-1.89,3,3,0,0,0,.07-.68Z" transform="translate(-21 -20)"/><path d="M129.11,104.64a5.26,5.26,0,0,0,2.59.74c2,0,2.67-1.3,2.65-2.27,0-1.64-1.5-2.34-3-2.34h-.88V99.58h.88c1.16,0,2.61-.59,2.61-2,0-.93-.59-1.76-2.05-1.76a4.27,4.27,0,0,0-2.34.77l-.41-1.15a5.56,5.56,0,0,1,3.06-.9c2.3,0,3.35,1.37,3.35,2.79a2.92,2.92,0,0,1-2.16,2.76v0a3.05,3.05,0,0,1,2.61,3c0,1.87-1.46,3.51-4.27,3.51a5.89,5.89,0,0,1-3-.79Z" transform="translate(-21 -20)"/><path d="M138,106.46v-1l1.25-1.21c3-2.84,4.34-4.35,4.35-6.12a2.09,2.09,0,0,0-2.32-2.29,4,4,0,0,0-2.48,1l-.51-1.11a5.1,5.1,0,0,1,3.31-1.19,3.29,3.29,0,0,1,3.59,3.4c0,2.16-1.57,3.91-4,6.29l-.93.86v0h5.26v1.31Z" transform="translate(-21 -20)"/><path d="M155,100.48c0,4-1.48,6.18-4.07,6.18-2.29,0-3.84-2.14-3.87-6s1.69-6.09,4.06-6.09S155,96.76,155,100.48Zm-6.36.18c0,3,.94,4.78,2.38,4.78,1.62,0,2.39-1.9,2.39-4.88s-.74-4.78-2.38-4.78C149.63,95.78,148.62,97.48,148.62,100.66Z" transform="translate(-21 -20)"/><path d="M160.75,100.11c0-.9,0-1.64-.07-2.36h1.4l.09,1.44h0a3.2,3.2,0,0,1,2.88-1.64c1.21,0,3.08.72,3.08,3.71v5.2h-1.59v-5c0-1.41-.52-2.58-2-2.58a2.25,2.25,0,0,0-2.13,1.62,2.37,2.37,0,0,0-.1.74v5.24h-1.59Z" transform="translate(-21 -20)"/><path d="M171.62,102.39a2.8,2.8,0,0,0,3,3A5.71,5.71,0,0,0,177,105l.27,1.13a7,7,0,0,1-2.89.54,4,4,0,0,1-4.29-4.39c0-2.63,1.55-4.7,4.09-4.7,2.84,0,3.6,2.5,3.6,4.1,0,.33,0,.58-.05.74Zm4.65-1.13a2.26,2.26,0,0,0-2.2-2.58,2.63,2.63,0,0,0-2.43,2.58Z" transform="translate(-21 -20)"/><path d="M180.39,97.75l1.15,4.43c.25,1,.49,1.87.65,2.77h.05c.2-.88.49-1.82.78-2.76l1.42-4.44h1.33l1.35,4.35c.33,1.05.58,2,.78,2.85h0a27.69,27.69,0,0,1,.67-2.83l1.24-4.37h1.57l-2.81,8.71h-1.44l-1.34-4.16c-.3-1-.55-1.83-.77-2.86h0a24.21,24.21,0,0,1-.79,2.88l-1.4,4.14H181.4l-2.63-8.71Z" transform="translate(-21 -20)"/><path d="M196.61,104.84a4.07,4.07,0,0,0,2.09.63c1.15,0,1.69-.57,1.69-1.3s-.45-1.17-1.62-1.6c-1.57-.56-2.31-1.42-2.31-2.46,0-1.41,1.14-2.56,3-2.56a4.31,4.31,0,0,1,2.14.54l-.39,1.15a3.51,3.51,0,0,0-1.79-.5c-.93,0-1.45.54-1.45,1.19s.52,1,1.65,1.47c1.51.58,2.29,1.33,2.29,2.63,0,1.53-1.19,2.61-3.26,2.61a5,5,0,0,1-2.45-.59Z" transform="translate(-21 -20)"/><path d="M208.78,106.46l-.13-1.1h-.05a3.25,3.25,0,0,1-2.67,1.3,2.48,2.48,0,0,1-2.66-2.5c0-2.11,1.87-3.26,5.24-3.24v-.18a1.8,1.8,0,0,0-2-2,4.31,4.31,0,0,0-2.27.65l-.36-1.05a5.38,5.38,0,0,1,2.86-.77c2.66,0,3.31,1.82,3.31,3.56v3.26a12,12,0,0,0,.15,2.09Zm-.24-4.45c-1.73,0-3.69.27-3.69,2a1.41,1.41,0,0,0,1.5,1.51,2.16,2.16,0,0,0,2.1-1.46,1.47,1.47,0,0,0,.09-.5Z" transform="translate(-21 -20)"/><path d="M212.63,100.11c0-.9,0-1.64-.08-2.36h1.39l.07,1.4h.06a3,3,0,0,1,2.73-1.6,2.58,2.58,0,0,1,2.47,1.75h0a3.57,3.57,0,0,1,1-1.14,3,3,0,0,1,1.93-.61c1.15,0,2.86.76,2.86,3.78v5.13h-1.55v-4.93c0-1.68-.61-2.68-1.89-2.68a2,2,0,0,0-1.87,1.44,2.33,2.33,0,0,0-.13.79v5.38h-1.55v-5.22c0-1.39-.61-2.39-1.82-2.39a2.37,2.37,0,0,0-2.09,2.35v5.26h-1.54Z" transform="translate(-21 -20)"/><path d="M227.64,100.59c0-1.11,0-2-.07-2.84H229l.07,1.49h0a3.42,3.42,0,0,1,3.09-1.69c2.11,0,3.7,1.78,3.7,4.43,0,3.13-1.91,4.68-4,4.68a3,3,0,0,1-2.68-1.37h0V110h-1.57Zm1.57,2.32a3.24,3.24,0,0,0,.07.65,2.45,2.45,0,0,0,2.37,1.86c1.68,0,2.65-1.37,2.65-3.37,0-1.75-.92-3.24-2.59-3.24a2.53,2.53,0,0,0-2.4,2,2.76,2.76,0,0,0-.1.65Z" transform="translate(-21 -20)"/><path d="M237.88,93.68h1.58v12.78h-1.58Z" transform="translate(-21 -20)"/><path d="M243,102.39a2.8,2.8,0,0,0,3,3,5.75,5.75,0,0,0,2.41-.45l.27,1.13a7.09,7.09,0,0,1-2.9.54,4,4,0,0,1-4.28-4.39c0-2.63,1.55-4.7,4.08-4.7,2.85,0,3.61,2.5,3.61,4.1a5.31,5.31,0,0,1-.06.74Zm4.65-1.13a2.27,2.27,0,0,0-2.2-2.58,2.63,2.63,0,0,0-2.43,2.58Z" transform="translate(-21 -20)"/><path d="M250.93,104.84a4.13,4.13,0,0,0,2.09.63c1.15,0,1.69-.57,1.69-1.3s-.45-1.17-1.62-1.6c-1.57-.56-2.3-1.42-2.3-2.46,0-1.41,1.13-2.56,3-2.56a4.38,4.38,0,0,1,2.15.54l-.4,1.15a3.44,3.44,0,0,0-1.78-.5c-.94,0-1.46.54-1.46,1.19s.52,1,1.65,1.47c1.52.58,2.29,1.33,2.29,2.63,0,1.53-1.19,2.61-3.26,2.61a5,5,0,0,1-2.45-.59Z" transform="translate(-21 -20)"/><path d="M92.06,144.62V132.48h1.71l3.89,6.14a35,35,0,0,1,2.18,3.94l0,0c-.15-1.62-.18-3.09-.18-5v-5.08h1.47v12.14H99.59l-3.86-6.16a39.55,39.55,0,0,1-2.26-4.05h-.06c.09,1.53.13,3,.13,5v5.19Z" transform="translate(-21 -20)"/><path d="M104.73,140.55a2.79,2.79,0,0,0,3,3,5.71,5.71,0,0,0,2.41-.45l.27,1.13a6.84,6.84,0,0,1-2.89.55,4.05,4.05,0,0,1-4.29-4.4c0-2.63,1.55-4.7,4.09-4.7,2.84,0,3.6,2.51,3.6,4.11a5.61,5.61,0,0,1-.06.74Zm4.65-1.14a2.25,2.25,0,0,0-2.2-2.57,2.62,2.62,0,0,0-2.43,2.57Z" transform="translate(-21 -20)"/><path d="M113.5,135.9l1.15,4.43c.25,1,.49,1.87.65,2.77h0c.2-.88.49-1.82.78-2.75l1.42-4.45h1.33l1.35,4.36c.33,1,.58,2,.78,2.84h0a26.94,26.94,0,0,1,.67-2.82L123,135.9h1.57l-2.81,8.72h-1.44L119,140.46c-.3-1-.55-1.84-.77-2.87h0a23.2,23.2,0,0,1-.79,2.88l-1.4,4.15h-1.44l-2.63-8.72Z" transform="translate(-21 -20)"/><path d="M134.76,144.62l-.13-1.1h0a3.26,3.26,0,0,1-2.67,1.29,2.48,2.48,0,0,1-2.66-2.5c0-2.11,1.87-3.26,5.24-3.24v-.18a1.8,1.8,0,0,0-2-2,4.31,4.31,0,0,0-2.27.65l-.36-1a5.38,5.38,0,0,1,2.86-.78c2.67,0,3.31,1.82,3.31,3.57v3.26a12.14,12.14,0,0,0,.15,2.09Zm-.24-4.45c-1.73,0-3.69.27-3.69,2a1.4,1.4,0,0,0,1.5,1.51,2.16,2.16,0,0,0,2.1-1.46,1.47,1.47,0,0,0,.09-.5Z" transform="translate(-21 -20)"/><path d="M138.61,138.26c0-.9,0-1.64-.07-2.36h1.4l.09,1.44h0A3.2,3.2,0,0,1,143,135.7c1.2,0,3.08.72,3.08,3.71v5.21h-1.59v-5c0-1.4-.52-2.57-2-2.57a2.25,2.25,0,0,0-2.12,1.62,2.35,2.35,0,0,0-.11.74v5.24h-1.58Z" transform="translate(-21 -20)"/><path d="M153.42,144.62l-.12-1.1h-.06a3.24,3.24,0,0,1-2.66,1.29,2.48,2.48,0,0,1-2.67-2.5c0-2.11,1.88-3.26,5.24-3.24v-.18a1.79,1.79,0,0,0-2-2,4.33,4.33,0,0,0-2.27.65l-.36-1a5.41,5.41,0,0,1,2.87-.78c2.66,0,3.31,1.82,3.31,3.57v3.26a13.31,13.31,0,0,0,.14,2.09Zm-.23-4.45c-1.73,0-3.69.27-3.69,2a1.4,1.4,0,0,0,1.49,1.51,2.16,2.16,0,0,0,2.11-1.46,1.76,1.76,0,0,0,.09-.5Z" transform="translate(-21 -20)"/><path d="M157.27,131.83h1.59v12.79h-1.59Z" transform="translate(-21 -20)"/><path d="M162.1,135.9l1.91,5.15c.19.58.41,1.26.55,1.78h0c.16-.52.34-1.19.56-1.82l1.73-5.11h1.67l-2.38,6.21c-1.13,3-1.9,4.52-3,5.46a4.31,4.31,0,0,1-1.95,1l-.39-1.33a4.23,4.23,0,0,0,1.38-.77,4.83,4.83,0,0,0,1.33-1.77,1,1,0,0,0,.13-.37,1.43,1.43,0,0,0-.11-.42l-3.22-8Z" transform="translate(-21 -20)"/><path d="M169.68,143a4.06,4.06,0,0,0,2.08.63c1.16,0,1.7-.57,1.7-1.29s-.45-1.17-1.62-1.6c-1.57-.56-2.31-1.43-2.31-2.47,0-1.41,1.14-2.56,3-2.56a4.34,4.34,0,0,1,2.14.54l-.4,1.16a3.33,3.33,0,0,0-1.78-.51c-.93,0-1.46.54-1.46,1.19s.53,1,1.66,1.48c1.51.57,2.29,1.33,2.29,2.62,0,1.53-1.19,2.62-3.26,2.62a5,5,0,0,1-2.45-.6Z" transform="translate(-21 -20)"/><path d="M178.78,133.45a.93.93,0,0,1-1,1,.94.94,0,0,1-1-1,1,1,0,0,1,1-1A.93.93,0,0,1,178.78,133.45ZM177,144.62V135.9h1.58v8.72Z" transform="translate(-21 -20)"/><path d="M181,143a4.06,4.06,0,0,0,2.08.63c1.16,0,1.7-.57,1.7-1.29s-.45-1.17-1.62-1.6c-1.57-.56-2.31-1.43-2.31-2.47,0-1.41,1.14-2.56,3-2.56a4.34,4.34,0,0,1,2.14.54l-.4,1.16a3.33,3.33,0,0,0-1.78-.51c-.93,0-1.46.54-1.46,1.19s.53,1,1.66,1.48c1.51.57,2.29,1.33,2.29,2.62,0,1.53-1.19,2.62-3.26,2.62a5,5,0,0,1-2.45-.6Z" transform="translate(-21 -20)"/><path d="M192.18,138.62c0-1,0-1.91-.08-2.72h1.39l0,1.71h.08A2.61,2.61,0,0,1,196,135.7a1.58,1.58,0,0,1,.45.06v1.49a2.21,2.21,0,0,0-2.67,2,5.32,5.32,0,0,0-.07.74v4.65h-1.56Z" transform="translate(-21 -20)"/><path d="M198.76,140.55a2.79,2.79,0,0,0,3,3,5.8,5.8,0,0,0,2.42-.45l.27,1.13a6.93,6.93,0,0,1-2.9.55,4.05,4.05,0,0,1-4.29-4.4c0-2.63,1.55-4.7,4.09-4.7,2.84,0,3.6,2.51,3.6,4.11,0,.32,0,.57-.05.74Zm4.65-1.14a2.25,2.25,0,0,0-2.2-2.57,2.62,2.62,0,0,0-2.43,2.57Z" transform="translate(-21 -20)"/><path d="M206.68,143a4.13,4.13,0,0,0,2.09.63c1.15,0,1.69-.57,1.69-1.29s-.45-1.17-1.62-1.6c-1.56-.56-2.3-1.43-2.3-2.47,0-1.41,1.13-2.56,3-2.56a4.34,4.34,0,0,1,2.14.54l-.4,1.16a3.33,3.33,0,0,0-1.78-.51c-.94,0-1.46.54-1.46,1.19s.52,1,1.66,1.48c1.51.57,2.28,1.33,2.28,2.62,0,1.53-1.18,2.62-3.25,2.62a5,5,0,0,1-2.45-.6Z" transform="translate(-21 -20)"/><path d="M221.32,142.24c0,.9,0,1.69.07,2.38H220l-.09-1.43h0a3.25,3.25,0,0,1-2.88,1.62c-1.37,0-3-.75-3-3.81v-5.1h1.59v4.83c0,1.65.5,2.77,1.94,2.77a2.3,2.3,0,0,0,2.09-1.44,2.33,2.33,0,0,0,.14-.81V135.9h1.59Z" transform="translate(-21 -20)"/><path d="M223.94,131.83h1.59v12.79h-1.59Z" transform="translate(-21 -20)"/><path d="M230.1,133.4v2.5h2.27v1.21H230.1v4.7c0,1.08.31,1.69,1.19,1.69a3.75,3.75,0,0,0,.92-.11l.07,1.19a3.78,3.78,0,0,1-1.4.22,2.19,2.19,0,0,1-1.71-.67,3.18,3.18,0,0,1-.62-2.27v-4.75H227.2V135.9h1.35v-2.09Z" transform="translate(-21 -20)"/><path d="M233.93,143a4.13,4.13,0,0,0,2.09.63c1.16,0,1.7-.57,1.7-1.29s-.45-1.17-1.62-1.6c-1.57-.56-2.31-1.43-2.31-2.47,0-1.41,1.13-2.56,3-2.56a4.34,4.34,0,0,1,2.14.54l-.4,1.16a3.33,3.33,0,0,0-1.78-.51c-.93,0-1.46.54-1.46,1.19s.53,1,1.66,1.48c1.51.57,2.29,1.33,2.29,2.62,0,1.53-1.19,2.62-3.26,2.62a5,5,0,0,1-2.45-.6Z" transform="translate(-21 -20)"/><path d="M245.26,144.62v-7.51H244V135.9h1.23v-.41a4.16,4.16,0,0,1,1-3.05,3.08,3.08,0,0,1,2.13-.81,3.58,3.58,0,0,1,1.35.26l-.22,1.22a2.31,2.31,0,0,0-1-.2c-1.35,0-1.7,1.19-1.7,2.52v.47h2.11v1.21h-2.11v7.51Z" transform="translate(-21 -20)"/><path d="M258,140.19a4.25,4.25,0,0,1-4.34,4.62,4.14,4.14,0,0,1-4.17-4.48c0-2.92,1.9-4.63,4.32-4.63S258,137.52,258,140.19Zm-6.91.09c0,1.9,1.1,3.34,2.65,3.34s2.64-1.42,2.64-3.38c0-1.48-.74-3.35-2.61-3.35S251.09,138.62,251.09,140.28Z" transform="translate(-21 -20)"/><path d="M260,138.62c0-1,0-1.91-.07-2.72h1.38l.06,1.71h.07a2.61,2.61,0,0,1,2.41-1.91,1.53,1.53,0,0,1,.45.06v1.49a2.16,2.16,0,0,0-.54-.05,2.21,2.21,0,0,0-2.12,2,4.09,4.09,0,0,0-.08.74v4.65H260Z" transform="translate(-21 -20)"/><path d="M274.09,144.62v-3.19h-5.43v-1.05l5.22-7.47h1.71v7.28h1.64v1.24h-1.64v3.19Zm0-4.43v-3.91c0-.61,0-1.23.06-1.84h-.06c-.36.69-.64,1.19-1,1.73l-2.86,4v0Z" transform="translate(-21 -20)"/><path d="M286.21,138.64c0,4-1.48,6.17-4.07,6.17-2.29,0-3.84-2.14-3.87-6s1.69-6.09,4.07-6.09S286.21,134.91,286.21,138.64Zm-6.36.18c0,3,.94,4.77,2.38,4.77,1.62,0,2.39-1.89,2.39-4.88s-.74-4.77-2.37-4.77C280.86,133.94,279.85,135.63,279.85,138.82Z" transform="translate(-21 -20)"/><path d="M288,142.8a5.4,5.4,0,0,0,2.59.74c2,0,2.67-1.3,2.65-2.27,0-1.64-1.49-2.34-3-2.34h-.89v-1.19h.89c1.15,0,2.61-.6,2.61-2,0-.94-.6-1.77-2.06-1.77a4.33,4.33,0,0,0-2.34.78l-.41-1.16a5.56,5.56,0,0,1,3.06-.9c2.31,0,3.35,1.37,3.35,2.79a2.91,2.91,0,0,1-2.16,2.76v0a3,3,0,0,1,2.61,3c0,1.87-1.46,3.51-4.27,3.51a6,6,0,0,1-3-.79Z" transform="translate(-21 -20)"/><path d="M92,159.86c0-.9,0-1.64-.08-2.36h1.41l.09,1.44h0a3.2,3.2,0,0,1,2.88-1.64c1.2,0,3.07.72,3.07,3.71v5.21H97.84v-5c0-1.4-.52-2.57-2-2.57a2.25,2.25,0,0,0-2.12,1.62,2.35,2.35,0,0,0-.11.74v5.24H92Z" transform="translate(-21 -20)"/><path d="M102.88,162.15a2.79,2.79,0,0,0,3,3,5.75,5.75,0,0,0,2.41-.45l.27,1.14a7.09,7.09,0,0,1-2.9.54,4,4,0,0,1-4.28-4.4c0-2.63,1.55-4.7,4.08-4.7,2.85,0,3.6,2.51,3.6,4.11a6,6,0,0,1,0,.74Zm4.64-1.14a2.25,2.25,0,0,0-2.19-2.57A2.62,2.62,0,0,0,102.9,161Z" transform="translate(-21 -20)"/><path d="M111.64,157.5l1.16,4.43c.25,1,.48,1.87.65,2.77h0c.2-.88.49-1.82.77-2.75l1.43-4.45H117l1.35,4.36c.32,1,.58,2,.77,2.84h.06a24.47,24.47,0,0,1,.66-2.82l1.25-4.38h1.56l-2.81,8.72h-1.44l-1.33-4.16a26.89,26.89,0,0,1-.77-2.87h0a27.31,27.31,0,0,1-.79,2.88l-1.41,4.15h-1.44L110,157.5Z" transform="translate(-21 -20)"/><path d="M132.9,166.22l-.12-1.1h-.06a3.24,3.24,0,0,1-2.66,1.29,2.48,2.48,0,0,1-2.67-2.5c0-2.11,1.88-3.26,5.24-3.24v-.18a1.79,1.79,0,0,0-2-2,4.43,4.43,0,0,0-2.27.65l-.36-1a5.41,5.41,0,0,1,2.87-.78c2.66,0,3.31,1.82,3.31,3.57v3.26a13.31,13.31,0,0,0,.14,2.09Zm-.23-4.45c-1.73,0-3.69.27-3.69,2a1.4,1.4,0,0,0,1.49,1.51,2.16,2.16,0,0,0,2.11-1.46,1.76,1.76,0,0,0,.09-.5Z" transform="translate(-21 -20)"/><path d="M136.75,159.86c0-.9,0-1.64-.07-2.36h1.41l.09,1.44h0a3.2,3.2,0,0,1,2.88-1.64c1.21,0,3.08.72,3.08,3.71v5.21h-1.58v-5c0-1.4-.52-2.57-2-2.57a2.25,2.25,0,0,0-2.12,1.62,2.1,2.1,0,0,0-.11.74v5.24h-1.59Z" transform="translate(-21 -20)"/><path d="M154.27,153.43V164c0,.78,0,1.66.07,2.26h-1.42l-.07-1.52h0a3.2,3.2,0,0,1-3,1.71c-2.11,0-3.73-1.78-3.73-4.43,0-2.9,1.79-4.68,3.91-4.68a2.91,2.91,0,0,1,2.63,1.34h0v-5.21Zm-1.58,7.62a2.56,2.56,0,0,0-.08-.67,2.32,2.32,0,0,0-2.28-1.84c-1.64,0-2.61,1.45-2.61,3.37s.86,3.22,2.57,3.22a2.37,2.37,0,0,0,2.32-1.89,2.44,2.44,0,0,0,.08-.68Z" transform="translate(-21 -20)"/><path d="M161.59,162.15a2.79,2.79,0,0,0,3,3,5.8,5.8,0,0,0,2.42-.45l.27,1.14a7.13,7.13,0,0,1-2.9.54,4.05,4.05,0,0,1-4.29-4.4c0-2.63,1.55-4.7,4.09-4.7,2.84,0,3.6,2.51,3.6,4.11,0,.32,0,.57-.05.74Zm4.65-1.14a2.25,2.25,0,0,0-2.2-2.57,2.62,2.62,0,0,0-2.43,2.57Z" transform="translate(-21 -20)"/><path d="M170.41,157.5l1.25,1.87c.32.49.59.94.88,1.43h.05c.29-.53.58-1,.87-1.44l1.22-1.86h1.71l-3,4.21,3.06,4.51h-1.8l-1.28-2c-.34-.5-.63-1-.93-1.51h0c-.29.52-.59,1-.92,1.51l-1.26,2h-1.74l3.09-4.45-2.95-4.27Z" transform="translate(-21 -20)"/><path d="M179.77,155.05a.93.93,0,0,1-1,1,.94.94,0,0,1-1-1,1,1,0,0,1,1-1A.93.93,0,0,1,179.77,155.05ZM178,166.22V157.5h1.58v8.72Z" transform="translate(-21 -20)"/><path d="M182,164.59a4.06,4.06,0,0,0,2.08.64c1.16,0,1.7-.58,1.7-1.3s-.45-1.17-1.62-1.6c-1.57-.56-2.31-1.43-2.31-2.47,0-1.4,1.14-2.56,3-2.56a4.34,4.34,0,0,1,2.14.54l-.4,1.16a3.33,3.33,0,0,0-1.78-.51c-.93,0-1.46.54-1.46,1.19s.53,1,1.66,1.48c1.51.57,2.29,1.33,2.29,2.62,0,1.53-1.19,2.62-3.26,2.62a5,5,0,0,1-2.45-.6Z" transform="translate(-21 -20)"/><path d="M191.26,155v2.5h2.27v1.21h-2.27v4.7c0,1.08.3,1.69,1.19,1.69a3.59,3.59,0,0,0,.91-.11l.08,1.19a3.84,3.84,0,0,1-1.41.22,2.2,2.2,0,0,1-1.71-.67,3.23,3.23,0,0,1-.61-2.27v-4.75h-1.35V157.5h1.35v-2.09Z" transform="translate(-21 -20)"/><path d="M197.07,155.05a1,1,0,0,1-2,0,1,1,0,0,1,1-1A.94.94,0,0,1,197.07,155.05Zm-1.76,11.17V157.5h1.58v8.72Z" transform="translate(-21 -20)"/><path d="M199.52,159.86c0-.9,0-1.64-.07-2.36h1.4l.09,1.44h0a3.2,3.2,0,0,1,2.88-1.64c1.2,0,3.08.72,3.08,3.71v5.21h-1.59v-5c0-1.4-.52-2.57-2-2.57a2.25,2.25,0,0,0-2.13,1.62,2.35,2.35,0,0,0-.11.74v5.24h-1.58Z" transform="translate(-21 -20)"/><path d="M217,157.5c0,.63-.07,1.33-.07,2.4V165c0,2-.4,3.22-1.25,4a4.58,4.58,0,0,1-3.17,1,5.58,5.58,0,0,1-2.89-.72l.39-1.21a4.94,4.94,0,0,0,2.56.69c1.62,0,2.81-.85,2.81-3.05v-1h0a3.1,3.1,0,0,1-2.77,1.46c-2.16,0-3.71-1.84-3.71-4.25,0-3,1.93-4.63,3.92-4.63a2.88,2.88,0,0,1,2.72,1.51h0l.07-1.31Zm-1.64,3.44a2.33,2.33,0,0,0-.09-.72,2.29,2.29,0,0,0-2.22-1.68c-1.51,0-2.59,1.28-2.59,3.3,0,1.71.87,3.13,2.58,3.13a2.31,2.31,0,0,0,2.19-1.62,2.72,2.72,0,0,0,.13-.84Z" transform="translate(-21 -20)"/><path d="M223.17,164.59a4.13,4.13,0,0,0,2.09.64c1.15,0,1.69-.58,1.69-1.3s-.45-1.17-1.62-1.6c-1.57-.56-2.3-1.43-2.3-2.47,0-1.4,1.13-2.56,3-2.56a4.35,4.35,0,0,1,2.15.54l-.4,1.16a3.33,3.33,0,0,0-1.78-.51c-.94,0-1.46.54-1.46,1.19s.52,1,1.66,1.48c1.51.57,2.28,1.33,2.28,2.62,0,1.53-1.19,2.62-3.26,2.62a5,5,0,0,1-2.45-.6Z" transform="translate(-21 -20)"/><path d="M235.34,166.22l-.13-1.1h-.05a3.25,3.25,0,0,1-2.66,1.29,2.48,2.48,0,0,1-2.67-2.5c0-2.11,1.87-3.26,5.24-3.24v-.18a1.8,1.8,0,0,0-2-2,4.4,4.4,0,0,0-2.27.65l-.36-1a5.4,5.4,0,0,1,2.86-.78c2.67,0,3.32,1.82,3.32,3.57v3.26a12.2,12.2,0,0,0,.14,2.09Zm-.23-4.45c-1.73,0-3.69.27-3.69,2a1.4,1.4,0,0,0,1.49,1.51,2.18,2.18,0,0,0,2.11-1.46,1.76,1.76,0,0,0,.09-.5Z" transform="translate(-21 -20)"/><path d="M239.19,159.86c0-.9,0-1.64-.07-2.36h1.38l.08,1.41h0a3,3,0,0,1,2.74-1.61,2.56,2.56,0,0,1,2.46,1.75h0a3.52,3.52,0,0,1,1-1.13,3,3,0,0,1,1.93-.62c1.15,0,2.86.76,2.86,3.78v5.14h-1.55v-4.94c0-1.67-.61-2.68-1.89-2.68a2.05,2.05,0,0,0-1.87,1.44,2.66,2.66,0,0,0-.13.79v5.39h-1.54V161c0-1.38-.62-2.39-1.82-2.39a2.18,2.18,0,0,0-2,1.58,2.24,2.24,0,0,0-.12.78v5.26h-1.55Z" transform="translate(-21 -20)"/><path d="M254.2,160.35c0-1.12,0-2-.07-2.85h1.42l.07,1.5h0a3.43,3.43,0,0,1,3.1-1.7c2.11,0,3.69,1.78,3.69,4.43,0,3.13-1.91,4.68-4,4.68a3,3,0,0,1-2.68-1.37h0v4.74H254.2Zm1.57,2.32a4.31,4.31,0,0,0,.07.65,2.44,2.44,0,0,0,2.38,1.85c1.67,0,2.65-1.37,2.65-3.37,0-1.74-.92-3.24-2.6-3.24a2.52,2.52,0,0,0-2.39,2,2.26,2.26,0,0,0-.11.64Z" transform="translate(-21 -20)"/><path d="M264.44,153.43H266v12.79h-1.59Z" transform="translate(-21 -20)"/><path d="M269.57,162.15a2.79,2.79,0,0,0,3,3,5.8,5.8,0,0,0,2.42-.45l.27,1.14a7.13,7.13,0,0,1-2.9.54,4.06,4.06,0,0,1-4.29-4.4c0-2.63,1.55-4.7,4.09-4.7,2.84,0,3.6,2.51,3.6,4.11,0,.32,0,.57-.05.74Zm4.65-1.14a2.25,2.25,0,0,0-2.2-2.57,2.62,2.62,0,0,0-2.43,2.57Z" transform="translate(-21 -20)"/><path d="M277.49,164.59a4.13,4.13,0,0,0,2.09.64c1.15,0,1.7-.58,1.7-1.3s-.45-1.17-1.63-1.6c-1.56-.56-2.3-1.43-2.3-2.47,0-1.4,1.13-2.56,3-2.56a4.34,4.34,0,0,1,2.14.54l-.4,1.16a3.33,3.33,0,0,0-1.78-.51c-.94,0-1.46.54-1.46,1.19s.52,1,1.66,1.48c1.51.57,2.29,1.33,2.29,2.62,0,1.53-1.19,2.62-3.26,2.62a5,5,0,0,1-2.45-.6Z" transform="translate(-21 -20)"/><path d="M102.85,198.37a7.76,7.76,0,0,1-3.21.58c-3.42,0-6-2.16-6-6.14a6,6,0,0,1,6.34-6.37,6.47,6.47,0,0,1,2.88.54l-.38,1.27a5.85,5.85,0,0,0-2.45-.5c-2.84,0-4.74,1.82-4.74,5,0,3,1.72,4.87,4.67,4.87a6.19,6.19,0,0,0,2.55-.5Z" transform="translate(-21 -20)"/><path d="M112.44,194.34A4.26,4.26,0,0,1,108.1,199a4.15,4.15,0,0,1-4.17-4.49c0-2.91,1.9-4.62,4.32-4.62S112.44,191.67,112.44,194.34Zm-6.91.09c0,1.91,1.1,3.35,2.65,3.35s2.64-1.42,2.64-3.39c0-1.47-.74-3.35-2.61-3.35S105.53,192.77,105.53,194.43Z" transform="translate(-21 -20)"/><path d="M114.44,192.77c0-1,0-1.91-.07-2.72h1.38l.06,1.72h.07a2.6,2.6,0,0,1,2.41-1.91,1.55,1.55,0,0,1,.45,0v1.49a2.76,2.76,0,0,0-.54-.05,2.21,2.21,0,0,0-2.12,2,3.88,3.88,0,0,0-.08.73v4.65h-1.56Z" transform="translate(-21 -20)"/><path d="M120.4,192.77c0-1,0-1.91-.08-2.72h1.39l.05,1.72h.08a2.6,2.6,0,0,1,2.41-1.91,1.55,1.55,0,0,1,.45,0v1.49a2.76,2.76,0,0,0-.54-.05,2.21,2.21,0,0,0-2.12,2,3.88,3.88,0,0,0-.08.73v4.65H120.4Z" transform="translate(-21 -20)"/><path d="M127,194.7a2.79,2.79,0,0,0,3,3,5.65,5.65,0,0,0,2.42-.45l.27,1.14a7.13,7.13,0,0,1-2.9.54,4,4,0,0,1-4.29-4.39c0-2.63,1.55-4.7,4.09-4.7,2.84,0,3.6,2.5,3.6,4.1,0,.33,0,.58,0,.74Zm4.65-1.13a2.26,2.26,0,0,0-2.2-2.58,2.63,2.63,0,0,0-2.43,2.58Z" transform="translate(-21 -20)"/><path d="M141.33,198.44a5.73,5.73,0,0,1-2.5.51,4.14,4.14,0,0,1-4.34-4.45,4.43,4.43,0,0,1,4.68-4.63,5.39,5.39,0,0,1,2.2.45l-.36,1.23a3.63,3.63,0,0,0-1.84-.42,3.29,3.29,0,0,0,0,6.56,4.6,4.6,0,0,0,1.94-.43Z" transform="translate(-21 -20)"/><path d="M145.33,187.55v2.5h2.27v1.21h-2.27V196c0,1.08.3,1.69,1.18,1.69a3.26,3.26,0,0,0,.92-.11l.07,1.19a3.74,3.74,0,0,1-1.4.22,2.2,2.2,0,0,1-1.71-.67,3.23,3.23,0,0,1-.61-2.27v-4.75h-1.35v-1.21h1.35V188Z" transform="translate(-21 -20)"/><path d="M153.35,198.77v-7.51h-1.22v-1.21h1.22v-.46a3.49,3.49,0,0,1,3.8-3.8,4.43,4.43,0,0,1,2.22.57l-.45,1.21a3.36,3.36,0,0,0-1.84-.5c-1.67,0-2.16,1.17-2.16,2.55v.43H160v8.72h-1.57v-7.51h-3.49v7.51Z" transform="translate(-21 -20)"/><path d="M162.61,186h1.58v12.78h-1.58Z" transform="translate(-21 -20)"/><path d="M167.74,194.7a2.78,2.78,0,0,0,3,3,5.65,5.65,0,0,0,2.42-.45l.27,1.14a7.09,7.09,0,0,1-2.9.54,4.05,4.05,0,0,1-4.29-4.39c0-2.63,1.55-4.7,4.09-4.7,2.85,0,3.6,2.5,3.6,4.1a5.67,5.67,0,0,1,0,.74Zm4.64-1.13a2.26,2.26,0,0,0-2.2-2.58,2.63,2.63,0,0,0-2.43,2.58Z" transform="translate(-21 -20)"/><path d="M181.6,187.55v2.5h2.26v1.21H181.6V196c0,1.08.3,1.69,1.18,1.69a3.26,3.26,0,0,0,.92-.11l.07,1.19a3.74,3.74,0,0,1-1.4.22,2.2,2.2,0,0,1-1.71-.67,3.23,3.23,0,0,1-.61-2.27v-4.75H178.7v-1.21h1.35V188Z" transform="translate(-21 -20)"/><path d="M186.38,190.05l1.91,5.15c.2.58.42,1.26.56,1.79h0c.16-.53.34-1.19.55-1.82l1.73-5.12h1.68l-2.38,6.22c-1.13,3-1.91,4.52-3,5.45a4.23,4.23,0,0,1-1.94,1l-.4-1.33a4.21,4.21,0,0,0,1.39-.78,4.79,4.79,0,0,0,1.33-1.76,1.3,1.3,0,0,0,.13-.38,1.51,1.51,0,0,0-.11-.42l-3.23-8Z" transform="translate(-21 -20)"/><path d="M194.28,192.9c0-1.12,0-2-.07-2.85h1.42l.08,1.5h0a3.44,3.44,0,0,1,3.1-1.69c2.11,0,3.69,1.78,3.69,4.43,0,3.13-1.91,4.68-4,4.68a3.06,3.06,0,0,1-2.68-1.37h0v4.73h-1.57Zm1.57,2.32a4.18,4.18,0,0,0,.07.65,2.45,2.45,0,0,0,2.38,1.85c1.67,0,2.65-1.36,2.65-3.36,0-1.75-.92-3.24-2.6-3.24a2.52,2.52,0,0,0-2.39,2,2.76,2.76,0,0,0-.11.65Z" transform="translate(-21 -20)"/><path d="M205.41,194.7a2.78,2.78,0,0,0,3,3,5.59,5.59,0,0,0,2.41-.45l.27,1.14a7.09,7.09,0,0,1-2.9.54,4,4,0,0,1-4.28-4.39c0-2.63,1.54-4.7,4.08-4.7,2.85,0,3.6,2.5,3.6,4.1a5.67,5.67,0,0,1-.05.74Zm4.64-1.13a2.25,2.25,0,0,0-2.19-2.58,2.62,2.62,0,0,0-2.43,2.58Z" transform="translate(-21 -20)"/><path d="M213.33,197.15a4.2,4.2,0,0,0,2.09.63c1.15,0,1.69-.58,1.69-1.3s-.45-1.17-1.62-1.6c-1.57-.56-2.31-1.42-2.31-2.47,0-1.4,1.14-2.55,3-2.55a4.31,4.31,0,0,1,2.14.54l-.39,1.15a3.38,3.38,0,0,0-1.79-.51c-.93,0-1.45.54-1.45,1.19s.52,1.05,1.65,1.48c1.52.58,2.29,1.33,2.29,2.63,0,1.53-1.19,2.61-3.26,2.61a5,5,0,0,1-2.45-.6Z" transform="translate(-21 -20)"/><path d="M224.65,198.77v-7.51h-1.22v-1.21h1.22v-.41a4.1,4.1,0,0,1,1-3,3,3,0,0,1,2.12-.81,3.56,3.56,0,0,1,1.35.25l-.21,1.22a2.55,2.55,0,0,0-1-.19c-1.35,0-1.69,1.18-1.69,2.52v.46h2.1v1.21h-2.1v7.51Z" transform="translate(-21 -20)"/><path d="M237.4,194.34a4.27,4.27,0,0,1-4.34,4.63,4.15,4.15,0,0,1-4.18-4.49,4.25,4.25,0,0,1,4.32-4.62C235.7,189.86,237.4,191.67,237.4,194.34Zm-6.92.09c0,1.91,1.1,3.35,2.65,3.35s2.65-1.42,2.65-3.39c0-1.47-.74-3.35-2.61-3.35S230.48,192.77,230.48,194.43Z" transform="translate(-21 -20)"/><path d="M239.39,192.77c0-1,0-1.91-.07-2.72h1.39l0,1.72h.07a2.61,2.61,0,0,1,2.42-1.91,1.59,1.59,0,0,1,.45,0v1.49a2.92,2.92,0,0,0-.54-.05,2.23,2.23,0,0,0-2.13,2,3.93,3.93,0,0,0-.07.73v4.65h-1.57Z" transform="translate(-21 -20)"/><path d="M250.86,187.61a1,1,0,0,1-2,0,1,1,0,0,1,1-1A.94.94,0,0,1,250.86,187.61Zm-1.77,11.16v-8.72h1.59v8.72Z" transform="translate(-21 -20)"/><path d="M253.31,192.41c0-.9,0-1.64-.08-2.36h1.39l.07,1.41h.06a3,3,0,0,1,2.73-1.6A2.58,2.58,0,0,1,260,191.6h0a3.63,3.63,0,0,1,1-1.13,2.94,2.94,0,0,1,1.92-.61c1.16,0,2.87.75,2.87,3.78v5.13H264.2v-4.93c0-1.68-.61-2.69-1.89-2.69a2.05,2.05,0,0,0-1.87,1.44,2.44,2.44,0,0,0-.13.8v5.38h-1.55v-5.22c0-1.39-.61-2.4-1.82-2.4a2.39,2.39,0,0,0-2.09,2.36v5.26h-1.54Z" transform="translate(-21 -20)"/><path d="M273.14,198.77l-.12-1.1H273a3.24,3.24,0,0,1-2.66,1.3,2.49,2.49,0,0,1-2.67-2.51c0-2.1,1.88-3.25,5.24-3.24V193a1.79,1.79,0,0,0-2-2,4.42,4.42,0,0,0-2.27.64l-.36-1a5.41,5.41,0,0,1,2.87-.77c2.66,0,3.31,1.81,3.31,3.56v3.26a13.22,13.22,0,0,0,.14,2.09Zm-.23-4.45c-1.73,0-3.69.27-3.69,2a1.4,1.4,0,0,0,1.49,1.52,2.16,2.16,0,0,0,2.11-1.46,1.76,1.76,0,0,0,.09-.51Z" transform="translate(-21 -20)"/><path d="M284.5,190.05c0,.63-.07,1.34-.07,2.4v5.06c0,2-.4,3.22-1.24,4a4.63,4.63,0,0,1-3.17,1,5.59,5.59,0,0,1-2.9-.72l.4-1.2a4.87,4.87,0,0,0,2.55.68c1.62,0,2.81-.85,2.81-3v-1h0a3.1,3.1,0,0,1-2.77,1.46c-2.16,0-3.71-1.83-3.71-4.25,0-2.95,1.93-4.62,3.93-4.62a2.9,2.9,0,0,1,2.72,1.51h0l.08-1.32Zm-1.64,3.44a2.33,2.33,0,0,0-.09-.72,2.27,2.27,0,0,0-2.21-1.67c-1.51,0-2.59,1.28-2.59,3.29,0,1.71.86,3.14,2.57,3.14a2.34,2.34,0,0,0,2.2-1.62,2.77,2.77,0,0,0,.12-.85Z" transform="translate(-21 -20)"/><path d="M287.94,194.7a2.78,2.78,0,0,0,3,3,5.59,5.59,0,0,0,2.41-.45l.27,1.14a7.09,7.09,0,0,1-2.9.54,4,4,0,0,1-4.28-4.39c0-2.63,1.54-4.7,4.08-4.7,2.85,0,3.6,2.5,3.6,4.1a5.67,5.67,0,0,1-.05.74Zm4.64-1.13a2.25,2.25,0,0,0-2.19-2.58,2.62,2.62,0,0,0-2.43,2.58Z" transform="translate(-21 -20)"/><path d="M94.48,220.37v-7.51H93.25v-1.21h1.23v-.46a3.49,3.49,0,0,1,3.8-3.8,4.39,4.39,0,0,1,2.21.57l-.45,1.21a3.34,3.34,0,0,0-1.84-.5c-1.67,0-2.16,1.17-2.16,2.55v.43h5.06v8.72H99.54v-7.51H96v7.51Z" transform="translate(-21 -20)"/><path d="M103.73,207.59h1.58v12.78h-1.58Z" transform="translate(-21 -20)"/><path d="M108.86,216.3a2.78,2.78,0,0,0,3,3,5.59,5.59,0,0,0,2.41-.45l.27,1.14a7.09,7.09,0,0,1-2.9.54,4,4,0,0,1-4.28-4.39c0-2.63,1.54-4.7,4.08-4.7,2.85,0,3.6,2.5,3.6,4.1a5.67,5.67,0,0,1,0,.74Zm4.64-1.13a2.25,2.25,0,0,0-2.19-2.58,2.62,2.62,0,0,0-2.43,2.58Z" transform="translate(-21 -20)"/><path d="M116.78,218.75a4.2,4.2,0,0,0,2.09.63c1.15,0,1.69-.58,1.69-1.3s-.45-1.17-1.62-1.6c-1.57-.56-2.31-1.42-2.31-2.47,0-1.4,1.14-2.55,3-2.55a4.31,4.31,0,0,1,2.14.54l-.39,1.15a3.35,3.35,0,0,0-1.79-.5c-.93,0-1.45.54-1.45,1.18s.52,1,1.65,1.48c1.52.58,2.29,1.33,2.29,2.63,0,1.53-1.19,2.61-3.26,2.61a5.09,5.09,0,0,1-2.45-.59Z" transform="translate(-21 -20)"/></g><g id="Layer_2" data-name="Layer 2"><g class="cls-1"><rect class="cls-5" x="398" width="360" height="250"/></g><rect class="cls-6" x="401" y="4" width="354" height="243"/><g class="cls-1"><circle class="cls-4" cx="445.95" cy="80.41" r="6.52"/><circle class="cls-4" cx="445.95" cy="130.53" r="6.52"/><circle class="cls-4" cx="445.95" cy="182.64" r="6.52"/></g><path d="M448.1,62.15V61l1.45-1.41c3.48-3.31,5.06-5.08,5.08-7.14a2.43,2.43,0,0,0-2.71-2.66A4.68,4.68,0,0,0,449,51l-.59-1.3a6,6,0,0,1,3.87-1.38,3.84,3.84,0,0,1,4.18,4c0,2.52-1.83,4.56-4.71,7.33l-1.09,1v0h6.13v1.53Z" transform="translate(-21 -20)"/><path d="M459,61.06a1.25,1.25,0,1,1,1.24,1.32A1.24,1.24,0,0,1,459,61.06Z" transform="translate(-21 -20)"/><path d="M472.29,55.18c0,4.64-1.72,7.2-4.75,7.2-2.66,0-4.47-2.49-4.51-7s2-7.09,4.74-7.09S472.29,50.84,472.29,55.18Zm-7.41.21c0,3.55,1.09,5.57,2.77,5.57,1.89,0,2.79-2.21,2.79-5.69s-.86-5.57-2.77-5.57C466.05,49.7,464.88,51.68,464.88,55.39Z" transform="translate(-21 -20)"/><path d="M474.14,61.06a1.25,1.25,0,1,1,1.24,1.32A1.24,1.24,0,0,1,474.14,61.06Z" transform="translate(-21 -20)"/><path d="M487.41,55.18c0,4.64-1.72,7.2-4.75,7.2-2.66,0-4.47-2.49-4.51-7s2-7.09,4.74-7.09S487.41,50.84,487.41,55.18Zm-7.41.21c0,3.55,1.09,5.57,2.77,5.57,1.89,0,2.79-2.21,2.79-5.69s-.86-5.57-2.77-5.57C481.17,49.7,480,51.68,480,55.39Z" transform="translate(-21 -20)"/><path d="M498.43,55.79v1.37h-5.18V55.79Z" transform="translate(-21 -20)"/><path d="M507.4,57.7l-1.47,4.45H504L508.85,48h2.2l4.83,14.15h-2l-1.51-4.45ZM512,56.27l-1.39-4.07c-.31-.92-.52-1.76-.73-2.58h0c-.21.84-.44,1.7-.72,2.56l-1.38,4.09Z" transform="translate(-21 -20)"/><path d="M526.15,59.38c0,1,0,2,.09,2.77H524.6l-.11-1.65h0a3.83,3.83,0,0,1-3.36,1.88c-1.59,0-3.5-.88-3.5-4.45V52h1.84v5.63c0,1.93.59,3.23,2.27,3.23a2.68,2.68,0,0,0,2.44-1.68,2.81,2.81,0,0,0,.16-.94V52h1.85Z" transform="translate(-21 -20)"/><path d="M538,52c0,.74-.08,1.56-.08,2.79v5.9c0,2.33-.46,3.76-1.45,4.64a5.34,5.34,0,0,1-3.69,1.22,6.52,6.52,0,0,1-3.38-.84l.46-1.4a5.72,5.72,0,0,0,3,.79c1.89,0,3.27-1,3.27-3.55V60.41h0a3.61,3.61,0,0,1-3.23,1.7c-2.52,0-4.33-2.14-4.33-5,0-3.45,2.25-5.4,4.58-5.4a3.37,3.37,0,0,1,3.17,1.76h0l.09-1.53Zm-1.91,4a2.77,2.77,0,0,0-.1-.84,2.66,2.66,0,0,0-2.58-1.95c-1.77,0-3,1.49-3,3.84,0,2,1,3.66,3,3.66a2.71,2.71,0,0,0,2.56-1.89,3.43,3.43,0,0,0,.14-1Z" transform="translate(-21 -20)"/><path d="M540.83,54.74c0-1.05,0-1.91-.08-2.75h1.62l.08,1.64h.06a3.5,3.5,0,0,1,3.19-1.87,3,3,0,0,1,2.88,2h0a4.32,4.32,0,0,1,1.14-1.33,3.47,3.47,0,0,1,2.24-.71c1.35,0,3.34.88,3.34,4.41v6h-1.8V56.4c0-1.95-.72-3.13-2.21-3.13A2.39,2.39,0,0,0,549.15,55a2.88,2.88,0,0,0-.15.93v6.27h-1.81V56.06c0-1.61-.71-2.79-2.12-2.79a2.52,2.52,0,0,0-2.28,1.85,2.43,2.43,0,0,0-.15.9v6.13h-1.81Z" transform="translate(-21 -20)"/><path d="M559.38,57.41a3.25,3.25,0,0,0,3.48,3.53,6.56,6.56,0,0,0,2.81-.53l.32,1.32a8.15,8.15,0,0,1-3.38.63c-3.13,0-5-2-5-5.12s1.81-5.48,4.77-5.48c3.32,0,4.2,2.92,4.2,4.79a5.34,5.34,0,0,1-.07.86Zm5.41-1.32c0-1.18-.48-3-2.56-3-1.87,0-2.69,1.73-2.83,3Z" transform="translate(-21 -20)"/><path d="M568.87,54.74c0-1.05,0-1.91-.09-2.75h1.64l.11,1.68h0a3.74,3.74,0,0,1,3.36-1.91c1.4,0,3.59.84,3.59,4.33v6.06h-1.85V56.3c0-1.64-.61-3-2.35-3a2.63,2.63,0,0,0-2.48,1.89,2.78,2.78,0,0,0-.13.86v6.11h-1.84Z" transform="translate(-21 -20)"/><path d="M582.66,49.07V52h2.65V53.4h-2.65v5.48c0,1.26.36,2,1.39,2a4.31,4.31,0,0,0,1.07-.12l.08,1.38a4.41,4.41,0,0,1-1.63.25,2.58,2.58,0,0,1-2-.77,3.8,3.8,0,0,1-.71-2.65V53.4h-1.58V52h1.58V49.56Z" transform="translate(-21 -20)"/><path d="M588.29,57.41a3.26,3.26,0,0,0,3.49,3.53,6.56,6.56,0,0,0,2.81-.53l.32,1.32a8.19,8.19,0,0,1-3.38.63c-3.13,0-5-2-5-5.12s1.8-5.48,4.76-5.48c3.32,0,4.2,2.92,4.2,4.79a7.27,7.27,0,0,1-.06.86Zm5.42-1.32c0-1.18-.48-3-2.56-3-1.87,0-2.69,1.73-2.84,3Z" transform="translate(-21 -20)"/><path d="M606.56,47.25V59.53c0,.9,0,1.93.08,2.62H605l-.09-1.76h0a3.77,3.77,0,0,1-3.47,2c-2.45,0-4.34-2.07-4.34-5.16,0-3.38,2.08-5.46,4.56-5.46a3.41,3.41,0,0,1,3.06,1.55h0V47.25Zm-1.85,8.88a3.44,3.44,0,0,0-.08-.78A2.72,2.72,0,0,0,602,53.21c-1.91,0-3,1.68-3,3.93,0,2,1,3.75,3,3.75a2.77,2.77,0,0,0,2.71-2.2,3.34,3.34,0,0,0,.08-.8Z" transform="translate(-21 -20)"/><path d="M626.07,55.94c-.11-2-.23-4.35-.21-6.11h-.07c-.48,1.66-1.07,3.42-1.78,5.37l-2.5,6.87h-1.38l-2.29-6.74c-.67-2-1.24-3.82-1.64-5.5h0c0,1.76-.15,4.14-.28,6.26l-.37,6.06h-1.75l1-14.15h2.33l2.42,6.85c.58,1.74,1.07,3.29,1.42,4.76H621c.35-1.42.86-3,1.49-4.76L625,48h2.33l.88,14.15h-1.78Z" transform="translate(-21 -20)"/><path d="M632.12,57.41a3.26,3.26,0,0,0,3.48,3.53,6.61,6.61,0,0,0,2.82-.53l.31,1.32a8.11,8.11,0,0,1-3.38.63c-3.13,0-5-2-5-5.12s1.81-5.48,4.77-5.48c3.32,0,4.2,2.92,4.2,4.79a7.27,7.27,0,0,1-.06.86Zm5.42-1.32c0-1.18-.49-3-2.57-3-1.87,0-2.68,1.73-2.83,3Z" transform="translate(-21 -20)"/><path d="M643.84,49.07V52h2.64V53.4h-2.64v5.48c0,1.26.35,2,1.38,2a4.31,4.31,0,0,0,1.07-.12l.09,1.38a4.51,4.51,0,0,1-1.64.25,2.58,2.58,0,0,1-2-.77,3.8,3.8,0,0,1-.71-2.65V53.4h-1.57V52H642V49.56Z" transform="translate(-21 -20)"/><path d="M654.19,62.15,654,60.87H654a3.79,3.79,0,0,1-3.11,1.51,2.89,2.89,0,0,1-3.11-2.91c0-2.46,2.19-3.8,6.11-3.78v-.21a2.09,2.09,0,0,0-2.31-2.35,5.06,5.06,0,0,0-2.64.75l-.42-1.22a6.37,6.37,0,0,1,3.34-.9c3.1,0,3.86,2.12,3.86,4.16v3.8a13.82,13.82,0,0,0,.17,2.43ZM653.92,57c-2,0-4.31.31-4.31,2.29A1.64,1.64,0,0,0,651.35,61a2.52,2.52,0,0,0,2.46-1.7,2,2,0,0,0,.11-.59Z" transform="translate(-21 -20)"/><path d="M667.46,47.25V59.53c0,.9,0,1.93.08,2.62h-1.66l-.08-1.76h0a3.77,3.77,0,0,1-3.47,2c-2.45,0-4.34-2.07-4.34-5.16,0-3.38,2.08-5.46,4.55-5.46a3.41,3.41,0,0,1,3.07,1.55h0V47.25Zm-1.85,8.88a3.44,3.44,0,0,0-.08-.78,2.73,2.73,0,0,0-2.67-2.14c-1.91,0-3,1.68-3,3.93,0,2,1,3.75,3,3.75a2.77,2.77,0,0,0,2.71-2.2,3.34,3.34,0,0,0,.08-.8Z" transform="translate(-21 -20)"/><path d="M676.15,62.15,676,60.87h-.07a3.75,3.75,0,0,1-3.1,1.51,2.89,2.89,0,0,1-3.11-2.91c0-2.46,2.18-3.8,6.11-3.78v-.21a2.09,2.09,0,0,0-2.31-2.35,5.1,5.1,0,0,0-2.65.75l-.42-1.22a6.37,6.37,0,0,1,3.34-.9c3.11,0,3.87,2.12,3.87,4.16v3.8a14.93,14.93,0,0,0,.16,2.43ZM675.88,57c-2,0-4.3.31-4.3,2.29A1.64,1.64,0,0,0,673.32,61a2.54,2.54,0,0,0,2.46-1.7,2,2,0,0,0,.1-.59Z" transform="translate(-21 -20)"/><path d="M682.79,49.07V52h2.65V53.4h-2.65v5.48c0,1.26.36,2,1.39,2a4.31,4.31,0,0,0,1.07-.12l.08,1.38a4.47,4.47,0,0,1-1.64.25,2.56,2.56,0,0,1-2-.77,3.75,3.75,0,0,1-.72-2.65V53.4h-1.57V52H681V49.56Z" transform="translate(-21 -20)"/><path d="M693.14,62.15,693,60.87h-.07a3.77,3.77,0,0,1-3.11,1.51,2.89,2.89,0,0,1-3.1-2.91c0-2.46,2.18-3.8,6.11-3.78v-.21a2.09,2.09,0,0,0-2.31-2.35,5.1,5.1,0,0,0-2.65.75l-.42-1.22a6.37,6.37,0,0,1,3.34-.9c3.11,0,3.86,2.12,3.86,4.16v3.8a14.85,14.85,0,0,0,.17,2.43ZM692.87,57c-2,0-4.31.31-4.31,2.29A1.64,1.64,0,0,0,690.31,61a2.52,2.52,0,0,0,2.45-1.7,1.76,1.76,0,0,0,.11-.59Z" transform="translate(-21 -20)"/><path d="M494.33,102.64l-1.26,3.82h-1.62l4.12-12.13h1.89l4.15,12.13h-1.68l-1.3-3.82Zm4-1.22-1.19-3.49c-.27-.8-.45-1.52-.63-2.22h0c-.18.72-.38,1.46-.62,2.2l-1.18,3.51Z" transform="translate(-21 -20)"/><path d="M510.64,93.68v10.53c0,.77,0,1.66.07,2.25h-1.42l-.07-1.51h0a3.22,3.22,0,0,1-3,1.71c-2.1,0-3.73-1.78-3.73-4.43,0-2.9,1.79-4.68,3.91-4.68A2.93,2.93,0,0,1,509,98.88h0v-5.2Zm-1.58,7.61a2.53,2.53,0,0,0-.08-.66,2.32,2.32,0,0,0-2.28-1.84c-1.64,0-2.61,1.44-2.61,3.37,0,1.76.86,3.22,2.57,3.22a2.37,2.37,0,0,0,2.32-1.89,2.49,2.49,0,0,0,.08-.68Z" transform="translate(-21 -20)"/><path d="M520.79,93.68v10.53c0,.77,0,1.66.08,2.25h-1.43l-.07-1.51h0a3.21,3.21,0,0,1-3,1.71c-2.1,0-3.72-1.78-3.72-4.43,0-2.9,1.78-4.68,3.9-4.68a2.9,2.9,0,0,1,2.63,1.33h0v-5.2Zm-1.58,7.61a3,3,0,0,0-.07-.66,2.34,2.34,0,0,0-2.29-1.84c-1.64,0-2.61,1.44-2.61,3.37,0,1.76.86,3.22,2.57,3.22a2.38,2.38,0,0,0,2.33-1.89,3,3,0,0,0,.07-.68Z" transform="translate(-21 -20)"/><path d="M529.14,95.24v2.51h2.27V99h-2.27v4.7c0,1.08.31,1.7,1.19,1.7a3.68,3.68,0,0,0,.92-.11l.07,1.19a4,4,0,0,1-1.4.21,2.18,2.18,0,0,1-1.71-.66,3.25,3.25,0,0,1-.62-2.27V99h-1.35v-1.2h1.35V95.66Z" transform="translate(-21 -20)"/><path d="M533.19,93.68h1.59v5.44h0A2.92,2.92,0,0,1,536,98a3.25,3.25,0,0,1,1.62-.45c1.17,0,3,.72,3,3.73v5.18H539v-5c0-1.41-.53-2.6-2-2.6a2.28,2.28,0,0,0-2.13,1.59,1.9,1.9,0,0,0-.1.75v5.26h-1.59Z" transform="translate(-21 -20)"/><path d="M543.18,100.47c0-1,0-1.91-.07-2.72h1.39l0,1.71h.07A2.62,2.62,0,0,1,547,97.55a2.14,2.14,0,0,1,.45,0v1.5a2.17,2.17,0,0,0-2.67,2,5.17,5.17,0,0,0-.07.74v4.64h-1.57Z" transform="translate(-21 -20)"/><path d="M549.77,102.39a2.8,2.8,0,0,0,3,3,5.75,5.75,0,0,0,2.41-.45l.27,1.13a7.09,7.09,0,0,1-2.9.54,4,4,0,0,1-4.28-4.39c0-2.63,1.55-4.7,4.09-4.7,2.84,0,3.6,2.5,3.6,4.1a5.31,5.31,0,0,1-.06.74Zm4.65-1.13a2.27,2.27,0,0,0-2.2-2.58,2.63,2.63,0,0,0-2.43,2.58Z" transform="translate(-21 -20)"/><path d="M558.79,102.39a2.79,2.79,0,0,0,3,3,5.75,5.75,0,0,0,2.41-.45l.27,1.13a7.09,7.09,0,0,1-2.9.54,4,4,0,0,1-4.28-4.39c0-2.63,1.54-4.7,4.08-4.7,2.85,0,3.6,2.5,3.6,4.1a5.67,5.67,0,0,1-.05.74Zm4.64-1.13a2.25,2.25,0,0,0-2.19-2.58,2.62,2.62,0,0,0-2.43,2.58Z" transform="translate(-21 -20)"/><path d="M570.74,100.11c0-.9,0-1.64-.07-2.36h1.4l.09,1.44h0a3.2,3.2,0,0,1,2.88-1.64c1.21,0,3.08.72,3.08,3.71v5.2h-1.59v-5c0-1.41-.52-2.58-2-2.58a2.25,2.25,0,0,0-2.13,1.62,2.35,2.35,0,0,0-.11.74v5.24h-1.58Z" transform="translate(-21 -20)"/><path d="M581.61,102.39a2.8,2.8,0,0,0,3,3A5.75,5.75,0,0,0,587,105l.27,1.13a7.09,7.09,0,0,1-2.9.54,4,4,0,0,1-4.28-4.39c0-2.63,1.55-4.7,4.09-4.7,2.84,0,3.6,2.5,3.6,4.1a5.31,5.31,0,0,1-.06.74Zm4.65-1.13a2.26,2.26,0,0,0-2.2-2.58,2.63,2.63,0,0,0-2.43,2.58Z" transform="translate(-21 -20)"/><path d="M590.38,97.75l1.15,4.43c.25,1,.49,1.87.65,2.77h.05c.2-.88.49-1.82.78-2.76l1.42-4.44h1.33l1.35,4.35c.33,1.05.58,2,.77,2.85h.06a25.27,25.27,0,0,1,.67-2.83l1.24-4.37h1.56l-2.8,8.71h-1.44l-1.34-4.16a28.54,28.54,0,0,1-.77-2.86h0a24.21,24.21,0,0,1-.79,2.88l-1.4,4.14h-1.44l-2.63-8.71Z" transform="translate(-21 -20)"/><path d="M606.59,104.84a4.13,4.13,0,0,0,2.09.63c1.16,0,1.7-.57,1.7-1.3s-.45-1.17-1.62-1.6c-1.57-.56-2.31-1.42-2.31-2.46,0-1.41,1.13-2.56,3-2.56a4.34,4.34,0,0,1,2.14.54l-.4,1.15a3.44,3.44,0,0,0-1.78-.5c-.93,0-1.46.54-1.46,1.19s.53,1,1.66,1.47c1.51.58,2.29,1.33,2.29,2.63,0,1.53-1.19,2.61-3.26,2.61a5,5,0,0,1-2.45-.59Z" transform="translate(-21 -20)"/><path d="M614.82,102.39a2.8,2.8,0,0,0,3,3,5.75,5.75,0,0,0,2.41-.45l.27,1.13a7.09,7.09,0,0,1-2.9.54,4,4,0,0,1-4.28-4.39c0-2.63,1.55-4.7,4.09-4.7,2.84,0,3.6,2.5,3.6,4.1a5.31,5.31,0,0,1-.06.74Zm4.65-1.13a2.27,2.27,0,0,0-2.2-2.58,2.63,2.63,0,0,0-2.43,2.58Z" transform="translate(-21 -20)"/><path d="M627.78,106.46l-.12-1.1h-.06a3.22,3.22,0,0,1-2.66,1.3,2.48,2.48,0,0,1-2.67-2.5c0-2.11,1.87-3.26,5.24-3.24v-.18a1.8,1.8,0,0,0-2-2,4.33,4.33,0,0,0-2.27.65l-.36-1.05a5.41,5.41,0,0,1,2.87-.77c2.66,0,3.31,1.82,3.31,3.56v3.26a12.06,12.06,0,0,0,.14,2.09Zm-.23-4.45c-1.73,0-3.69.27-3.69,2a1.4,1.4,0,0,0,1.49,1.51,2.16,2.16,0,0,0,2.11-1.46,1.76,1.76,0,0,0,.09-.5Z" transform="translate(-21 -20)"/><path d="M631.63,100.47c0-1,0-1.91-.07-2.72H633l0,1.71h.07a2.62,2.62,0,0,1,2.42-1.91,2.06,2.06,0,0,1,.45,0v1.5a2.17,2.17,0,0,0-2.67,2,5.17,5.17,0,0,0-.07.74v4.64h-1.57Z" transform="translate(-21 -20)"/><path d="M643.55,106.14a5.91,5.91,0,0,1-2.5.5,4.14,4.14,0,0,1-4.34-4.45,4.42,4.42,0,0,1,4.68-4.62,5.27,5.27,0,0,1,2.2.45l-.36,1.22a3.78,3.78,0,0,0-1.84-.41,3.28,3.28,0,0,0,0,6.55,4.45,4.45,0,0,0,1.94-.43Z" transform="translate(-21 -20)"/><path d="M645.4,93.68H647v5.44h0A3,3,0,0,1,648.16,98a3.25,3.25,0,0,1,1.62-.45c1.17,0,3,.72,3,3.73v5.18h-1.58v-5c0-1.41-.53-2.6-2-2.6a2.26,2.26,0,0,0-2.12,1.59,1.88,1.88,0,0,0-.11.75v5.26H645.4Z" transform="translate(-21 -20)"/><path d="M660.22,106.46l-.13-1.1H660a3.24,3.24,0,0,1-2.67,1.3,2.48,2.48,0,0,1-2.66-2.5c0-2.11,1.87-3.26,5.24-3.24v-.18a1.8,1.8,0,0,0-2-2,4.31,4.31,0,0,0-2.27.65l-.36-1.05a5.38,5.38,0,0,1,2.86-.77c2.67,0,3.31,1.82,3.31,3.56v3.26a12,12,0,0,0,.15,2.09ZM660,102c-1.72,0-3.69.27-3.69,2a1.41,1.41,0,0,0,1.5,1.51,2.16,2.16,0,0,0,2.1-1.46,1.47,1.47,0,0,0,.09-.5Z" transform="translate(-21 -20)"/><path d="M664,106.46c0-.59.07-1.48.07-2.25V93.68h1.56v5.47h0a3.25,3.25,0,0,1,3-1.6c2.16,0,3.69,1.8,3.67,4.45,0,3.11-2,4.66-3.9,4.66a3.12,3.12,0,0,1-2.92-1.64h0l-.08,1.44Zm1.63-3.49a2.61,2.61,0,0,0,.08.57,2.44,2.44,0,0,0,2.37,1.86c1.66,0,2.65-1.35,2.65-3.35,0-1.75-.9-3.24-2.59-3.24a2.54,2.54,0,0,0-2.42,1.94,3.64,3.64,0,0,0-.09.65Z" transform="translate(-21 -20)"/><path d="M674.31,93.68h1.58v12.78h-1.58Z" transform="translate(-21 -20)"/><path d="M679.44,102.39a2.8,2.8,0,0,0,3,3,5.75,5.75,0,0,0,2.41-.45l.27,1.13a7.09,7.09,0,0,1-2.9.54,4,4,0,0,1-4.28-4.39c0-2.63,1.55-4.7,4.08-4.7,2.85,0,3.61,2.5,3.61,4.1a5.31,5.31,0,0,1-.06.74Zm4.64-1.13a2.25,2.25,0,0,0-2.19-2.58,2.63,2.63,0,0,0-2.43,2.58Z" transform="translate(-21 -20)"/><path d="M691.55,106.46V99h-1.22v-1.2h1.22v-.47a3.49,3.49,0,0,1,3.8-3.8,4.32,4.32,0,0,1,2.22.58l-.45,1.2a3.36,3.36,0,0,0-1.84-.5c-1.67,0-2.16,1.17-2.16,2.55v.44h5.06v8.71h-1.57V99h-3.49v7.51Z" transform="translate(-21 -20)"/><path d="M701.69,102.39a2.79,2.79,0,0,0,3,3,5.75,5.75,0,0,0,2.41-.45l.27,1.13a7.09,7.09,0,0,1-2.9.54,4,4,0,0,1-4.28-4.39c0-2.63,1.54-4.7,4.08-4.7,2.85,0,3.6,2.5,3.6,4.1a5.67,5.67,0,0,1-.05.74Zm4.64-1.13a2.25,2.25,0,0,0-2.19-2.58,2.62,2.62,0,0,0-2.43,2.58Z" transform="translate(-21 -20)"/><path d="M709.82,93.68h1.59v12.78h-1.59Z" transform="translate(-21 -20)"/><path d="M721.6,93.68v10.53c0,.77,0,1.66.07,2.25h-1.42l-.08-1.51h0a3.23,3.23,0,0,1-3,1.71c-2.11,0-3.73-1.78-3.73-4.43,0-2.9,1.78-4.68,3.91-4.68A2.93,2.93,0,0,1,720,98.88h0v-5.2ZM720,101.29a2.52,2.52,0,0,0-.07-.66,2.33,2.33,0,0,0-2.29-1.84c-1.63,0-2.61,1.44-2.61,3.37,0,1.76.87,3.22,2.58,3.22a2.38,2.38,0,0,0,2.32-1.89,2.49,2.49,0,0,0,.07-.68Z" transform="translate(-21 -20)"/><path d="M724,104.84a4.1,4.1,0,0,0,2.09.63c1.15,0,1.69-.57,1.69-1.3s-.45-1.17-1.62-1.6c-1.57-.56-2.31-1.42-2.31-2.46,0-1.41,1.14-2.56,3-2.56a4.31,4.31,0,0,1,2.14.54l-.39,1.15a3.51,3.51,0,0,0-1.79-.5c-.93,0-1.45.54-1.45,1.19s.52,1,1.65,1.47c1.51.58,2.29,1.33,2.29,2.63,0,1.53-1.19,2.61-3.26,2.61a5,5,0,0,1-2.45-.59Z" transform="translate(-21 -20)"/><path d="M492,153.8l-1.26,3.82h-1.62l4.13-12.14h1.89l4.14,12.14h-1.68l-1.29-3.82Zm4-1.23-1.19-3.49c-.27-.79-.45-1.51-.63-2.21h0c-.18.72-.38,1.45-.61,2.19l-1.19,3.51Z" transform="translate(-21 -20)"/><path d="M501,151.26c0-.9,0-1.64-.07-2.36h1.4l.09,1.44h0a3.2,3.2,0,0,1,2.88-1.64c1.2,0,3.08.72,3.08,3.71v5.21H506.8v-5c0-1.4-.52-2.57-2-2.57a2.25,2.25,0,0,0-2.13,1.62,2.35,2.35,0,0,0-.11.74v5.24H501Z" transform="translate(-21 -20)"/><path d="M511,151.26c0-.9,0-1.64-.07-2.36h1.4l.09,1.44h0a3.2,3.2,0,0,1,2.88-1.64c1.2,0,3.08.72,3.08,3.71v5.21h-1.59v-5c0-1.4-.52-2.57-2-2.57a2.25,2.25,0,0,0-2.13,1.62,2.35,2.35,0,0,0-.11.74v5.24H511Z" transform="translate(-21 -20)"/><path d="M528.83,153.19a4.25,4.25,0,0,1-4.33,4.62,4.14,4.14,0,0,1-4.18-4.48c0-2.92,1.91-4.63,4.32-4.63S528.83,150.52,528.83,153.19Zm-6.91.09c0,1.9,1.1,3.34,2.65,3.34s2.64-1.42,2.64-3.38c0-1.48-.73-3.35-2.61-3.35S521.92,151.62,521.92,153.28Z" transform="translate(-21 -20)"/><path d="M532.74,146.4v2.5H535v1.21h-2.27v4.7c0,1.08.3,1.69,1.19,1.69a3.75,3.75,0,0,0,.92-.11l.07,1.19a3.84,3.84,0,0,1-1.41.22,2.22,2.22,0,0,1-1.71-.67,3.23,3.23,0,0,1-.61-2.27v-4.75h-1.35V148.9h1.35v-2.09Z" transform="translate(-21 -20)"/><path d="M541.61,157.62l-.12-1.1h-.06a3.24,3.24,0,0,1-2.66,1.29,2.48,2.48,0,0,1-2.67-2.5c0-2.11,1.88-3.26,5.24-3.24v-.18a1.79,1.79,0,0,0-2-2,4.33,4.33,0,0,0-2.27.65l-.36-1a5.44,5.44,0,0,1,2.87-.78c2.66,0,3.31,1.82,3.31,3.57v3.26a13.31,13.31,0,0,0,.14,2.09Zm-.23-4.45c-1.73,0-3.69.27-3.69,2a1.4,1.4,0,0,0,1.49,1.51,2.16,2.16,0,0,0,2.11-1.46,1.76,1.76,0,0,0,.09-.5Z" transform="translate(-21 -20)"/><path d="M547.3,146.4v2.5h2.27v1.21H547.3v4.7c0,1.08.31,1.69,1.19,1.69a3.75,3.75,0,0,0,.92-.11l.07,1.19a3.78,3.78,0,0,1-1.4.22,2.19,2.19,0,0,1-1.71-.67,3.18,3.18,0,0,1-.62-2.27v-4.75H544.4V148.9h1.35v-2.09Z" transform="translate(-21 -20)"/><path d="M552.12,153.55a2.79,2.79,0,0,0,3,3,5.8,5.8,0,0,0,2.42-.45l.27,1.13a6.93,6.93,0,0,1-2.9.55,4.05,4.05,0,0,1-4.29-4.4c0-2.63,1.55-4.7,4.09-4.7,2.84,0,3.6,2.51,3.6,4.11,0,.32,0,.57,0,.74Zm4.65-1.14a2.25,2.25,0,0,0-2.2-2.57,2.62,2.62,0,0,0-2.43,2.57Z" transform="translate(-21 -20)"/><path d="M564.24,157.62v-7.51H563V148.9h1.23v-.47a3.5,3.5,0,0,1,3.8-3.8,4.38,4.38,0,0,1,2.21.58l-.45,1.21a3.33,3.33,0,0,0-1.84-.51c-1.67,0-2.16,1.17-2.16,2.56v.43h5.06v8.72H569.3v-7.51h-3.5v7.51Z" transform="translate(-21 -20)"/><path d="M573.49,144.83h1.58v12.79h-1.58Z" transform="translate(-21 -20)"/><path d="M578.62,153.55a2.79,2.79,0,0,0,3,3,5.75,5.75,0,0,0,2.41-.45l.27,1.13a6.9,6.9,0,0,1-2.9.55,4,4,0,0,1-4.28-4.4c0-2.63,1.55-4.7,4.09-4.7,2.84,0,3.6,2.51,3.6,4.11a5.61,5.61,0,0,1-.06.74Zm4.65-1.14a2.26,2.26,0,0,0-2.2-2.57,2.62,2.62,0,0,0-2.43,2.57Z" transform="translate(-21 -20)"/><path d="M586.54,156a4.13,4.13,0,0,0,2.09.63c1.15,0,1.69-.57,1.69-1.29s-.45-1.17-1.62-1.6c-1.57-.56-2.3-1.43-2.3-2.47,0-1.41,1.13-2.56,3-2.56a4.28,4.28,0,0,1,2.14.54l-.39,1.16a3.33,3.33,0,0,0-1.78-.51c-.94,0-1.46.54-1.46,1.19s.52,1,1.65,1.48c1.52.57,2.29,1.33,2.29,2.62,0,1.53-1.19,2.62-3.26,2.62a5,5,0,0,1-2.45-.6Z" transform="translate(-21 -20)"/><path d="M598.33,148.9l1.15,4.43c.25,1,.49,1.87.65,2.77h0c.2-.88.49-1.82.78-2.75l1.42-4.45h1.33l1.35,4.36c.33,1,.58,2,.78,2.84h0a26.94,26.94,0,0,1,.67-2.82l1.24-4.38h1.57l-2.81,8.72h-1.44l-1.33-4.16a29.51,29.51,0,0,1-.78-2.87h0a23.2,23.2,0,0,1-.79,2.88l-1.4,4.15h-1.44l-2.63-8.72Z" transform="translate(-21 -20)"/><path d="M612.71,146.45a1,1,0,0,1-2,0,1,1,0,0,1,1-1A.94.94,0,0,1,612.71,146.45ZM611,157.62V148.9h1.58v8.72Z" transform="translate(-21 -20)"/><path d="M617.07,146.4v2.5h2.27v1.21h-2.27v4.7c0,1.08.3,1.69,1.19,1.69a3.59,3.59,0,0,0,.91-.11l.08,1.19a3.84,3.84,0,0,1-1.41.22,2.2,2.2,0,0,1-1.71-.67,3.23,3.23,0,0,1-.61-2.27v-4.75h-1.35V148.9h1.35v-2.09Z" transform="translate(-21 -20)"/><path d="M621.12,144.83h1.58v5.44h0a3,3,0,0,1,1.13-1.12,3.28,3.28,0,0,1,1.62-.45c1.17,0,3,.72,3,3.73v5.19H627v-5c0-1.4-.52-2.59-2-2.59a2.28,2.28,0,0,0-2.12,1.58,1.94,1.94,0,0,0-.11.76v5.26h-1.58Z" transform="translate(-21 -20)"/><path d="M634.71,156a4.06,4.06,0,0,0,2.08.63c1.16,0,1.7-.57,1.7-1.29s-.45-1.17-1.62-1.6c-1.57-.56-2.31-1.43-2.31-2.47,0-1.41,1.14-2.56,3-2.56a4.31,4.31,0,0,1,2.14.54l-.39,1.16a3.41,3.41,0,0,0-1.79-.51c-.93,0-1.45.54-1.45,1.19s.52,1,1.65,1.48c1.51.57,2.29,1.33,2.29,2.62,0,1.53-1.19,2.62-3.26,2.62a5,5,0,0,1-2.45-.6Z" transform="translate(-21 -20)"/><path d="M649.94,153.19a4.26,4.26,0,0,1-4.34,4.62,4.14,4.14,0,0,1-4.18-4.48c0-2.92,1.91-4.63,4.32-4.63S649.94,150.52,649.94,153.19Zm-6.92.09c0,1.9,1.1,3.34,2.65,3.34s2.65-1.42,2.65-3.38c0-1.48-.74-3.35-2.61-3.35S643,151.62,643,153.28Z" transform="translate(-21 -20)"/><path d="M659.22,155.24c0,.9,0,1.69.08,2.38h-1.41l-.09-1.43h0a3.28,3.28,0,0,1-2.88,1.62c-1.37,0-3-.75-3-3.81v-5.1h1.58v4.83c0,1.65.51,2.77,1.95,2.77a2.3,2.3,0,0,0,2.09-1.44,2.33,2.33,0,0,0,.14-.81V148.9h1.58Z" transform="translate(-21 -20)"/><path d="M661.85,151.62c0-1,0-1.91-.07-2.72h1.39l.05,1.71h.07a2.62,2.62,0,0,1,2.41-1.91,1.53,1.53,0,0,1,.45.06v1.49a2.16,2.16,0,0,0-.54-.05,2.22,2.22,0,0,0-2.12,2,4.14,4.14,0,0,0-.07.74v4.65h-1.57Z" transform="translate(-21 -20)"/><path d="M673.77,157.29a5.77,5.77,0,0,1-2.5.51,4.14,4.14,0,0,1-4.34-4.45,4.43,4.43,0,0,1,4.68-4.63,5.21,5.21,0,0,1,2.19.45l-.36,1.23a3.58,3.58,0,0,0-1.83-.42,3.29,3.29,0,0,0-.06,6.56,4.49,4.49,0,0,0,2-.44Z" transform="translate(-21 -20)"/><path d="M676.39,153.55a2.79,2.79,0,0,0,3,3,5.8,5.8,0,0,0,2.42-.45l.27,1.13a6.93,6.93,0,0,1-2.9.55,4.06,4.06,0,0,1-4.29-4.4c0-2.63,1.55-4.7,4.09-4.7,2.84,0,3.6,2.51,3.6,4.11a6,6,0,0,1-.05.74Zm4.65-1.14a2.25,2.25,0,0,0-2.2-2.57,2.62,2.62,0,0,0-2.43,2.57Z" transform="translate(-21 -20)"/><path d="M695.87,144.83v10.53c0,.78,0,1.66.08,2.26h-1.43l-.07-1.52h0a3.19,3.19,0,0,1-3,1.71c-2.1,0-3.72-1.78-3.72-4.43,0-2.89,1.78-4.68,3.9-4.68a2.89,2.89,0,0,1,2.63,1.34h0v-5.21Zm-1.58,7.62a3.05,3.05,0,0,0-.07-.67,2.34,2.34,0,0,0-2.29-1.84c-1.64,0-2.61,1.45-2.61,3.37,0,1.77.86,3.23,2.57,3.23a2.39,2.39,0,0,0,2.33-1.9,2.9,2.9,0,0,0,.07-.68Z" transform="translate(-21 -20)"/><path d="M703.32,157.62l-.12-1.1h-.06a3.24,3.24,0,0,1-2.66,1.29,2.48,2.48,0,0,1-2.67-2.5c0-2.11,1.88-3.26,5.24-3.24v-.18a1.79,1.79,0,0,0-2-2,4.33,4.33,0,0,0-2.27.65l-.36-1a5.41,5.41,0,0,1,2.87-.78c2.66,0,3.31,1.82,3.31,3.57v3.26a13.31,13.31,0,0,0,.14,2.09Zm-.23-4.45c-1.73,0-3.69.27-3.69,2a1.4,1.4,0,0,0,1.49,1.51,2.16,2.16,0,0,0,2.11-1.46,1.76,1.76,0,0,0,.09-.5Z" transform="translate(-21 -20)"/><path d="M709,146.4v2.5h2.27v1.21H709v4.7c0,1.08.31,1.69,1.19,1.69a3.75,3.75,0,0,0,.92-.11l.07,1.19a3.78,3.78,0,0,1-1.4.22,2.19,2.19,0,0,1-1.71-.67,3.18,3.18,0,0,1-.62-2.27v-4.75h-1.35V148.9h1.35v-2.09Z" transform="translate(-21 -20)"/><path d="M717.89,157.62l-.13-1.1h0a3.27,3.27,0,0,1-2.67,1.29,2.48,2.48,0,0,1-2.66-2.5c0-2.11,1.87-3.26,5.24-3.24v-.18a1.8,1.8,0,0,0-2-2,4.3,4.3,0,0,0-2.26.65l-.36-1a5.38,5.38,0,0,1,2.86-.78c2.66,0,3.31,1.82,3.31,3.57v3.26a12.14,12.14,0,0,0,.15,2.09Zm-.24-4.45c-1.73,0-3.69.27-3.69,2a1.4,1.4,0,0,0,1.5,1.51,2.16,2.16,0,0,0,2.1-1.46,1.47,1.47,0,0,0,.09-.5Z" transform="translate(-21 -20)"/><path d="M491.37,196.8a15.55,15.55,0,0,1,3-.26,5,5,0,0,1,3.51,1,3,3,0,0,1,.95,2.31,3.2,3.2,0,0,1-2.29,3.1V203a3,3,0,0,1,1.79,2.45,19.23,19.23,0,0,0,.93,3.33h-1.62a15.42,15.42,0,0,1-.81-2.9c-.36-1.67-1-2.3-2.43-2.36h-1.47v5.26h-1.57Zm1.57,5.52h1.6c1.67,0,2.73-.92,2.73-2.3,0-1.57-1.13-2.25-2.79-2.27a6.56,6.56,0,0,0-1.54.14Z" transform="translate(-21 -20)"/><path d="M502,204.7a2.79,2.79,0,0,0,3,3,5.56,5.56,0,0,0,2.41-.45l.27,1.14a7,7,0,0,1-2.89.54,4,4,0,0,1-4.29-4.39c0-2.63,1.55-4.7,4.09-4.7,2.84,0,3.6,2.5,3.6,4.1a5.31,5.31,0,0,1-.06.74Zm4.65-1.13a2.26,2.26,0,0,0-2.2-2.58,2.63,2.63,0,0,0-2.43,2.58Z" transform="translate(-21 -20)"/><path d="M510.09,202.41c0-.9,0-1.64-.07-2.36h1.38l.07,1.41h.06a3,3,0,0,1,2.74-1.6,2.58,2.58,0,0,1,2.46,1.74h0a3.63,3.63,0,0,1,1-1.13,3,3,0,0,1,1.93-.61c1.15,0,2.86.75,2.86,3.78v5.13H521v-4.93c0-1.68-.61-2.69-1.89-2.69a2.05,2.05,0,0,0-1.87,1.44,2.73,2.73,0,0,0-.13.8v5.38h-1.55v-5.22c0-1.39-.61-2.4-1.81-2.4a2.17,2.17,0,0,0-2,1.59,2.15,2.15,0,0,0-.12.77v5.26h-1.55Z" transform="translate(-21 -20)"/><path d="M533,204.34a4.27,4.27,0,0,1-4.34,4.63,4.15,4.15,0,0,1-4.18-4.49,4.25,4.25,0,0,1,4.32-4.62C531.29,199.86,533,201.67,533,204.34Zm-6.92.09c0,1.91,1.1,3.35,2.65,3.35s2.65-1.42,2.65-3.39c0-1.47-.74-3.35-2.62-3.35S526.07,202.77,526.07,204.43Z" transform="translate(-21 -20)"/><path d="M535.47,200.05l1.71,4.9a21.68,21.68,0,0,1,.7,2.23h.06c.19-.72.44-1.44.73-2.23l1.7-4.9H542l-3.42,8.72h-1.51l-3.31-8.72Z" transform="translate(-21 -20)"/><path d="M544.22,204.7a2.78,2.78,0,0,0,3,3,5.63,5.63,0,0,0,2.41-.45l.27,1.14a7.09,7.09,0,0,1-2.9.54,4.05,4.05,0,0,1-4.29-4.39c0-2.63,1.55-4.7,4.09-4.7,2.85,0,3.6,2.5,3.6,4.1a5.67,5.67,0,0,1,0,.74Zm4.64-1.13a2.25,2.25,0,0,0-2.19-2.58,2.64,2.64,0,0,0-2.44,2.58Z" transform="translate(-21 -20)"/><path d="M556.17,196h1.58v12.78h-1.58Z" transform="translate(-21 -20)"/><path d="M561.3,204.7a2.78,2.78,0,0,0,3,3,5.59,5.59,0,0,0,2.41-.45l.27,1.14a7.09,7.09,0,0,1-2.9.54,4,4,0,0,1-4.28-4.39c0-2.63,1.54-4.7,4.08-4.7,2.85,0,3.6,2.5,3.6,4.1a5.67,5.67,0,0,1-.05.74Zm4.64-1.13a2.25,2.25,0,0,0-2.19-2.58,2.62,2.62,0,0,0-2.43,2.58Z" transform="translate(-21 -20)"/><path d="M576.94,200.05c0,.63-.07,1.34-.07,2.4v5.06c0,2-.4,3.22-1.24,4a4.63,4.63,0,0,1-3.17,1,5.59,5.59,0,0,1-2.9-.72l.4-1.2a4.87,4.87,0,0,0,2.55.68c1.62,0,2.81-.85,2.81-3v-1h0a3.13,3.13,0,0,1-2.78,1.46c-2.16,0-3.71-1.83-3.71-4.25,0-2.95,1.93-4.62,3.93-4.62a2.9,2.9,0,0,1,2.72,1.51h0l.07-1.32Zm-1.64,3.44a2.06,2.06,0,0,0-.09-.72A2.27,2.27,0,0,0,573,201.1c-1.51,0-2.59,1.28-2.59,3.29,0,1.71.86,3.14,2.57,3.14a2.34,2.34,0,0,0,2.2-1.62,2.77,2.77,0,0,0,.12-.85Z" transform="translate(-21 -20)"/><path d="M584.32,208.77l-.12-1.1h-.06a3.26,3.26,0,0,1-2.66,1.3,2.49,2.49,0,0,1-2.67-2.51c0-2.1,1.87-3.25,5.24-3.24V203a1.79,1.79,0,0,0-2-2,4.39,4.39,0,0,0-2.27.64l-.36-1a5.4,5.4,0,0,1,2.86-.77c2.67,0,3.32,1.81,3.32,3.56v3.26a12.13,12.13,0,0,0,.14,2.09Zm-.23-4.45c-1.73,0-3.69.27-3.69,2a1.4,1.4,0,0,0,1.49,1.52,2.18,2.18,0,0,0,2.11-1.46,1.76,1.76,0,0,0,.09-.51Z" transform="translate(-21 -20)"/><path d="M594.38,208.44a5.73,5.73,0,0,1-2.5.51,4.14,4.14,0,0,1-4.34-4.45,4.43,4.43,0,0,1,4.68-4.63,5.39,5.39,0,0,1,2.2.45l-.36,1.23a3.63,3.63,0,0,0-1.84-.42,3.29,3.29,0,0,0-.05,6.56,4.6,4.6,0,0,0,1.94-.43Z" transform="translate(-21 -20)"/><path d="M597.13,200.05,599,205.2c.2.58.42,1.26.56,1.79h0c.16-.53.34-1.19.56-1.82l1.72-5.12h1.68l-2.38,6.22c-1.13,3-1.91,4.52-3,5.45a4.18,4.18,0,0,1-1.94,1l-.4-1.33a4.21,4.21,0,0,0,1.39-.78,4.79,4.79,0,0,0,1.33-1.76,1.3,1.3,0,0,0,.13-.38,1.51,1.51,0,0,0-.11-.42l-3.22-8Z" transform="translate(-21 -20)"/><path d="M608.85,196h1.59v12.78h-1.59Z" transform="translate(-21 -20)"/><path d="M621,204.34a4.27,4.27,0,0,1-4.34,4.63,4.15,4.15,0,0,1-4.18-4.49,4.25,4.25,0,0,1,4.32-4.62C619.29,199.86,621,201.67,621,204.34Zm-6.92.09c0,1.91,1.1,3.35,2.65,3.35s2.65-1.42,2.65-3.39c0-1.47-.74-3.35-2.61-3.35S614.07,202.77,614.07,204.43Z" transform="translate(-21 -20)"/><path d="M630.49,200.05c0,.63-.07,1.34-.07,2.4v5.06c0,2-.4,3.22-1.24,4a4.63,4.63,0,0,1-3.17,1,5.59,5.59,0,0,1-2.9-.72l.39-1.2a4.94,4.94,0,0,0,2.56.68c1.62,0,2.81-.85,2.81-3v-1h0a3.1,3.1,0,0,1-2.77,1.46c-2.16,0-3.71-1.83-3.71-4.25,0-2.95,1.93-4.62,3.93-4.62a2.9,2.9,0,0,1,2.72,1.51h0l.07-1.32Zm-1.64,3.44a2.33,2.33,0,0,0-.09-.72,2.27,2.27,0,0,0-2.21-1.67c-1.51,0-2.59,1.28-2.59,3.29,0,1.71.86,3.14,2.57,3.14a2.34,2.34,0,0,0,2.2-1.62,2.77,2.77,0,0,0,.12-.85Z" transform="translate(-21 -20)"/><path d="M634.7,197.61a1,1,0,0,1-2,0,1,1,0,0,1,1-1A.94.94,0,0,1,634.7,197.61Zm-1.76,11.16v-8.72h1.58v8.72Z" transform="translate(-21 -20)"/><path d="M636.93,207.15a4.23,4.23,0,0,0,2.09.63c1.15,0,1.69-.58,1.69-1.3s-.45-1.17-1.62-1.6c-1.56-.56-2.3-1.42-2.3-2.47,0-1.4,1.13-2.55,3-2.55a4.35,4.35,0,0,1,2.15.54l-.4,1.15a3.33,3.33,0,0,0-1.78-.51c-.94,0-1.46.54-1.46,1.19s.52,1.05,1.66,1.48c1.51.58,2.28,1.33,2.28,2.63,0,1.53-1.18,2.61-3.26,2.61a4.94,4.94,0,0,1-2.44-.6Z" transform="translate(-21 -20)"/><path d="M646.19,197.55v2.5h2.26v1.21h-2.26V206c0,1.08.3,1.69,1.18,1.69a3.26,3.26,0,0,0,.92-.11l.07,1.19a3.74,3.74,0,0,1-1.4.22,2.2,2.2,0,0,1-1.71-.67,3.23,3.23,0,0,1-.61-2.27v-4.75h-1.35v-1.21h1.35V198Z" transform="translate(-21 -20)"/><path d="M652,197.61a1,1,0,0,1-2,0,1,1,0,0,1,1-1A.94.94,0,0,1,652,197.61Zm-1.77,11.16v-8.72h1.59v8.72Z" transform="translate(-21 -20)"/><path d="M660.66,208.44a5.77,5.77,0,0,1-2.5.51,4.14,4.14,0,0,1-4.34-4.45,4.43,4.43,0,0,1,4.68-4.63,5.38,5.38,0,0,1,2.19.45l-.36,1.23a3.58,3.58,0,0,0-1.83-.42,3,3,0,0,0-3.08,3.3,3,3,0,0,0,3,3.26,4.66,4.66,0,0,0,1.95-.43Z" transform="translate(-21 -20)"/><path d="M662.29,207.15a4.23,4.23,0,0,0,2.09.63c1.15,0,1.7-.58,1.7-1.3s-.46-1.17-1.63-1.6c-1.56-.56-2.3-1.42-2.3-2.47,0-1.4,1.13-2.55,3-2.55a4.34,4.34,0,0,1,2.14.54l-.4,1.15a3.33,3.33,0,0,0-1.78-.51c-.94,0-1.46.54-1.46,1.19s.52,1.05,1.66,1.48c1.51.58,2.29,1.33,2.29,2.63,0,1.53-1.19,2.61-3.26,2.61a5,5,0,0,1-2.45-.6Z" transform="translate(-21 -20)"/><path d="M675.22,197.61a1,1,0,0,1-2,0,1,1,0,0,1,1-1A.94.94,0,0,1,675.22,197.61Zm-1.77,11.16v-8.72H675v8.72Z" transform="translate(-21 -20)"/><path d="M677.67,202.41c0-.9,0-1.64-.08-2.36H679l.09,1.45h0a3.21,3.21,0,0,1,2.88-1.64c1.21,0,3.08.72,3.08,3.71v5.2H683.5v-5c0-1.41-.52-2.58-2-2.58a2.25,2.25,0,0,0-2.12,1.62,2.35,2.35,0,0,0-.11.74v5.24h-1.58Z" transform="translate(-21 -20)"/><path d="M687.82,208.77v-7.51h-1.23v-1.21h1.23v-.41a4.1,4.1,0,0,1,1-3,3,3,0,0,1,2.12-.81,3.6,3.6,0,0,1,1.35.25l-.22,1.22a2.45,2.45,0,0,0-1-.19c-1.35,0-1.7,1.18-1.7,2.52v.46h2.11v1.21h-2.11v7.51Z" transform="translate(-21 -20)"/><path d="M700.56,204.34a4.26,4.26,0,0,1-4.34,4.63,4.15,4.15,0,0,1-4.17-4.49,4.25,4.25,0,0,1,4.32-4.62C698.87,199.86,700.56,201.67,700.56,204.34Zm-6.91.09c0,1.91,1.1,3.35,2.65,3.35s2.64-1.42,2.64-3.39c0-1.47-.73-3.35-2.61-3.35S693.65,202.77,693.65,204.43Z" transform="translate(-21 -20)"/><path d="M702.56,202.77c0-1,0-1.91-.07-2.72h1.38l.06,1.72H704a2.61,2.61,0,0,1,2.41-1.91,1.55,1.55,0,0,1,.45,0v1.49a2.76,2.76,0,0,0-.54-.05,2.22,2.22,0,0,0-2.12,2,3.93,3.93,0,0,0-.07.73v4.65h-1.57Z" transform="translate(-21 -20)"/><path d="M708.52,202.41c0-.9,0-1.64-.07-2.36h1.38l.07,1.41H710a3,3,0,0,1,2.73-1.6,2.58,2.58,0,0,1,2.47,1.74h0a3.63,3.63,0,0,1,1-1.13,3,3,0,0,1,1.93-.61c1.15,0,2.86.75,2.86,3.78v5.13h-1.55v-4.93c0-1.68-.61-2.69-1.89-2.69a2.05,2.05,0,0,0-1.87,1.44,2.73,2.73,0,0,0-.13.8v5.38H714v-5.22c0-1.39-.61-2.4-1.82-2.4a2.35,2.35,0,0,0-2.08,2.36v5.26h-1.55Z" transform="translate(-21 -20)"/><path d="M728.35,208.77l-.12-1.1h-.06a3.24,3.24,0,0,1-2.66,1.3,2.5,2.5,0,0,1-2.67-2.51c0-2.1,1.88-3.25,5.24-3.24V203a1.79,1.79,0,0,0-2-2,4.42,4.42,0,0,0-2.27.64l-.35-1a5.38,5.38,0,0,1,2.86-.77c2.66,0,3.31,1.81,3.31,3.56v3.26a13.22,13.22,0,0,0,.14,2.09Zm-.23-4.45c-1.73,0-3.69.27-3.69,2a1.4,1.4,0,0,0,1.49,1.52,2.16,2.16,0,0,0,2.11-1.46,1.76,1.76,0,0,0,.09-.51Z" transform="translate(-21 -20)"/><path d="M734,197.55v2.5h2.27v1.21H734V206c0,1.08.31,1.69,1.19,1.69a3.31,3.31,0,0,0,.92-.11l.07,1.19a3.74,3.74,0,0,1-1.4.22,2.19,2.19,0,0,1-1.71-.67,3.23,3.23,0,0,1-.62-2.27v-4.75h-1.35v-1.21h1.35V198Z" transform="translate(-21 -20)"/><path d="M739.86,197.61a1,1,0,0,1-2,0,1,1,0,0,1,1-1A.94.94,0,0,1,739.86,197.61Zm-1.77,11.16v-8.72h1.58v8.72Z" transform="translate(-21 -20)"/><path d="M750.19,204.34a4.26,4.26,0,0,1-4.34,4.63,4.15,4.15,0,0,1-4.18-4.49,4.25,4.25,0,0,1,4.32-4.62C748.5,199.86,750.19,201.67,750.19,204.34Zm-6.91.09c0,1.91,1.09,3.35,2.64,3.35s2.65-1.42,2.65-3.39c0-1.47-.74-3.35-2.61-3.35S743.28,202.77,743.28,204.43Z" transform="translate(-21 -20)"/><path d="M752.19,202.41c0-.9,0-1.64-.08-2.36h1.41l.09,1.45h0a3.21,3.21,0,0,1,2.88-1.64c1.21,0,3.08.72,3.08,3.71v5.2H758v-5c0-1.41-.52-2.58-2-2.58a2.25,2.25,0,0,0-2.12,1.62,2.35,2.35,0,0,0-.11.74v5.24h-1.58Z" transform="translate(-21 -20)"/></g><g id="Layer_3" data-name="Layer 3"><path class="cls-7" d="M828.12,205.63a10,10,0,0,0,.88,1.18h0l-1-1A1.54,1.54,0,0,1,828.12,205.63Z" transform="translate(-21 -20)"/><path class="cls-4" d="M722,285.58l86.41-90.46a11.17,11.17,0,0,1,15.76-.36h0a11.17,11.17,0,0,1,.36,15.76L738.11,301l-23.71,8.68Z" transform="translate(-21 -20)"/><path class="cls-8" d="M819.44,193.16h0a11.16,11.16,0,0,1,.36,15.75l-86.41,90.46-17.8,6.51-1.2,3.78,23.7-8.68,86.43-90.42a11.17,11.17,0,0,0-.36-15.76h0a11.1,11.1,0,0,0-6.53-3A12,12,0,0,1,819.44,193.16Z" transform="translate(-21 -20)"/><polygon class="cls-9" points="700.98 265.59 717.11 280.99 697.66 288.11 693.4 289.66 696.1 281.1 700.98 265.59"/><path class="cls-10" d="M717.1,301.1a4.78,4.78,0,0,1,1.66.66,1.91,1.91,0,0,1,.85,1.86,4.78,4.78,0,0,1-.67,1.21,3.79,3.79,0,0,0-.28,3.28l-4.27,1.55Z" transform="translate(-21 -20)"/></g></svg>