<svg xmlns="http://www.w3.org/2000/svg" xmlns:xlink="http://www.w3.org/1999/xlink" viewBox="0 0 391.65 262.22"><defs><style>.cls-1{fill:none;stroke:#3f3d56;stroke-miterlimit:10;stroke-width:2px;}.cls-2{fill:#3f3d56;}.cls-3{fill:#fff;}.cls-4{fill:#f2f2f2;}.cls-5{fill:#00adee;}.cls-6{fill:url(#linear-gradient);}.cls-7{fill:#eceff1;}.cls-8{fill:#64ffda;}.cls-9{opacity:0.7;}.cls-10{opacity:0.6;}.cls-11{opacity:0.5;}.cls-12{opacity:0.4;}.cls-13{opacity:0.3;}.cls-14{fill:url(#linear-gradient-2);}.cls-15{fill:url(#linear-gradient-3);}.cls-16{fill:url(#linear-gradient-4);}.cls-17{fill:url(#linear-gradient-5);}.cls-18{fill:url(#linear-gradient-6);}.cls-19{fill:url(#linear-gradient-7);}.cls-20{fill:url(#linear-gradient-8);}.cls-21{fill:url(#linear-gradient-9);}.cls-22{fill:url(#linear-gradient-10);}.cls-23{fill:url(#linear-gradient-11);}.cls-24{fill:url(#linear-gradient-12);}</style><linearGradient id="linear-gradient" x1="70.95" y1="1814.11" x2="70.95" y2="1892" gradientTransform="matrix(1, 0, 0, -1, 111, 2076.33)" gradientUnits="userSpaceOnUse"><stop offset="0" stop-color="gray" stop-opacity="0.25"/><stop offset="0.54" stop-color="gray" stop-opacity="0.12"/><stop offset="1" stop-color="gray" stop-opacity="0.1"/></linearGradient><linearGradient id="linear-gradient-2" x1="94.91" y1="1871.62" x2="94.91" y2="1885.23" xlink:href="#linear-gradient"/><linearGradient id="linear-gradient-3" x1="94.91" y1="1846.31" x2="94.91" y2="1859.92" xlink:href="#linear-gradient"/><linearGradient id="linear-gradient-4" x1="94.91" y1="1821.17" x2="94.91" y2="1834.78" xlink:href="#linear-gradient"/><linearGradient id="linear-gradient-5" x1="137.51" y1="1978.31" x2="137.51" y2="2056.21" xlink:href="#linear-gradient"/><linearGradient id="linear-gradient-6" x1="161.47" y1="2035.82" x2="161.47" y2="2049.43" xlink:href="#linear-gradient"/><linearGradient id="linear-gradient-7" x1="161.47" y1="2010.51" x2="161.47" y2="2024.12" xlink:href="#linear-gradient"/><linearGradient id="linear-gradient-8" x1="161.47" y1="1985.37" x2="161.47" y2="1998.98" xlink:href="#linear-gradient"/><linearGradient id="linear-gradient-9" x1="244.1" y1="1817.95" x2="244.1" y2="1895.85" xlink:href="#linear-gradient"/><linearGradient id="linear-gradient-10" x1="268.06" y1="1875.47" x2="268.06" y2="1889.08" xlink:href="#linear-gradient"/><linearGradient id="linear-gradient-11" x1="268.06" y1="1850.16" x2="268.06" y2="1863.77" xlink:href="#linear-gradient"/><linearGradient id="linear-gradient-12" x1="268.06" y1="1825.02" x2="268.06" y2="1838.62" xlink:href="#linear-gradient"/></defs><title>services</title><g id="Layer_1" data-name="Layer 1"><path class="cls-1" d="M134.83,142.28s26-73.65,84-74.3" transform="translate(-23 -15.67)"/><path class="cls-2" d="M224.08,68.12a26.18,26.18,0,0,0-7.46,3.93L218.19,68l-1.38-4.13A25.93,25.93,0,0,0,224.08,68.12Z" transform="translate(-23 -15.67)"/><path class="cls-1" d="M137,170.3s-2.35,59.26,31.5,67.33" transform="translate(-23 -15.67)"/><path class="cls-1" d="M143.88,150.9s183.08-30.52,214.5,7.23" transform="translate(-23 -15.67)"/><path class="cls-2" d="M361.19,162.54a26,26,0,0,0-7.49-3.88l4.23-1,2.59-3.5A26.46,26.46,0,0,0,361.19,162.54Z" transform="translate(-23 -15.67)"/></g><g id="Layer_2" data-name="Layer 2"><rect class="cls-3" y="98.57" width="124.41" height="81.75"/><circle class="cls-4" cx="17.97" cy="142.8" r="12.04"/><path class="cls-2" d="M140.3,142.92H72.89V128.86H140.3Zm-67.14-.26H140V129.12H73.16Z" transform="translate(-23 -15.67)"/><rect class="cls-5" x="45.38" y="115.83" width="67.14" height="13.8"/><circle class="cls-5" cx="2.87" cy="101.64" r="1.04"/><circle class="cls-5" cx="6.44" cy="101.64" r="1.04"/><circle class="cls-5" cx="10.01" cy="101.64" r="1.04"/><path class="cls-2" d="M148,196H23V114.52H148Zm-124.73-.27H147.73V114.79H23.27Z" transform="translate(-23 -15.67)"/><rect class="cls-2" y="103.36" width="124.73" height="0.27"/><path class="cls-2" d="M26.17,118.06a1.19,1.19,0,1,1,1.19-1.19A1.19,1.19,0,0,1,26.17,118.06Zm0-2.08a.89.89,0,1,0,.89.89A.89.89,0,0,0,26.17,116Z" transform="translate(-23 -15.67)"/><path class="cls-2" d="M29.74,118.06a1.19,1.19,0,1,1,1.19-1.19A1.19,1.19,0,0,1,29.74,118.06Zm0-2.08a.89.89,0,1,0,.89.89A.89.89,0,0,0,29.74,116Z" transform="translate(-23 -15.67)"/><path class="cls-2" d="M33.3,118.06a1.19,1.19,0,1,1,1.19-1.19h0A1.19,1.19,0,0,1,33.3,118.06Zm0-2.08a.89.89,0,1,0,.9.89h0A.89.89,0,0,0,33.3,116Z" transform="translate(-23 -15.67)"/><rect class="cls-2" x="39.01" y="103.63" width="0.27" height="76.7"/><rect class="cls-4" x="53.34" y="141.31" width="21.76" height="2.92"/><rect class="cls-4" x="87.58" y="141.31" width="21.76" height="2.92"/><path class="cls-2" d="M99.43,158.58h-22v-3.19h22Zm-21.76-.27h21.5v-2.65H77.67Z" transform="translate(-23 -15.67)"/><rect class="cls-4" x="53.34" y="164.14" width="21.76" height="2.92"/><path class="cls-2" d="M99.43,181.4h-22v-3.18h22Zm-21.76-.26h21.5v-2.66H77.67Z" transform="translate(-23 -15.67)"/><rect class="cls-4" x="53.34" y="152.46" width="56.26" height="2.92"/><path class="cls-2" d="M133.93,170H77.41v-3.18h56.52Zm-56.26-.26h56v-2.66h-56Z" transform="translate(-23 -15.67)"/><path class="cls-2" d="M133.67,158.58h-22v-3.19h22Zm-21.76-.27H133.4v-2.65H111.91Z" transform="translate(-23 -15.67)"/><path class="cls-2" d="M43,167.37a12.23,12.23,0,1,1,12.22-12.23A12.24,12.24,0,0,1,43,167.37Zm0-24.08a11.86,11.86,0,1,0,11.85,11.85A11.85,11.85,0,0,0,43,143.29Z" transform="translate(-23 -15.67)"/><rect class="cls-6" x="146.95" y="184.33" width="70" height="77.89"/><rect class="cls-7" x="148" y="236.43" width="67.37" height="24.21"/><rect class="cls-8" x="153.26" y="241.69" width="2.63" height="12.63"/><g class="cls-9"><rect class="cls-8" x="158.53" y="241.69" width="2.63" height="12.63"/></g><g class="cls-10"><rect class="cls-8" x="163.79" y="241.69" width="2.63" height="12.63"/></g><g class="cls-11"><rect class="cls-8" x="169.05" y="241.69" width="2.63" height="12.63"/></g><g class="cls-11"><rect class="cls-8" x="174.32" y="241.69" width="2.63" height="12.63"/></g><g class="cls-12"><rect class="cls-8" x="179.05" y="241.69" width="2.63" height="12.63"/></g><g class="cls-13"><rect class="cls-8" x="184.32" y="241.69" width="2.63" height="12.63"/></g><circle class="cls-5" cx="205.91" cy="248.19" r="6.31"/><rect class="cls-7" x="148" y="211.17" width="67.37" height="24.21"/><rect class="cls-8" x="153.26" y="216.96" width="2.63" height="12.63"/><g class="cls-9"><rect class="cls-8" x="158.53" y="216.96" width="2.63" height="12.63"/></g><g class="cls-10"><rect class="cls-8" x="163.79" y="216.96" width="2.63" height="12.63"/></g><g class="cls-11"><rect class="cls-8" x="169.05" y="216.96" width="2.63" height="12.63"/></g><g class="cls-11"><rect class="cls-8" x="174.32" y="216.96" width="2.63" height="12.63"/></g><g class="cls-12"><rect class="cls-8" x="179.05" y="216.96" width="2.63" height="12.63"/></g><g class="cls-13"><rect class="cls-8" x="184.32" y="216.96" width="2.63" height="12.63"/></g><circle class="cls-5" cx="205.91" cy="223.04" r="6.31"/><rect class="cls-7" x="148" y="185.9" width="67.37" height="24.21"/><rect class="cls-8" x="153.26" y="191.69" width="2.63" height="12.63"/><g class="cls-9"><rect class="cls-8" x="158.53" y="191.69" width="2.63" height="12.63"/></g><g class="cls-10"><rect class="cls-8" x="163.79" y="191.69" width="2.63" height="12.63"/></g><g class="cls-11"><rect class="cls-8" x="169.05" y="191.69" width="2.63" height="12.63"/></g><g class="cls-11"><rect class="cls-8" x="174.32" y="191.69" width="2.63" height="12.63"/></g><g class="cls-12"><rect class="cls-8" x="179.05" y="191.69" width="2.63" height="12.63"/></g><g class="cls-13"><rect class="cls-8" x="184.32" y="191.69" width="2.63" height="12.63"/></g><circle class="cls-14" cx="205.91" cy="197.9" r="6.8"/><circle class="cls-15" cx="205.91" cy="223.21" r="6.8"/><circle class="cls-16" cx="205.91" cy="248.35" r="6.8"/><circle class="cls-5" cx="205.91" cy="197.9" r="6.31"/><rect class="cls-17" x="213.51" y="20.12" width="70" height="77.89"/><rect class="cls-7" x="214.56" y="72.22" width="67.37" height="24.21"/><rect class="cls-8" x="219.83" y="77.49" width="2.63" height="12.63"/><g class="cls-9"><rect class="cls-8" x="225.09" y="77.49" width="2.63" height="12.63"/></g><g class="cls-10"><rect class="cls-8" x="230.35" y="77.49" width="2.63" height="12.63"/></g><g class="cls-11"><rect class="cls-8" x="235.62" y="77.49" width="2.63" height="12.63"/></g><g class="cls-11"><rect class="cls-8" x="240.88" y="77.49" width="2.63" height="12.63"/></g><g class="cls-12"><rect class="cls-8" x="245.62" y="77.49" width="2.63" height="12.63"/></g><g class="cls-13"><rect class="cls-8" x="250.88" y="77.49" width="2.63" height="12.63"/></g><circle class="cls-5" cx="272.47" cy="83.98" r="6.31"/><rect class="cls-7" x="214.56" y="46.96" width="67.37" height="24.21"/><rect class="cls-8" x="219.83" y="52.75" width="2.63" height="12.63"/><g class="cls-9"><rect class="cls-8" x="225.09" y="52.75" width="2.63" height="12.63"/></g><g class="cls-10"><rect class="cls-8" x="230.35" y="52.75" width="2.63" height="12.63"/></g><g class="cls-11"><rect class="cls-8" x="235.62" y="52.75" width="2.63" height="12.63"/></g><g class="cls-11"><rect class="cls-8" x="240.88" y="52.75" width="2.63" height="12.63"/></g><g class="cls-12"><rect class="cls-8" x="245.62" y="52.75" width="2.63" height="12.63"/></g><g class="cls-13"><rect class="cls-8" x="250.88" y="52.75" width="2.63" height="12.63"/></g><circle class="cls-5" cx="272.47" cy="58.84" r="6.31"/><rect class="cls-7" x="214.56" y="21.7" width="67.37" height="24.21"/><rect class="cls-8" x="219.83" y="27.49" width="2.63" height="12.63"/><g class="cls-9"><rect class="cls-8" x="225.09" y="27.49" width="2.63" height="12.63"/></g><g class="cls-10"><rect class="cls-8" x="230.35" y="27.49" width="2.63" height="12.63"/></g><g class="cls-11"><rect class="cls-8" x="235.62" y="27.49" width="2.63" height="12.63"/></g><g class="cls-11"><rect class="cls-8" x="240.88" y="27.49" width="2.63" height="12.63"/></g><g class="cls-12"><rect class="cls-8" x="245.62" y="27.49" width="2.63" height="12.63"/></g><g class="cls-13"><rect class="cls-8" x="250.88" y="27.49" width="2.63" height="12.63"/></g><circle class="cls-18" cx="272.47" cy="33.7" r="6.8"/><circle class="cls-19" cx="272.47" cy="59.01" r="6.8"/><circle class="cls-20" cx="272.47" cy="84.15" r="6.8"/><circle class="cls-5" cx="272.47" cy="33.7" r="6.31"/><rect class="cls-21" x="320.1" y="180.48" width="70" height="77.89"/><rect class="cls-7" x="321.16" y="232.58" width="67.37" height="24.21"/><rect class="cls-8" x="326.42" y="237.85" width="2.63" height="12.63"/><g class="cls-9"><rect class="cls-8" x="331.68" y="237.85" width="2.63" height="12.63"/></g><g class="cls-10"><rect class="cls-8" x="336.95" y="237.85" width="2.63" height="12.63"/></g><g class="cls-11"><rect class="cls-8" x="342.21" y="237.85" width="2.63" height="12.63"/></g><g class="cls-11"><rect class="cls-8" x="347.47" y="237.85" width="2.63" height="12.63"/></g><g class="cls-12"><rect class="cls-8" x="352.21" y="237.85" width="2.63" height="12.63"/></g><g class="cls-13"><rect class="cls-8" x="357.47" y="237.85" width="2.63" height="12.63"/></g><circle class="cls-5" cx="379.06" cy="244.34" r="6.31"/><rect class="cls-7" x="321.16" y="207.32" width="67.37" height="24.21"/><rect class="cls-8" x="326.42" y="213.11" width="2.63" height="12.63"/><g class="cls-9"><rect class="cls-8" x="331.68" y="213.11" width="2.63" height="12.63"/></g><g class="cls-10"><rect class="cls-8" x="336.95" y="213.11" width="2.63" height="12.63"/></g><g class="cls-11"><rect class="cls-8" x="342.21" y="213.11" width="2.63" height="12.63"/></g><g class="cls-11"><rect class="cls-8" x="347.47" y="213.11" width="2.63" height="12.63"/></g><g class="cls-12"><rect class="cls-8" x="352.21" y="213.11" width="2.63" height="12.63"/></g><g class="cls-13"><rect class="cls-8" x="357.47" y="213.11" width="2.63" height="12.63"/></g><circle class="cls-5" cx="379.06" cy="219.2" r="6.31"/><rect class="cls-7" x="321.16" y="182.06" width="67.37" height="24.21"/><rect class="cls-8" x="326.42" y="187.85" width="2.63" height="12.63"/><g class="cls-9"><rect class="cls-8" x="331.68" y="187.85" width="2.63" height="12.63"/></g><g class="cls-10"><rect class="cls-8" x="336.95" y="187.85" width="2.63" height="12.63"/></g><g class="cls-11"><rect class="cls-8" x="342.21" y="187.85" width="2.63" height="12.63"/></g><g class="cls-11"><rect class="cls-8" x="347.47" y="187.85" width="2.63" height="12.63"/></g><g class="cls-12"><rect class="cls-8" x="352.21" y="187.85" width="2.63" height="12.63"/></g><g class="cls-13"><rect class="cls-8" x="357.47" y="187.85" width="2.63" height="12.63"/></g><circle class="cls-22" cx="379.06" cy="194.05" r="6.8"/><circle class="cls-23" cx="379.06" cy="219.36" r="6.8"/><circle class="cls-24" cx="379.06" cy="244.5" r="6.8"/><circle class="cls-5" cx="379.06" cy="194.05" r="6.31"/><path d="M34.43,108.67a9,9,0,0,1-3.74.68c-4,0-7-2.52-7-7.16a7,7,0,0,1,7.39-7.44,7.62,7.62,0,0,1,3.36.63L34,96.87a6.78,6.78,0,0,0-2.86-.58c-3.32,0-5.52,2.12-5.52,5.83,0,3.47,2,5.69,5.44,5.69a7.46,7.46,0,0,0,3-.58Z" transform="translate(-23 -15.67)"/><path d="M45.62,104c0,3.76-2.6,5.4-5.06,5.4-2.75,0-4.87-2-4.87-5.23,0-3.4,2.23-5.4,5-5.4S45.62,100.86,45.62,104Zm-8.06.11c0,2.22,1.28,3.9,3.08,3.9s3.09-1.66,3.09-4c0-1.72-.86-3.9-3-3.9S37.56,102.14,37.56,104.08Z" transform="translate(-23 -15.67)"/><path d="M57.15,104c0,3.76-2.6,5.4-5.06,5.4-2.75,0-4.87-2-4.87-5.23,0-3.4,2.22-5.4,5-5.4S57.15,100.86,57.15,104Zm-8.06.11c0,2.22,1.28,3.9,3.08,3.9s3.09-1.66,3.09-4c0-1.72-.86-3.9-3-3.9S49.09,102.14,49.09,104.08Z" transform="translate(-23 -15.67)"/><path d="M59.48,102.14c0-1.19,0-2.22-.08-3.17H61l.07,2h.08A3.05,3.05,0,0,1,64,98.74a1.68,1.68,0,0,1,.52.07v1.74a2.93,2.93,0,0,0-.63-.06,2.59,2.59,0,0,0-2.48,2.37,5.36,5.36,0,0,0-.08.86v5.42H59.48Z" transform="translate(-23 -15.67)"/><path d="M74.92,94.23v12.28c0,.9,0,1.93.08,2.63H73.34l-.08-1.77h-.05a3.74,3.74,0,0,1-3.46,2c-2.46,0-4.35-2.08-4.35-5.17,0-3.38,2.08-5.46,4.56-5.46A3.42,3.42,0,0,1,73,100.3h0V94.23Zm-1.85,8.88a3,3,0,0,0-.09-.78,2.72,2.72,0,0,0-2.66-2.14c-1.91,0-3,1.68-3,3.93,0,2.06,1,3.76,3,3.76a2.77,2.77,0,0,0,2.7-2.21,2.88,2.88,0,0,0,.09-.8Z" transform="translate(-23 -15.67)"/><path d="M80,96.12a1.15,1.15,0,0,1-2.29,0A1.13,1.13,0,0,1,78.91,95,1.1,1.1,0,0,1,80,96.12Zm-2.06,13V99h1.85v10.17Z" transform="translate(-23 -15.67)"/><path d="M82.9,101.72c0-1,0-1.91-.09-2.75h1.64l.11,1.68h0A3.74,3.74,0,0,1,88,98.74c1.4,0,3.59.84,3.59,4.33v6.07H89.7v-5.86c0-1.64-.61-3-2.35-3a2.63,2.63,0,0,0-2.48,1.89,2.73,2.73,0,0,0-.13.86v6.11H82.9Z" transform="translate(-23 -15.67)"/><path d="M100.18,109.14l-.15-1.28H100a3.81,3.81,0,0,1-3.11,1.51,2.9,2.9,0,0,1-3.11-2.92c0-2.46,2.19-3.8,6.11-3.78v-.21a2.09,2.09,0,0,0-2.31-2.35,5.06,5.06,0,0,0-2.64.75l-.42-1.21a6.28,6.28,0,0,1,3.34-.91c3.1,0,3.86,2.12,3.86,4.16v3.8a14,14,0,0,0,.17,2.44ZM99.91,104c-2,0-4.31.32-4.31,2.29A1.63,1.63,0,0,0,97.34,108a2.52,2.52,0,0,0,2.46-1.7,2,2,0,0,0,.11-.59Z" transform="translate(-23 -15.67)"/><path d="M106.81,96.06V99h2.65v1.41h-2.65v5.48c0,1.26.36,2,1.39,2a4.31,4.31,0,0,0,1.07-.12l.09,1.38a4.47,4.47,0,0,1-1.64.26,2.59,2.59,0,0,1-2-.78,3.8,3.8,0,0,1-.71-2.65v-5.54h-1.58V99H105V96.54Z" transform="translate(-23 -15.67)"/><path d="M120.61,104c0,3.76-2.6,5.4-5.06,5.4-2.75,0-4.87-2-4.87-5.23,0-3.4,2.23-5.4,5-5.4S120.61,100.86,120.61,104Zm-8.06.11c0,2.22,1.28,3.9,3.08,3.9s3.09-1.66,3.09-4c0-1.72-.86-3.9-3-3.9S112.55,102.14,112.55,104.08Z" transform="translate(-23 -15.67)"/><path d="M122.94,102.14c0-1.19,0-2.22-.08-3.17h1.62l.06,2h.08a3.05,3.05,0,0,1,2.82-2.23,1.68,1.68,0,0,1,.52.07v1.74a2.93,2.93,0,0,0-.63-.06,2.6,2.6,0,0,0-2.48,2.37,5.36,5.36,0,0,0-.08.86v5.42h-1.83Z" transform="translate(-23 -15.67)"/><path d="M232.28,27.83a6.44,6.44,0,0,0,3.28.93c1.87,0,3-1,3-2.42s-.76-2.08-2.67-2.81c-2.31-.82-3.74-2-3.74-4,0-2.21,1.83-3.85,4.58-3.85a6.39,6.39,0,0,1,3.13.7l-.51,1.49a5.62,5.62,0,0,0-2.68-.67c-1.93,0-2.67,1.15-2.67,2.12,0,1.32.86,2,2.81,2.73,2.4.92,3.62,2.08,3.62,4.15s-1.62,4.08-5,4.08a7.27,7.27,0,0,1-3.61-.91Z" transform="translate(-23 -15.67)"/><path d="M244,25.31a3.26,3.26,0,0,0,3.48,3.53,6.61,6.61,0,0,0,2.82-.53l.31,1.33a8.28,8.28,0,0,1-3.38.63c-3.13,0-5-2.06-5-5.13S244,19.66,247,19.66c3.32,0,4.2,2.92,4.2,4.79a7.27,7.27,0,0,1-.06.86ZM249.4,24c0-1.18-.49-3-2.57-3-1.87,0-2.68,1.72-2.83,3Z" transform="translate(-23 -15.67)"/><path d="M253.47,23.07c0-1.2,0-2.23-.08-3.17H255l.07,2h.08A3,3,0,0,1,258,19.66a2.13,2.13,0,0,1,.53.07v1.74a2.93,2.93,0,0,0-.63-.06,2.59,2.59,0,0,0-2.48,2.37,5.47,5.47,0,0,0-.08.86v5.42h-1.83Z" transform="translate(-23 -15.67)"/><path d="M261.58,19.9l2,5.71a24.79,24.79,0,0,1,.82,2.6h.06c.23-.84.53-1.68.86-2.6l2-5.71h1.93l-4,10.16h-1.76L259.6,19.9Z" transform="translate(-23 -15.67)"/><path d="M273,17a1.15,1.15,0,0,1-2.29,0,1.13,1.13,0,0,1,1.16-1.16A1.1,1.1,0,0,1,273,17Zm-2.06,13V19.9h1.85V30.06Z" transform="translate(-23 -15.67)"/><path d="M283.12,29.68a6.81,6.81,0,0,1-2.92.59,4.83,4.83,0,0,1-5.06-5.19,5.16,5.16,0,0,1,5.46-5.39,6.2,6.2,0,0,1,2.56.52l-.42,1.43a4.28,4.28,0,0,0-2.14-.49A3.52,3.52,0,0,0,277,25a3.48,3.48,0,0,0,3.53,3.8,5.28,5.28,0,0,0,2.27-.51Z" transform="translate(-23 -15.67)"/><path d="M286.19,25.31a3.25,3.25,0,0,0,3.48,3.53,6.61,6.61,0,0,0,2.82-.53l.31,1.33a8.28,8.28,0,0,1-3.38.63c-3.13,0-5-2.06-5-5.13s1.81-5.48,4.77-5.48c3.32,0,4.2,2.92,4.2,4.79a7.27,7.27,0,0,1-.06.86ZM291.6,24c0-1.18-.48-3-2.56-3-1.87,0-2.69,1.72-2.83,3Z" transform="translate(-23 -15.67)"/><path d="M302.48,25.61,301,30.06h-1.89l4.81-14.15h2.21L311,30.06H309l-1.51-4.45Zm4.64-1.43-1.38-4.08c-.32-.92-.53-1.76-.74-2.58h0c-.21.84-.44,1.7-.71,2.56l-1.39,4.1Z" transform="translate(-23 -15.67)"/><path d="M167.1,192.74a6.44,6.44,0,0,0,3.28.93c1.87,0,3-1,3-2.42s-.76-2.07-2.67-2.81c-2.31-.82-3.73-2-3.73-4,0-2.2,1.82-3.84,4.57-3.84a6.4,6.4,0,0,1,3.13.69l-.5,1.49a5.71,5.71,0,0,0-2.69-.67c-1.93,0-2.67,1.15-2.67,2.12,0,1.32.86,2,2.82,2.73,2.39.92,3.61,2.08,3.61,4.16s-1.62,4.07-5,4.07a7.38,7.38,0,0,1-3.61-.9Z" transform="translate(-23 -15.67)"/><path d="M178.8,190.23a3.26,3.26,0,0,0,3.49,3.52,6.74,6.74,0,0,0,2.81-.52l.31,1.32a8.28,8.28,0,0,1-3.38.63c-3.13,0-5-2.06-5-5.12s1.8-5.48,4.76-5.48c3.32,0,4.2,2.92,4.2,4.78a7.48,7.48,0,0,1-.06.87Zm5.42-1.33c0-1.17-.49-3-2.56-3-1.87,0-2.69,1.72-2.84,3Z" transform="translate(-23 -15.67)"/><path d="M188.29,188c0-1.2,0-2.23-.08-3.17h1.61l.07,2H190a3.05,3.05,0,0,1,2.81-2.22,2.15,2.15,0,0,1,.53.06v1.74a2.93,2.93,0,0,0-.63-.06,2.6,2.6,0,0,0-2.48,2.37,5.47,5.47,0,0,0-.08.86V195h-1.83Z" transform="translate(-23 -15.67)"/><path d="M196.4,184.81l2,5.71a24.79,24.79,0,0,1,.82,2.6h.06c.23-.84.53-1.68.86-2.6l2-5.71H204l-4,10.16h-1.76l-3.87-10.16Z" transform="translate(-23 -15.67)"/><path d="M207.84,182a1.09,1.09,0,0,1-1.17,1.14,1.11,1.11,0,0,1-1.12-1.14,1.13,1.13,0,0,1,1.16-1.15A1.09,1.09,0,0,1,207.84,182Zm-2.06,13V184.81h1.85V195Z" transform="translate(-23 -15.67)"/><path d="M217.94,194.59a6.81,6.81,0,0,1-2.92.59A4.83,4.83,0,0,1,210,190a5.16,5.16,0,0,1,5.46-5.39,6.2,6.2,0,0,1,2.56.52l-.42,1.43a4.29,4.29,0,0,0-2.14-.48,3.83,3.83,0,0,0-.06,7.64,5.3,5.3,0,0,0,2.27-.5Z" transform="translate(-23 -15.67)"/><path d="M221,190.23a3.25,3.25,0,0,0,3.48,3.52,6.79,6.79,0,0,0,2.82-.52l.31,1.32a8.28,8.28,0,0,1-3.38.63c-3.13,0-5-2.06-5-5.12s1.8-5.48,4.76-5.48c3.32,0,4.2,2.92,4.2,4.78a7.48,7.48,0,0,1-.06.87Zm5.42-1.33c0-1.17-.49-3-2.57-3-1.86,0-2.68,1.72-2.83,3Z" transform="translate(-23 -15.67)"/><path d="M235,181a17.32,17.32,0,0,1,3.33-.3,5.88,5.88,0,0,1,3.89,1,3,3,0,0,1,1.17,2.5,3.36,3.36,0,0,1-2.39,3.11v0a3.66,3.66,0,0,1,2.92,3.55,3.78,3.78,0,0,1-1.2,2.83c-1,.91-2.58,1.33-4.89,1.33a21.79,21.79,0,0,1-2.83-.17Zm1.82,5.79h1.66c1.93,0,3.07-1,3.07-2.37,0-1.66-1.26-2.31-3.11-2.31a7.35,7.35,0,0,0-1.62.13Zm0,6.78a8.91,8.91,0,0,0,1.54.09c1.88,0,3.63-.69,3.63-2.75s-1.66-2.73-3.66-2.73h-1.51Z" transform="translate(-23 -15.67)"/><path d="M336.83,188.38a6.49,6.49,0,0,0,3.27.92c1.87,0,3-1,3-2.41s-.75-2.08-2.66-2.82c-2.31-.81-3.74-2-3.74-4,0-2.2,1.83-3.84,4.58-3.84a6.34,6.34,0,0,1,3.12.7l-.5,1.49a5.53,5.53,0,0,0-2.69-.68c-1.93,0-2.66,1.16-2.66,2.12,0,1.33.86,2,2.81,2.73,2.39.93,3.61,2.08,3.61,4.16s-1.62,4.07-4.95,4.07a7.21,7.21,0,0,1-3.61-.9Z" transform="translate(-23 -15.67)"/><path d="M348.52,185.86a3.26,3.26,0,0,0,3.49,3.53,6.56,6.56,0,0,0,2.81-.53l.32,1.32a8.15,8.15,0,0,1-3.38.63c-3.13,0-5-2.05-5-5.12s1.81-5.48,4.77-5.48c3.31,0,4.2,2.92,4.2,4.79a6.84,6.84,0,0,1-.07.86Zm5.42-1.32c0-1.18-.48-3-2.56-3-1.87,0-2.69,1.73-2.84,3Z" transform="translate(-23 -15.67)"/><path d="M358,183.61c0-1.19,0-2.22-.09-3.17h1.62l.06,2h.09a3,3,0,0,1,2.81-2.23,2,2,0,0,1,.52.06V182a2.81,2.81,0,0,0-.63-.07,2.59,2.59,0,0,0-2.47,2.38,4.37,4.37,0,0,0-.09.86v5.41H358Z" transform="translate(-23 -15.67)"/><path d="M366.12,180.44l2,5.71c.33.93.6,1.77.82,2.61H369c.23-.84.52-1.68.86-2.61l2-5.71h1.93l-4,10.16H368l-3.86-10.16Z" transform="translate(-23 -15.67)"/><path d="M377.57,177.59a1.15,1.15,0,0,1-2.29,0,1.13,1.13,0,0,1,1.15-1.16A1.11,1.11,0,0,1,377.57,177.59Zm-2.06,13V180.44h1.85V190.6Z" transform="translate(-23 -15.67)"/><path d="M387.67,190.23a6.92,6.92,0,0,1-2.92.58,4.82,4.82,0,0,1-5.06-5.18,5.17,5.17,0,0,1,5.46-5.4,6.22,6.22,0,0,1,2.56.53l-.42,1.43a4.2,4.2,0,0,0-2.14-.49,3.51,3.51,0,0,0-3.59,3.84,3.48,3.48,0,0,0,3.52,3.8,5.26,5.26,0,0,0,2.27-.5Z" transform="translate(-23 -15.67)"/><path d="M390.73,185.86a3.26,3.26,0,0,0,3.49,3.53,6.56,6.56,0,0,0,2.81-.53l.32,1.32a8.15,8.15,0,0,1-3.38.63c-3.13,0-5-2.05-5-5.12s1.81-5.48,4.77-5.48c3.31,0,4.2,2.92,4.2,4.79a6.84,6.84,0,0,1-.07.86Zm5.42-1.32c0-1.18-.48-3-2.56-3-1.87,0-2.69,1.73-2.84,3Z" transform="translate(-23 -15.67)"/><path d="M414.63,190.14a9,9,0,0,1-3.74.67c-4,0-7-2.52-7-7.16a7,7,0,0,1,7.39-7.43,7.62,7.62,0,0,1,3.36.63l-.44,1.49a6.74,6.74,0,0,0-2.86-.59c-3.31,0-5.52,2.13-5.52,5.84,0,3.47,2,5.69,5.44,5.69a7.25,7.25,0,0,0,3-.59Z" transform="translate(-23 -15.67)"/></g></svg>