<svg id="Layer_1" data-name="Layer 1" xmlns="http://www.w3.org/2000/svg" viewBox="0 0 424.92 101.94"><defs><style>.cls-1{opacity:0.8;}.cls-2{fill:none;stroke:#3f3d56;stroke-miterlimit:10;stroke-width:3px;}.cls-3{fill:#00adee;}.cls-4{fill:#3acc6c;}.cls-5{fill:#ff6584;}</style></defs><title>versioning</title><g class="cls-1"><line class="cls-2" x1="11.36" y1="55.43" x2="415.36" y2="55.43"/><path class="cls-2" d="M64.28,68.57s19.3,2.68,9.31-18,27.12-16.78,27.12-16.78" transform="translate(-16.64 -13.07)"/><path class="cls-2" d="M192.83,68.57s19.3-2.67,9.3,18,27.12,16.79,27.12,16.79" transform="translate(-16.64 -13.07)"/><line class="cls-2" x1="277.36" y1="90.43" x2="218.36" y2="90.43"/><circle class="cls-3" cx="11.78" cy="55.51" r="11.78"/><circle class="cls-4" cx="84.27" cy="20.52" r="11.78"/><circle class="cls-3" cx="84.27" cy="55.51" r="11.78"/><path class="cls-3" d="M139.05,60c12.61-9.61,26.87,4.65,17.27,17.26C143.7,86.82,129.44,72.56,139.05,60Z" transform="translate(-16.64 -13.07)"/><path class="cls-5" d="M220.81,94.58c12.62-9.6,26.88,4.66,17.27,17.27C225.46,121.46,211.21,107.2,220.81,94.58Z" transform="translate(-16.64 -13.07)"/><path class="cls-5" d="M282.6,94.58c12.61-9.6,26.87,4.66,17.26,17.27C287.25,121.46,273,107.2,282.6,94.58Z" transform="translate(-16.64 -13.07)"/><path class="cls-3" d="M279.37,60c12.62-9.61,26.88,4.65,17.27,17.26C284,86.82,269.77,72.56,279.37,60Z" transform="translate(-16.64 -13.07)"/><path class="cls-3" d="M420.43,60C433,50.34,447.3,64.6,437.69,77.21,425.08,86.82,410.82,72.56,420.43,60Z" transform="translate(-16.64 -13.07)"/><path class="cls-3" d="M362.73,60C375.34,50.34,389.6,64.6,380,77.21,367.38,86.82,353.12,72.56,362.73,60Z" transform="translate(-16.64 -13.07)"/></g><path d="M18.31,49.3h0L16.93,50l-.2-.81,1.7-.91h.9v7.8h-1Z" transform="translate(-16.64 -13.07)"/><path d="M22.26,55.48a.71.71,0,0,1,.72-.75.76.76,0,0,1,0,1.51A.71.71,0,0,1,22.26,55.48Z" transform="translate(-16.64 -13.07)"/><path d="M29.84,52.13c0,2.65-1,4.11-2.71,4.11-1.52,0-2.55-1.43-2.58-4s1.13-4,2.71-4S29.84,49.64,29.84,52.13Zm-4.23.12c0,2,.62,3.17,1.58,3.17s1.6-1.25,1.6-3.25S28.29,49,27.2,49C26.28,49,25.61,50.12,25.61,52.25Z" transform="translate(-16.64 -13.07)"/><path d="M30.9,55.48a.71.71,0,0,1,.72-.75.76.76,0,0,1,0,1.51A.71.71,0,0,1,30.9,55.48Z" transform="translate(-16.64 -13.07)"/><path d="M38.48,52.13c0,2.65-1,4.11-2.71,4.11-1.52,0-2.56-1.43-2.58-4s1.13-4,2.71-4S38.48,49.64,38.48,52.13Zm-4.23.12c0,2,.62,3.17,1.58,3.17s1.59-1.25,1.59-3.25S36.93,49,35.84,49C34.92,49,34.25,50.12,34.25,52.25Z" transform="translate(-16.64 -13.07)"/><path d="M88.73,21v-.64l.83-.81c2-1.89,2.89-2.9,2.9-4.07a1.39,1.39,0,0,0-1.55-1.53,2.66,2.66,0,0,0-1.65.66l-.34-.74a3.41,3.41,0,0,1,2.21-.79,2.19,2.19,0,0,1,2.39,2.26c0,1.44-1,2.61-2.69,4.19l-.62.57v0h3.5V21Z" transform="translate(-16.64 -13.07)"/><path d="M95,20.37a.72.72,0,0,1,.72-.76.76.76,0,1,1-.72.76Z" transform="translate(-16.64 -13.07)"/><path d="M102.55,17c0,2.65-1,4.12-2.71,4.12-1.52,0-2.55-1.43-2.58-4s1.13-4.05,2.71-4.05S102.55,14.53,102.55,17Zm-4.23.12c0,2,.62,3.18,1.58,3.18s1.6-1.26,1.6-3.25-.5-3.18-1.59-3.18C99,13.88,98.32,15,98.32,17.13Z" transform="translate(-16.64 -13.07)"/><path d="M103.61,20.37a.72.72,0,0,1,.72-.76.76.76,0,1,1-.72.76Z" transform="translate(-16.64 -13.07)"/><path d="M111.19,17c0,2.65-1,4.12-2.71,4.12-1.52,0-2.56-1.43-2.58-4s1.13-4.05,2.71-4.05S111.19,14.53,111.19,17Zm-4.23.12c0,2,.62,3.18,1.58,3.18s1.59-1.26,1.59-3.25-.49-3.18-1.58-3.18C107.63,13.88,107,15,107,17.13Z" transform="translate(-16.64 -13.07)"/><path d="M90.24,56.11v-.65l.83-.8c2-1.9,2.89-2.91,2.9-4.08a1.39,1.39,0,0,0-1.54-1.52,2.66,2.66,0,0,0-1.66.66L90.44,49a3.43,3.43,0,0,1,2.2-.79A2.2,2.2,0,0,1,95,50.45c0,1.44-1,2.6-2.69,4.18l-.62.58v0h3.5v.88Z" transform="translate(-16.64 -13.07)"/><path d="M96.48,55.48a.71.71,0,0,1,.72-.75.76.76,0,0,1,0,1.51A.71.71,0,0,1,96.48,55.48Z" transform="translate(-16.64 -13.07)"/><path d="M101.17,49.3h0L99.79,50l-.2-.81,1.7-.91h.9v7.8h-1Z" transform="translate(-16.64 -13.07)"/><path d="M105.12,55.48a.71.71,0,0,1,.72-.75.76.76,0,0,1,0,1.51A.71.71,0,0,1,105.12,55.48Z" transform="translate(-16.64 -13.07)"/><path d="M112.7,52.13c0,2.65-1,4.11-2.71,4.11-1.52,0-2.55-1.43-2.57-4s1.12-4,2.71-4S112.7,49.64,112.7,52.13Zm-4.23.12c0,2,.62,3.17,1.58,3.17s1.6-1.25,1.6-3.25S111.16,49,110.07,49C109.14,49,108.47,50.12,108.47,52.25Z" transform="translate(-16.64 -13.07)"/><path d="M136.07,56.11v-.65l.82-.8c2-1.9,2.89-2.91,2.91-4.08a1.39,1.39,0,0,0-1.55-1.52,2.66,2.66,0,0,0-1.66.66l-.33-.75a3.45,3.45,0,0,1,2.2-.79,2.2,2.2,0,0,1,2.39,2.27c0,1.44-1,2.6-2.68,4.18l-.63.58v0H141v.88Z" transform="translate(-16.64 -13.07)"/><path d="M142.31,55.48a.71.71,0,0,1,.72-.75.69.69,0,0,1,.7.75.71.71,0,1,1-1.42,0Z" transform="translate(-16.64 -13.07)"/><path d="M144.71,56.11v-.65l.82-.8c2-1.9,2.89-2.91,2.91-4.08a1.39,1.39,0,0,0-1.55-1.52,2.66,2.66,0,0,0-1.66.66L144.9,49a3.45,3.45,0,0,1,2.2-.79,2.2,2.2,0,0,1,2.39,2.27c0,1.44-1,2.6-2.69,4.18l-.62.58v0h3.5v.88Z" transform="translate(-16.64 -13.07)"/><path d="M151,55.48a.71.71,0,0,1,.72-.75.76.76,0,1,1-.72.75Z" transform="translate(-16.64 -13.07)"/><path d="M158.53,52.13c0,2.65-1,4.11-2.71,4.11-1.53,0-2.56-1.43-2.58-4s1.12-4,2.71-4S158.53,49.64,158.53,52.13Zm-4.24.12c0,2,.63,3.17,1.59,3.17s1.59-1.25,1.59-3.25S157,49,155.89,49C155,49,154.29,50.12,154.29,52.25Z" transform="translate(-16.64 -13.07)"/><path d="M277,56.11v-.65l.83-.8c2-1.9,2.89-2.91,2.9-4.08a1.39,1.39,0,0,0-1.55-1.52,2.63,2.63,0,0,0-1.65.66l-.34-.75a3.46,3.46,0,0,1,2.21-.79,2.19,2.19,0,0,1,2.38,2.27c0,1.44-1,2.6-2.68,4.18l-.63.58v0H282v.88Z" transform="translate(-16.64 -13.07)"/><path d="M283.27,55.48a.71.71,0,0,1,.72-.75.76.76,0,0,1,0,1.51A.71.71,0,0,1,283.27,55.48Z" transform="translate(-16.64 -13.07)"/><path d="M285.92,54.9a3.57,3.57,0,0,0,1.73.49c1.35,0,1.77-.87,1.76-1.51,0-1.09-1-1.56-2-1.56h-.59v-.79h.59c.76,0,1.73-.4,1.73-1.32,0-.63-.39-1.18-1.36-1.18a2.83,2.83,0,0,0-1.56.52l-.28-.77a3.71,3.71,0,0,1,2-.6c1.54,0,2.23.91,2.23,1.86a1.93,1.93,0,0,1-1.44,1.83v0a2,2,0,0,1,1.74,2c0,1.25-1,2.34-2.84,2.34a4,4,0,0,1-2-.53Z" transform="translate(-16.64 -13.07)"/><path d="M291.91,55.48a.71.71,0,0,1,.72-.75.76.76,0,0,1,0,1.51A.71.71,0,0,1,291.91,55.48Z" transform="translate(-16.64 -13.07)"/><path d="M299.49,52.13c0,2.65-1,4.11-2.71,4.11-1.52,0-2.56-1.43-2.58-4s1.13-4,2.71-4S299.49,49.64,299.49,52.13Zm-4.23.12c0,2,.62,3.17,1.58,3.17s1.59-1.25,1.59-3.25S297.94,49,296.85,49C295.93,49,295.26,50.12,295.26,52.25Z" transform="translate(-16.64 -13.07)"/><path d="M358.26,56.11v-.65l.83-.8c2-1.9,2.89-2.91,2.9-4.08a1.39,1.39,0,0,0-1.54-1.52,2.66,2.66,0,0,0-1.66.66l-.33-.75a3.43,3.43,0,0,1,2.2-.79,2.2,2.2,0,0,1,2.39,2.27c0,1.44-1.05,2.6-2.69,4.18l-.62.58v0h3.5v.88Z" transform="translate(-16.64 -13.07)"/><path d="M364.5,55.48a.71.71,0,0,1,.72-.75.76.76,0,0,1,0,1.51A.71.71,0,0,1,364.5,55.48Z" transform="translate(-16.64 -13.07)"/><path d="M370.17,56.11V54h-3.63v-.69l3.48-5h1.14v4.85h1.09V54h-1.09v2.13Zm0-3v-2.6q0-.62,0-1.23h0c-.24.46-.44.79-.65,1.15l-1.91,2.65v0Z" transform="translate(-16.64 -13.07)"/><path d="M373.14,55.48a.71.71,0,0,1,.72-.75.76.76,0,0,1,0,1.51A.71.71,0,0,1,373.14,55.48Z" transform="translate(-16.64 -13.07)"/><path d="M380.72,52.13c0,2.65-1,4.11-2.71,4.11-1.52,0-2.55-1.43-2.58-4s1.13-4,2.72-4S380.72,49.64,380.72,52.13Zm-4.23.12c0,2,.62,3.17,1.58,3.17s1.6-1.25,1.6-3.25S379.18,49,378.08,49C377.16,49,376.49,50.12,376.49,52.25Z" transform="translate(-16.64 -13.07)"/><path d="M419.1,56.11v-.65l.83-.8c2-1.9,2.89-2.91,2.9-4.08a1.39,1.39,0,0,0-1.55-1.52,2.66,2.66,0,0,0-1.65.66l-.34-.75a3.46,3.46,0,0,1,2.21-.79,2.2,2.2,0,0,1,2.39,2.27c0,1.44-1.05,2.6-2.69,4.18l-.62.58v0h3.5v.88Z" transform="translate(-16.64 -13.07)"/><path d="M425.34,55.48a.71.71,0,0,1,.72-.75.76.76,0,0,1,0,1.51A.71.71,0,0,1,425.34,55.48Z" transform="translate(-16.64 -13.07)"/><path d="M432.39,49.2h-3l-.3,2a4.72,4.72,0,0,1,.63-.05,3.38,3.38,0,0,1,1.68.42,2.22,2.22,0,0,1,1.12,2,2.7,2.7,0,0,1-2.9,2.66,3.84,3.84,0,0,1-1.95-.48L428,55a3.5,3.5,0,0,0,1.66.43,1.72,1.72,0,0,0,1.85-1.69c0-1-.68-1.73-2.24-1.73a9.26,9.26,0,0,0-1.08.08l.5-3.74h3.73Z" transform="translate(-16.64 -13.07)"/><path d="M434,55.48a.71.71,0,0,1,.72-.75.76.76,0,0,1,0,1.51A.71.71,0,0,1,434,55.48Z" transform="translate(-16.64 -13.07)"/><path d="M441.56,52.13c0,2.65-1,4.11-2.71,4.11-1.52,0-2.55-1.43-2.58-4s1.13-4,2.71-4S441.56,49.64,441.56,52.13Zm-4.23.12c0,2,.62,3.17,1.58,3.17s1.59-1.25,1.59-3.25S440,49,438.92,49C438,49,437.33,50.12,437.33,52.25Z" transform="translate(-16.64 -13.07)"/><path d="M218.86,91v-.65l.83-.8c2-1.89,2.89-2.9,2.9-4.08A1.39,1.39,0,0,0,221.05,84a2.66,2.66,0,0,0-1.66.66l-.33-.74a3.38,3.38,0,0,1,2.2-.8,2.2,2.2,0,0,1,2.39,2.27c0,1.44-1,2.6-2.69,4.19l-.62.57v0h3.5V91Z" transform="translate(-16.64 -13.07)"/><path d="M225.1,90.38a.71.71,0,0,1,.72-.76.76.76,0,1,1-.72.76Z" transform="translate(-16.64 -13.07)"/><path d="M227.5,91v-.65l.83-.8c2-1.89,2.89-2.9,2.9-4.08A1.39,1.39,0,0,0,229.69,84a2.66,2.66,0,0,0-1.66.66l-.34-.74a3.41,3.41,0,0,1,2.21-.8,2.2,2.2,0,0,1,2.39,2.27c0,1.44-1,2.6-2.69,4.19l-.62.57v0h3.5V91Z" transform="translate(-16.64 -13.07)"/><path d="M233.74,90.38a.71.71,0,0,1,.72-.76.76.76,0,1,1-.72.76Z" transform="translate(-16.64 -13.07)"/><path d="M238.43,84.19h0l-1.36.73-.2-.8,1.7-.91h.9V91h-1Z" transform="translate(-16.64 -13.07)"/><path d="M279.86,91v-.65l.83-.8c2-1.89,2.89-2.9,2.9-4.08A1.39,1.39,0,0,0,282.05,84a2.66,2.66,0,0,0-1.66.66l-.33-.74a3.38,3.38,0,0,1,2.2-.8,2.2,2.2,0,0,1,2.39,2.27c0,1.44-1,2.6-2.69,4.19l-.62.57v0h3.5V91Z" transform="translate(-16.64 -13.07)"/><path d="M286.1,90.38a.71.71,0,0,1,.72-.76.76.76,0,1,1-.72.76Z" transform="translate(-16.64 -13.07)"/><path d="M288.5,91v-.65l.83-.8c2-1.89,2.89-2.9,2.9-4.08A1.39,1.39,0,0,0,290.69,84a2.66,2.66,0,0,0-1.66.66l-.33-.74a3.38,3.38,0,0,1,2.2-.8,2.2,2.2,0,0,1,2.39,2.27c0,1.44-1,2.6-2.69,4.19l-.62.57v0h3.5V91Z" transform="translate(-16.64 -13.07)"/><path d="M294.74,90.38a.71.71,0,0,1,.72-.76.76.76,0,1,1-.72.76Z" transform="translate(-16.64 -13.07)"/><path d="M297.14,91v-.65l.83-.8c2-1.89,2.89-2.9,2.9-4.08A1.39,1.39,0,0,0,299.33,84a2.66,2.66,0,0,0-1.66.66l-.34-.74a3.43,3.43,0,0,1,2.21-.8,2.2,2.2,0,0,1,2.39,2.27c0,1.44-1.05,2.6-2.69,4.19l-.62.57v0h3.5V91Z" transform="translate(-16.64 -13.07)"/></svg>